<svg width="50" height="50" viewBox="0 0 50 50" fill="none" xmlns="http://www.w3.org/2000/svg">
<path d="M31.2503 8.33333H37.5003C38.0529 8.33333 38.5828 8.55283 38.9735 8.94353C39.3642 9.33423 39.5837 9.86413 39.5837 10.4167V41.6667C39.5837 42.2192 39.3642 42.7491 38.9735 43.1398C38.5828 43.5305 38.0529 43.75 37.5003 43.75H12.5003C11.9478 43.75 11.4179 43.5305 11.0272 43.1398C10.6365 42.7491 10.417 42.2192 10.417 41.6667V10.4167C10.417 9.86413 10.6365 9.33423 11.0272 8.94353C11.4179 8.55283 11.9478 8.33333 12.5003 8.33333H18.7503M18.7503 14.5833H31.2503M25.0003 25H31.2503M18.7503 25H18.7712M25.0003 33.3333H31.2503M18.7503 33.3333H18.7712M20.8337 6.25V14.5833H29.167V6.25H20.8337Z" stroke="#075C1A" stroke-width="2" stroke-linecap="round" stroke-linejoin="round"/>
</svg>
