<svg width="50" height="50" viewBox="0 0 50 50" fill="none" xmlns="http://www.w3.org/2000/svg">
<g opacity="0.2">
<path d="M24.375 19.375C24.375 21.3641 23.5848 23.2718 22.1783 24.6783C20.7718 26.0848 18.8641 26.875 16.875 26.875C14.8859 26.875 12.9782 26.0848 11.5717 24.6783C10.1652 23.2718 9.375 21.3641 9.375 19.375C9.375 17.3859 10.1652 15.4782 11.5717 14.0717C12.9782 12.6652 14.8859 11.875 16.875 11.875C18.8641 11.875 20.7718 12.6652 22.1783 14.0717C23.5848 15.4782 24.375 17.3859 24.375 19.375Z" fill="#0A656D"/>
<path fill-rule="evenodd" clip-rule="evenodd" d="M16.875 21.875C17.538 21.875 18.1739 21.6116 18.6428 21.1428C19.1116 20.6739 19.375 20.038 19.375 19.375C19.375 18.712 19.1116 18.0761 18.6428 17.6072C18.1739 17.1384 17.538 16.875 16.875 16.875C16.212 16.875 15.5761 17.1384 15.1072 17.6072C14.6384 18.0761 14.375 18.712 14.375 19.375C14.375 20.038 14.6384 20.6739 15.1072 21.1428C15.5761 21.6116 16.212 21.875 16.875 21.875ZM16.875 26.875C17.8599 26.875 18.8352 26.681 19.7451 26.3041C20.6551 25.9272 21.4819 25.3747 22.1783 24.6783C22.8747 23.9819 23.4272 23.1551 23.8041 22.2451C24.181 21.3352 24.375 20.3599 24.375 19.375C24.375 18.3901 24.181 17.4148 23.8041 16.5049C23.4272 15.5949 22.8747 14.7681 22.1783 14.0717C21.4819 13.3753 20.6551 12.8228 19.7451 12.4459C18.8352 12.069 17.8599 11.875 16.875 11.875C14.8859 11.875 12.9782 12.6652 11.5717 14.0717C10.1652 15.4782 9.375 17.3859 9.375 19.375C9.375 21.3641 10.1652 23.2718 11.5717 24.6783C12.9782 26.0848 14.8859 26.875 16.875 26.875Z" fill="#0A656D"/>
<path fill-rule="evenodd" clip-rule="evenodd" d="M17 28.75C16.0054 28.75 15.0516 29.1451 14.3483 29.8483C13.6451 30.5516 13.25 31.5054 13.25 32.5V36.25C13.25 36.913 12.9866 37.5489 12.5178 38.0178C12.0489 38.4866 11.413 38.75 10.75 38.75C10.087 38.75 9.45107 38.4866 8.98223 38.0178C8.51339 37.5489 8.25 36.913 8.25 36.25V32.5C8.25 30.1794 9.17187 27.9538 10.8128 26.3128C12.4538 24.6719 14.6794 23.75 17 23.75C19.3206 23.75 21.5462 24.6719 23.1872 26.3128C24.8281 27.9538 25.75 30.1794 25.75 32.5V33.75C25.75 34.413 25.4866 35.0489 25.0178 35.5178C24.5489 35.9866 23.913 36.25 23.25 36.25C22.587 36.25 21.9511 35.9866 21.4822 35.5178C21.0134 35.0489 20.75 34.413 20.75 33.75V32.5C20.75 31.5054 20.3549 30.5516 19.6517 29.8483C18.9484 29.1451 17.9946 28.75 17 28.75Z" fill="#0A656D"/>
<path d="M31.875 19.375C31.875 21.3641 32.6652 23.2718 34.0717 24.6783C35.4782 26.0848 37.3859 26.875 39.375 26.875C41.3641 26.875 43.2718 26.0848 44.6783 24.6783C46.0848 23.2718 46.875 21.3641 46.875 19.375C46.875 17.3859 46.0848 15.4782 44.6783 14.0717C43.2718 12.6652 41.3641 11.875 39.375 11.875C37.3859 11.875 35.4782 12.6652 34.0717 14.0717C32.6652 15.4782 31.875 17.3859 31.875 19.375Z" fill="#0A656D"/>
<path fill-rule="evenodd" clip-rule="evenodd" d="M39.375 21.875C38.712 21.875 38.0761 21.6116 37.6072 21.1428C37.1384 20.6739 36.875 20.038 36.875 19.375C36.875 18.712 37.1384 18.0761 37.6072 17.6072C38.0761 17.1384 38.712 16.875 39.375 16.875C40.038 16.875 40.6739 17.1384 41.1428 17.6072C41.6116 18.0761 41.875 18.712 41.875 19.375C41.875 20.038 41.6116 20.6739 41.1428 21.1428C40.6739 21.6116 40.038 21.875 39.375 21.875ZM39.375 26.875C38.3901 26.875 37.4148 26.681 36.5049 26.3041C35.5949 25.9272 34.7681 25.3747 34.0717 24.6783C33.3753 23.9819 32.8228 23.1551 32.4459 22.2451C32.069 21.3352 31.875 20.3599 31.875 19.375C31.875 18.3901 32.069 17.4148 32.4459 16.5049C32.8228 15.5949 33.3753 14.7681 34.0717 14.0717C34.7681 13.3753 35.5949 12.8228 36.5049 12.4459C37.4148 12.069 38.3901 11.875 39.375 11.875C41.3641 11.875 43.2718 12.6652 44.6783 14.0717C46.0848 15.4782 46.875 17.3859 46.875 19.375C46.875 21.3641 46.0848 23.2718 44.6783 24.6783C43.2718 26.0848 41.3641 26.875 39.375 26.875Z" fill="#0A656D"/>
<path fill-rule="evenodd" clip-rule="evenodd" d="M39.25 28.75C40.2446 28.75 41.1984 29.1451 41.9017 29.8483C42.6049 30.5516 43 31.5054 43 32.5V36.25C43 36.913 43.2634 37.5489 43.7322 38.0178C44.2011 38.4866 44.837 38.75 45.5 38.75C46.163 38.75 46.7989 38.4866 47.2678 38.0178C47.7366 37.5489 48 36.913 48 36.25V32.5C48 30.1794 47.0781 27.9538 45.4372 26.3128C43.7962 24.6719 41.5706 23.75 39.25 23.75C36.9294 23.75 34.7038 24.6719 33.0628 26.3128C31.4219 27.9538 30.5 30.1794 30.5 32.5V33.75C30.5 34.413 30.7634 35.0489 31.2322 35.5178C31.7011 35.9866 32.337 36.25 33 36.25C33.663 36.25 34.2989 35.9866 34.7678 35.5178C35.2366 35.0489 35.5 34.413 35.5 33.75V32.5C35.5 31.5054 35.8951 30.5516 36.5983 29.8483C37.3016 29.1451 38.2554 28.75 39.25 28.75Z" fill="#0A656D"/>
<path fill-rule="evenodd" clip-rule="evenodd" d="M28.25 35.625C27.2554 35.625 26.3016 36.0201 25.5983 36.7233C24.8951 37.4266 24.5 38.3804 24.5 39.375V43.125C24.5 43.788 24.2366 44.4239 23.7678 44.8928C23.2989 45.3616 22.663 45.625 22 45.625C21.337 45.625 20.7011 45.3616 20.2322 44.8928C19.7634 44.4239 19.5 43.788 19.5 43.125V39.375C19.5 37.0544 20.4219 34.8288 22.0628 33.1878C23.7038 31.5469 25.9294 30.625 28.25 30.625C30.5706 30.625 32.7962 31.5469 34.4372 33.1878C36.0781 34.8288 37 37.0544 37 39.375V43.125C37 43.788 36.7366 44.4239 36.2678 44.8928C35.7989 45.3616 35.163 45.625 34.5 45.625C33.837 45.625 33.2011 45.3616 32.7322 44.8928C32.2634 44.4239 32 43.788 32 43.125V39.375C32 38.3804 31.6049 37.4266 30.9017 36.7233C30.1984 36.0201 29.2446 35.625 28.25 35.625Z" fill="#0A656D"/>
<path d="M35.625 26.25C35.625 28.2391 34.8348 30.1468 33.4283 31.5533C32.0218 32.9598 30.1141 33.75 28.125 33.75C26.1359 33.75 24.2282 32.9598 22.8217 31.5533C21.4152 30.1468 20.625 28.2391 20.625 26.25C20.625 24.2609 21.4152 22.3532 22.8217 20.9467C24.2282 19.5402 26.1359 18.75 28.125 18.75C30.1141 18.75 32.0218 19.5402 33.4283 20.9467C34.8348 22.3532 35.625 24.2609 35.625 26.25Z" fill="#0A656D"/>
<path fill-rule="evenodd" clip-rule="evenodd" d="M28.125 28.75C28.788 28.75 29.4239 28.4866 29.8928 28.0178C30.3616 27.5489 30.625 26.913 30.625 26.25C30.625 25.587 30.3616 24.9511 29.8928 24.4822C29.4239 24.0134 28.788 23.75 28.125 23.75C27.462 23.75 26.8261 24.0134 26.3572 24.4822C25.8884 24.9511 25.625 25.587 25.625 26.25C25.625 26.913 25.8884 27.5489 26.3572 28.0178C26.8261 28.4866 27.462 28.75 28.125 28.75ZM28.125 33.75C30.1141 33.75 32.0218 32.9598 33.4283 31.5533C34.8348 30.1468 35.625 28.2391 35.625 26.25C35.625 24.2609 34.8348 22.3532 33.4283 20.9467C32.0218 19.5402 30.1141 18.75 28.125 18.75C26.1359 18.75 24.2282 19.5402 22.8217 20.9467C21.4152 22.3532 20.625 24.2609 20.625 26.25C20.625 28.2391 21.4152 30.1468 22.8217 31.5533C24.2282 32.9598 26.1359 33.75 28.125 33.75Z" fill="#0A656D"/>
<path d="M10.625 28.75H23.125V38.75H10.625V28.75ZM33.125 28.75H45.625V38.75H33.125V28.75Z" fill="#0A656D"/>
<path d="M23.125 33.75H33.125L34.375 45.625H21.875L23.125 33.75Z" fill="#0A656D"/>
</g>
<path fill-rule="evenodd" clip-rule="evenodd" d="M12.5 22.5C13.8261 22.5 15.0979 21.9732 16.0355 21.0355C16.9732 20.0979 17.5 18.8261 17.5 17.5C17.5 16.1739 16.9732 14.9021 16.0355 13.9645C15.0979 13.0268 13.8261 12.5 12.5 12.5C11.1739 12.5 9.90215 13.0268 8.96447 13.9645C8.02678 14.9021 7.5 16.1739 7.5 17.5C7.5 18.8261 8.02678 20.0979 8.96447 21.0355C9.90215 21.9732 11.1739 22.5 12.5 22.5ZM12.5 25C13.4849 25 14.4602 24.806 15.3701 24.4291C16.2801 24.0522 17.1069 23.4997 17.8033 22.8033C18.4997 22.1069 19.0522 21.2801 19.4291 20.3701C19.806 19.4602 20 18.4849 20 17.5C20 16.5151 19.806 15.5398 19.4291 14.6299C19.0522 13.7199 18.4997 12.8931 17.8033 12.1967C17.1069 11.5003 16.2801 10.9478 15.3701 10.5709C14.4602 10.194 13.4849 10 12.5 10C10.5109 10 8.60322 10.7902 7.1967 12.1967C5.79018 13.6032 5 15.5109 5 17.5C5 19.4891 5.79018 21.3968 7.1967 22.8033C8.60322 24.2098 10.5109 25 12.5 25Z" fill="#0A656D"/>
<path fill-rule="evenodd" clip-rule="evenodd" d="M9.635 22.2383C9.75141 22.3544 9.84377 22.4924 9.90678 22.6442C9.9698 22.7961 10.0022 22.9589 10.0022 23.1233C10.0022 23.2877 9.9698 23.4505 9.90678 23.6024C9.84377 23.7543 9.75141 23.8922 9.635 24.0083L8.79 24.8508C7.16384 26.4774 6.25021 28.6833 6.25 30.9833V35.6233C6.25 35.9548 6.1183 36.2728 5.88388 36.5072C5.64946 36.7416 5.33152 36.8733 5 36.8733C4.66848 36.8733 4.35054 36.7416 4.11612 36.5072C3.8817 36.2728 3.75 35.9548 3.75 35.6233V30.9833C3.75035 28.0203 4.92746 25.1787 7.0225 23.0833L7.865 22.2383C7.98111 22.1219 8.11905 22.0296 8.27092 21.9665C8.42278 21.9035 8.58558 21.8711 8.75 21.8711C8.91442 21.8711 9.07722 21.9035 9.22908 21.9665C9.38095 22.0296 9.51889 22.1219 9.635 22.2383ZM39.115 21.4883C38.9986 21.6044 38.9062 21.7424 38.8432 21.8942C38.7802 22.0461 38.7478 22.2089 38.7478 22.3733C38.7478 22.5377 38.7802 22.7006 38.8432 22.8524C38.9062 23.0043 38.9986 23.1422 39.115 23.2583L39.96 24.1008C40.7653 24.9062 41.4041 25.8622 41.8399 26.9145C42.2757 27.9667 42.5 29.0944 42.5 30.2333V35.6233C42.5 35.9548 42.6317 36.2728 42.8661 36.5072C43.1005 36.7416 43.4185 36.8733 43.75 36.8733C44.0815 36.8733 44.3995 36.7416 44.6339 36.5072C44.8683 36.2728 45 35.9548 45 35.6233V30.2333C44.9996 27.2703 43.8225 24.4287 41.7275 22.3333L40.885 21.4883C40.7689 21.3719 40.6309 21.2796 40.4791 21.2165C40.3272 21.1535 40.1644 21.1211 40 21.1211C39.8356 21.1211 39.6728 21.1535 39.5209 21.2165C39.3691 21.2796 39.2311 21.3719 39.115 21.4883Z" fill="#0A656D"/>
<path fill-rule="evenodd" clip-rule="evenodd" d="M35 22.5C33.6739 22.5 32.4021 21.9732 31.4645 21.0355C30.5268 20.0979 30 18.8261 30 17.5C30 16.1739 30.5268 14.9021 31.4645 13.9645C32.4021 13.0268 33.6739 12.5 35 12.5C36.3261 12.5 37.5979 13.0268 38.5355 13.9645C39.4732 14.9021 40 16.1739 40 17.5C40 18.8261 39.4732 20.0979 38.5355 21.0355C37.5979 21.9732 36.3261 22.5 35 22.5ZM35 25C34.0151 25 33.0398 24.806 32.1299 24.4291C31.2199 24.0522 30.3931 23.4997 29.6967 22.8033C29.0003 22.1069 28.4478 21.2801 28.0709 20.3701C27.694 19.4602 27.5 18.4849 27.5 17.5C27.5 16.5151 27.694 15.5398 28.0709 14.6299C28.4478 13.7199 29.0003 12.8931 29.6967 12.1967C30.3931 11.5003 31.2199 10.9478 32.1299 10.5709C33.0398 10.194 34.0151 10 35 10C36.9891 10 38.8968 10.7902 40.3033 12.1967C41.7098 13.6032 42.5 15.5109 42.5 17.5C42.5 19.4891 41.7098 21.3968 40.3033 22.8033C38.8968 24.2098 36.9891 25 35 25ZM23.75 33.125C22.0924 33.125 20.5027 33.7835 19.3306 34.9556C18.1585 36.1277 17.5 37.7174 17.5 39.375V42.625C17.5 42.9565 17.3683 43.2745 17.1339 43.5089C16.8995 43.7433 16.5815 43.875 16.25 43.875C15.9185 43.875 15.6005 43.7433 15.3661 43.5089C15.1317 43.2745 15 42.9565 15 42.625V39.375C15 37.0544 15.9219 34.8288 17.5628 33.1878C19.2038 31.5469 21.4294 30.625 23.75 30.625C26.0706 30.625 28.2962 31.5469 29.9372 33.1878C31.5781 34.8288 32.5 37.0544 32.5 39.375V42.625C32.5 42.9565 32.3683 43.2745 32.1339 43.5089C31.8995 43.7433 31.5815 43.875 31.25 43.875C30.9185 43.875 30.6005 43.7433 30.3661 43.5089C30.1317 43.2745 30 42.9565 30 42.625V39.375C30 38.5542 29.8383 37.7415 29.5242 36.9832C29.2102 36.2249 28.7498 35.536 28.1694 34.9556C27.5891 34.3752 26.9001 33.9148 26.1418 33.6008C25.3835 33.2867 24.5708 33.125 23.75 33.125Z" fill="#0A656D"/>
<path fill-rule="evenodd" clip-rule="evenodd" d="M23.75 29.375C25.0761 29.375 26.3479 28.8482 27.2855 27.9105C28.2232 26.9729 28.75 25.7011 28.75 24.375C28.75 23.0489 28.2232 21.7771 27.2855 20.8395C26.3479 19.9018 25.0761 19.375 23.75 19.375C22.4239 19.375 21.1521 19.9018 20.2145 20.8395C19.2768 21.7771 18.75 23.0489 18.75 24.375C18.75 25.7011 19.2768 26.9729 20.2145 27.9105C21.1521 28.8482 22.4239 29.375 23.75 29.375ZM23.75 31.875C25.7391 31.875 27.6468 31.0848 29.0533 29.6783C30.4598 28.2718 31.25 26.3641 31.25 24.375C31.25 22.3859 30.4598 20.4782 29.0533 19.0717C27.6468 17.6652 25.7391 16.875 23.75 16.875C21.7609 16.875 19.8532 17.6652 18.4467 19.0717C17.0402 20.4782 16.25 22.3859 16.25 24.375C16.25 26.3641 17.0402 28.2718 18.4467 29.6783C19.8532 31.0848 21.7609 31.875 23.75 31.875Z" fill="#0A656D"/>
</svg>
