<svg width="350" height="350" viewBox="0 0 350 350" fill="none" xmlns="http://www.w3.org/2000/svg">
<path d="M46.9453 308.164V314.516H92.5133V308.164H46.9453Z" fill="#E0E0E0"/>
<path d="M53.1625 308.414C53.3163 308.414 53.4458 309.749 53.4458 311.396C53.4458 313.043 53.3163 314.369 53.1625 314.369C53.0087 314.369 52.8711 313.034 52.8711 311.396C52.8711 309.757 53.0006 308.414 53.1625 308.414Z" fill="#FAFAFA"/>
<path d="M52.1661 308.289C52.328 308.289 52.4494 309.624 52.4494 311.262C52.4494 312.901 52.328 314.244 52.1661 314.244C52.0042 314.244 51.8828 312.909 51.8828 311.262C51.8828 309.615 52.0042 308.289 52.1661 308.289Z" fill="#FAFAFA"/>
<path d="M88.9923 308.414C89.1541 308.414 89.2836 309.749 89.2836 311.396C89.2836 313.043 89.1541 314.369 88.9923 314.369C88.8304 314.369 88.709 313.034 88.709 311.396C88.709 309.757 88.8385 308.414 88.9923 308.414Z" fill="#FAFAFA"/>
<path d="M88.0062 308.289C88.16 308.289 88.2895 309.624 88.2895 311.262C88.2895 312.901 88.16 314.244 88.0062 314.244C87.8524 314.244 87.7148 312.909 87.7148 311.262C87.7148 309.615 87.8443 308.289 88.0062 308.289Z" fill="#FAFAFA"/>
<path d="M82.0484 311.522C82.0484 311.691 76.8279 311.818 70.3933 311.818C63.9588 311.818 58.7383 311.691 58.7383 311.522C58.7383 311.353 63.9588 311.227 70.3933 311.227C76.8279 311.227 82.0484 311.353 82.0484 311.522Z" fill="#FAFAFA"/>
<path d="M46.752 336.765V349.469H92.32V336.765H46.752Z" fill="#E0E0E0"/>
<path d="M92.903 345.895C92.903 345.895 92.8301 345.954 92.6602 346.039C92.4902 346.123 92.2393 346.25 91.8993 346.402C90.9089 346.84 89.8705 347.149 88.8075 347.322C87.1044 347.645 85.3471 347.384 83.7975 346.579C82.839 346.046 82.0215 345.275 81.4179 344.332C80.725 343.259 80.4368 341.957 80.6085 340.675C80.708 339.979 80.9879 339.325 81.4179 338.783C81.6482 338.486 81.9413 338.25 82.2742 338.091C82.607 337.933 82.9705 337.857 83.3361 337.871C83.7124 337.903 84.0783 338.015 84.4111 338.201C84.7438 338.387 85.0364 338.643 85.2705 338.952C85.7689 339.565 86.0766 340.322 86.1528 341.123C86.2148 341.947 86.1068 342.775 85.8359 343.552C85.565 344.328 85.1376 345.035 84.5826 345.625C83.4293 346.897 81.8743 347.692 80.2038 347.863C78.4837 348.036 76.7483 347.811 75.1209 347.204C73.3817 346.637 71.838 345.554 70.6774 344.087C70.0789 343.3 69.7182 342.344 69.6414 341.342C69.593 340.821 69.6549 340.295 69.8228 339.802C69.9906 339.309 70.2603 338.86 70.6127 338.487C70.9984 338.101 71.5034 337.87 72.0372 337.837C72.5648 337.822 73.0843 337.975 73.5265 338.276C74.3806 338.86 74.9819 339.77 75.2019 340.81C75.3924 341.826 75.327 342.876 75.0121 343.858C74.6971 344.839 74.1434 345.719 73.4051 346.41C71.9584 347.685 70.1618 348.448 68.2736 348.589C66.4838 348.804 64.6707 348.617 62.956 348.04C61.2728 347.488 59.8363 346.321 58.9091 344.755C58.448 344.011 58.1621 343.165 58.0749 342.284C57.9877 341.403 58.1016 340.513 58.4073 339.687C58.5586 339.273 58.808 338.905 59.1321 338.619C59.4561 338.332 59.8444 338.136 60.2607 338.048C60.6611 337.973 61.0721 337.985 61.4677 338.084C61.8633 338.183 62.235 338.366 62.5594 338.622C63.1274 339.143 63.534 339.828 63.7272 340.591C63.9203 341.354 63.8914 342.159 63.6439 342.905C63.2009 344.236 62.4036 345.408 61.3453 346.284C59.5924 347.833 57.3925 348.725 55.0969 348.818C53.6996 348.869 52.3075 348.614 51.0108 348.068C49.7141 347.523 48.5417 346.699 47.5697 345.65C47.375 345.441 47.1913 345.221 47.0193 344.991C46.9585 344.915 46.9044 344.833 46.8574 344.746C47.8195 345.854 48.9692 346.768 50.2487 347.441C51.7563 348.214 53.4274 348.574 55.105 348.488C57.3197 348.357 59.4308 347.466 61.1106 345.954C62.0965 345.121 62.8371 344.014 63.2473 342.761C63.4617 342.108 63.4862 341.404 63.3177 340.737C63.1492 340.069 62.7952 339.469 62.3004 339.011C62.0285 338.8 61.718 338.649 61.3881 338.568C61.0582 338.486 60.7159 338.476 60.3821 338.538C60.0437 338.611 59.729 338.774 59.4681 339.01C59.2073 339.247 59.0092 339.55 58.8929 339.889C58.6268 340.635 58.5328 341.436 58.6186 342.227C58.7044 343.018 58.9675 343.777 59.3866 344.442C60.2556 345.89 61.5942 346.963 63.1583 347.466C64.799 348.009 66.5316 348.182 68.2412 347.973C70.0083 347.836 71.6897 347.124 73.0489 345.937C73.7156 345.311 74.2152 344.514 74.4989 343.626C74.7826 342.738 74.8408 341.788 74.6677 340.869C74.4852 339.976 73.9773 339.192 73.2513 338.682C72.9238 338.429 72.5216 338.304 72.1149 338.328C71.7082 338.353 71.3226 338.526 71.0255 338.817C70.7312 339.127 70.5061 339.502 70.3662 339.914C70.2263 340.325 70.1751 340.764 70.2161 341.199C70.2843 342.086 70.6025 342.932 71.1307 343.631C72.2215 345.006 73.6687 346.023 75.299 346.562C76.853 347.146 78.5104 347.368 80.1553 347.213C81.6949 347.058 83.1304 346.333 84.2022 345.169C84.713 344.635 85.1082 343.993 85.3609 343.286C85.6137 342.58 85.7181 341.824 85.6671 341.072C85.6398 340.388 85.3912 339.735 84.9619 339.218C84.5327 338.701 83.9481 338.351 83.3037 338.225C83.0038 338.215 82.7056 338.277 82.432 338.406C82.1584 338.535 81.9168 338.727 81.7255 338.969C81.3307 339.449 81.0703 340.034 80.9727 340.658C80.8072 341.841 81.0698 343.045 81.7093 344.037C82.2705 344.939 83.0346 345.684 83.9351 346.208C85.4305 347.008 87.132 347.29 88.7913 347.01C89.8415 346.86 90.8728 346.591 91.867 346.208C92.5469 346.03 92.8949 345.87 92.903 345.895Z" fill="#FAFAFA"/>
<path d="M50.8223 314.689V336.734H92.3191V314.689H50.8223Z" fill="#EBEBEB"/>
<path d="M57.7191 315.453C57.8729 315.453 58.0024 320.225 58.0024 326.121C58.0024 332.017 57.8729 336.789 57.7191 336.789C57.5653 336.789 57.4277 332.017 57.4277 326.121C57.4277 320.225 57.5572 315.453 57.7191 315.453Z" fill="#E0E0E0"/>
<path d="M60.8675 315.172C61.0213 315.172 61.1508 319.894 61.1508 325.705C61.1508 331.516 61.0213 336.238 60.8675 336.238C60.7138 336.238 60.5762 331.525 60.5762 325.705C60.5762 319.885 60.7057 315.172 60.8675 315.172Z" fill="#E0E0E0"/>
<path d="M87.6332 314.5C87.787 314.5 87.9165 319.467 87.9165 325.599C87.9165 331.731 87.787 336.689 87.6332 336.689C87.4794 336.689 87.3418 331.723 87.3418 325.599C87.3418 319.475 87.4713 314.5 87.6332 314.5Z" fill="#E0E0E0"/>
<path d="M83.934 314.766C84.0877 314.766 84.2172 319.597 84.2172 325.569C84.2172 331.541 84.0877 336.372 83.934 336.372C83.7802 336.372 83.6426 331.541 83.6426 325.569C83.6426 319.597 83.7721 314.766 83.934 314.766Z" fill="#E0E0E0"/>
<path d="M307.315 266.573C311.621 264.25 316.68 263.954 321.463 264.774C324.029 265.221 326.7 266.015 328.448 268.034C330.196 270.053 330.52 273.583 328.521 275.307C327.323 276.337 325.664 276.498 324.11 276.472C320.371 276.43 316.227 275.746 313.24 278.094C311.532 279.429 310.399 281.658 308.384 282.317C306.368 282.976 304.143 281.734 303.09 279.859C302.118 277.903 301.903 275.632 302.491 273.516C302.73 272.049 303.289 270.66 304.126 269.456C304.962 268.252 306.054 267.265 307.315 266.573Z" fill="#EBEBEB"/>
<path d="M297.457 246.716C300.088 250.636 305.203 249.335 307.575 246.944C309.946 244.554 310.95 241.082 311.856 237.771C313.944 230.22 316.041 222.289 314.495 214.594C314.124 212.26 313.141 210.078 311.654 208.293C310.902 207.412 309.942 206.752 308.87 206.379C307.798 206.005 306.651 205.931 305.543 206.164C302.969 206.882 301.367 209.543 300.209 212.018C296.799 219.42 295.01 227.522 294.973 235.736C294.973 239.554 295.394 243.557 297.457 246.716Z" fill="#EBEBEB"/>
<path d="M290.261 252.334C293.118 248.795 293.66 243.634 292.39 239.208C291.119 234.782 288.246 230.998 284.935 227.924C281.041 224.305 276.507 221.513 271.589 219.705C269.686 218.905 267.64 218.543 265.591 218.641C264.567 218.703 263.573 219.025 262.695 219.58C261.817 220.135 261.083 220.906 260.557 221.825C259.149 224.621 260.5 228.008 261.957 230.779C264.525 235.649 267.453 240.304 270.715 244.699C273.345 248.238 276.38 251.726 280.354 253.323C284.328 254.919 288.521 254.725 290.642 251.828" fill="#EBEBEB"/>
<path d="M297.278 305.856C297.417 305.272 297.498 304.675 297.52 304.073C297.642 302.781 297.788 301.151 297.974 299.217C298.206 296.821 298.554 294.438 299.018 292.079C299.627 289.198 300.458 286.374 301.503 283.633C302.528 280.91 303.915 278.351 305.622 276.031C307.014 274.14 308.792 272.596 310.827 271.512C312.21 270.803 313.689 270.321 315.213 270.084C315.787 270.066 316.357 269.981 316.913 269.831C316.338 269.765 315.757 269.765 315.181 269.831C313.598 269.956 312.049 270.377 310.608 271.072C308.467 272.129 306.589 273.687 305.121 275.625C303.335 277.98 301.895 280.599 300.847 283.396C299.802 286.169 298.989 289.032 298.419 291.953C297.978 294.339 297.673 296.75 297.504 299.174C297.359 301.235 297.302 302.908 297.278 304.065C297.217 304.66 297.217 305.26 297.278 305.856Z" fill="#E0E0E0"/>
<path d="M297.601 302.115C297.65 301.837 297.666 301.553 297.65 301.271C297.65 300.654 297.65 299.868 297.65 298.905C297.65 296.861 297.65 293.888 297.747 290.222C297.925 282.891 298.557 275.018 299.698 263.869C300.807 253.412 302.288 241.232 303.858 233.317C304.19 231.518 304.53 229.896 304.854 228.477C305.177 227.058 305.412 225.834 305.663 224.845C305.914 223.857 306.051 223.156 306.189 222.548C306.262 222.271 306.311 221.989 306.335 221.703C306.211 221.949 306.119 222.21 306.059 222.48C305.881 223.071 305.663 223.823 305.396 224.744C305.129 225.665 304.805 226.94 304.465 228.359C304.125 229.778 303.737 231.391 303.372 233.191C301.428 242.551 299.966 252.014 298.994 261.537C297.828 272.687 297.302 282.84 297.253 290.189C297.213 293.863 297.253 296.836 297.375 298.889C297.432 299.851 297.48 300.637 297.512 301.254C297.508 301.544 297.538 301.833 297.601 302.115Z" fill="#E0E0E0"/>
<path d="M297.65 282.536C297.712 281.715 297.712 280.891 297.65 280.07C297.561 278.482 297.351 276.184 296.922 273.38C296.406 270.092 295.711 266.838 294.842 263.633C293.821 259.689 292.514 255.831 290.932 252.094C288.224 245.206 284.338 238.889 279.464 233.453C278.614 232.524 277.711 231.65 276.76 230.834C276.347 230.471 275.951 230.108 275.611 229.821L274.567 229.069C273.937 228.567 273.268 228.121 272.568 227.734C272.454 227.895 275.392 229.694 279.099 233.816C283.815 239.3 287.597 245.585 290.285 252.399C291.831 256.11 293.137 259.925 294.194 263.818C295.222 267.4 295.902 270.694 296.42 273.465C296.938 276.235 297.189 278.532 297.359 280.095C297.393 280.916 297.49 281.732 297.65 282.536Z" fill="#E0E0E0"/>
<path d="M278.258 314.102L280.144 340.979H313.223L315.109 314.102H278.258Z" fill="#EBEBEB"/>
<path d="M319.05 303.508H275.061V314.1H319.05V303.508Z" fill="#EBEBEB"/>
<path d="M275.061 339.945V342.885H277.133H318.33V339.945H275.061Z" fill="#E0E0E0"/>
<path d="M279.156 347.723L277.133 342.562H316.752L314.389 347.723H279.156Z" fill="#E0E0E0"/>
<path d="M314.495 322.881C314.454 322.97 314.403 323.052 314.341 323.126C314.204 323.312 314.042 323.532 313.847 323.81L311.913 326.387L311.832 326.505L311.751 326.378C310.537 324.63 308.918 322.298 307.016 319.545H307.259L302.597 326.437L302.451 326.648L302.289 326.446L296.786 319.562H297.101L296.802 319.959L291.881 326.446L291.711 326.665L291.565 326.437C289.882 323.962 288.328 321.64 286.895 319.553H287.17L281.424 326.387L281.327 326.505L281.246 326.37L279.449 323.219C279.255 322.873 279.109 322.594 278.987 322.374C278.928 322.282 278.879 322.183 278.842 322.079C278.916 322.158 278.982 322.245 279.036 322.341L279.546 323.185L281.432 326.285H281.254L286.919 319.367L287.057 319.198L287.186 319.384L291.897 326.243H291.573L296.511 319.764L296.81 319.359L296.972 319.156L297.134 319.359L302.646 326.235H302.338L307.049 319.376L307.186 319.173L307.316 319.376L311.953 326.285H311.783C312.633 325.221 313.297 324.385 313.791 323.751L314.325 323.101C314.422 322.94 314.487 322.873 314.495 322.881Z" fill="#F5F5F5"/>
<path d="M315.57 313.922C315.57 314.04 307.274 314.133 297.052 314.133C286.829 314.133 278.533 314.04 278.533 313.922C278.533 313.804 286.821 313.711 297.052 313.711C307.282 313.711 315.57 313.804 315.57 313.922Z" fill="#F5F5F5"/>
<path d="M126.937 33.9357C126.937 33.9357 126.865 33.9357 126.743 33.8766L126.209 33.657L124.169 32.7701L116.683 29.3914L92.0775 18.208L91.2196 17.8111H91.3977L67.2863 28.6143L60.0019 31.8071L58.0108 32.6518C57.7839 32.7605 57.5483 32.8481 57.3066 32.9137C57.5215 32.78 57.7461 32.6642 57.9784 32.5673L59.9371 31.6382L67.2215 28.3018L91.2763 17.4141H91.3653H91.4543L92.3123 17.8026L116.869 29.1211L124.291 32.5927L126.298 33.5641L126.816 33.8259C126.861 33.8574 126.901 33.8943 126.937 33.9357Z" fill="#E0E0E0"/>
<path d="M165.317 30.25H7.25391V153.765H165.317V30.25Z" fill="#E0E0E0"/>
<path d="M160.388 35.9922H12.7812V148.687H160.388V35.9922Z" fill="#FAFAFA"/>
<path d="M45.3848 85.2266C45.3848 85.2266 45.5385 104.139 46.4612 109.916L69.1967 108.793C69.1967 108.793 67.2056 90.2101 67.9745 85.2266H45.3848Z" fill="#E0E0E0"/>
<path d="M56.5855 87.8938H56.9173C57.2338 87.8816 57.5507 87.8985 57.8643 87.9445C58.3624 88.0216 58.8475 88.1724 59.305 88.3922C59.9106 88.7051 60.4457 89.1485 60.8752 89.6929C61.4031 90.355 61.7771 91.1356 61.9678 91.9735C62.1457 92.9547 62.0645 93.9678 61.7331 94.9045C61.5637 95.4139 61.3497 95.9059 61.0937 96.3742C60.8221 96.8509 60.5788 97.3445 60.3653 97.8524C59.912 98.9296 59.6015 100.066 59.4426 101.231V101.307H59.3697H57.1278H54.7725H54.6834V101.223C54.5825 100.064 54.207 98.949 53.5908 97.9791C53.3156 97.4892 53.0161 97.0415 52.7814 96.577C52.4876 96.1397 52.2174 95.6857 51.972 95.217C51.5569 94.3197 51.4319 93.3061 51.6159 92.3283C51.748 91.4842 52.0486 90.6784 52.4981 89.9632C52.882 89.3885 53.3856 88.912 53.9712 88.5695C54.6941 88.1693 55.4869 87.9251 56.3022 87.8516H56.6259C56.6259 87.8516 56.6259 87.8516 56.545 87.8516H56.3022C55.9933 87.8896 55.6876 87.9517 55.3876 88.0374C54.909 88.1678 54.449 88.3638 54.0197 88.6202C53.447 88.958 52.9568 89.4291 52.5871 89.997C52.1691 90.7059 51.8937 91.4963 51.7778 92.3198C51.6012 93.2674 51.7262 94.2492 52.1339 95.1157C52.3817 95.5774 52.6519 96.0256 52.9433 96.4587C53.2266 96.9064 53.526 97.3709 53.8012 97.8608C54.4401 98.8529 54.8272 99.998 54.9262 101.189L54.8372 101.096H57.1925H59.4426L59.3536 101.18C59.5154 100.001 59.8313 98.8497 60.2924 97.7595C60.5146 97.2475 60.7632 96.7484 61.0371 96.2644C61.2884 95.8066 61.4997 95.326 61.6684 94.8285C61.996 93.9205 62.0827 92.9371 61.9193 91.982C61.7348 91.1642 61.3781 90.3996 60.8752 89.7436C60.4576 89.2058 59.9365 88.7655 59.3455 88.4513C58.8975 88.2252 58.4203 88.0687 57.929 87.9867C57.6209 87.9374 57.31 87.9092 56.9983 87.9023H56.7474C56.6178 87.9023 56.5855 87.9022 56.5855 87.8938Z" fill="white"/>
<path d="M57.7514 101.083C57.7498 101.058 57.7498 101.033 57.7514 101.007V100.788C57.7514 100.593 57.6786 100.306 57.63 99.9431C57.5248 99.1997 57.371 98.1355 57.2739 96.8093C57.2739 96.4799 57.2253 96.1336 57.2172 95.7704C57.1969 95.3906 57.1969 95.0099 57.2172 94.6301C57.226 94.2226 57.3112 93.8208 57.4681 93.4476C57.6431 93.0444 57.9543 92.7226 58.3423 92.5438C58.5489 92.4532 58.7766 92.4281 58.9968 92.4717C59.217 92.5152 59.4201 92.6255 59.5806 92.7887C59.6661 92.8713 59.7335 92.9722 59.7782 93.0844C59.8229 93.1967 59.8438 93.3176 59.8396 93.4391C59.835 93.6838 59.7556 93.9206 59.613 94.1149C59.4666 94.3123 59.2782 94.4713 59.0626 94.5794C58.8487 94.6844 58.623 94.761 58.3908 94.8075C57.4426 95.0098 56.4685 95.0441 55.5094 94.9088C55.2722 94.8751 55.0406 94.8069 54.8215 94.7061C54.6077 94.6058 54.4152 94.4623 54.2549 94.2838C54.0907 94.1051 53.976 93.8832 53.9231 93.6418C53.8721 93.4054 53.9007 93.1578 54.004 92.9408C54.0977 92.722 54.2688 92.5495 54.4815 92.4593C54.5825 92.414 54.6913 92.3906 54.8012 92.3906C54.9112 92.3906 55.02 92.414 55.1209 92.4593C55.3163 92.5518 55.4841 92.6978 55.6066 92.8817C55.7206 93.0621 55.8028 93.2623 55.8494 93.4729C55.918 93.8746 55.9559 94.2813 55.9627 94.6892L56.076 96.86C56.1327 98.1861 56.1893 99.2589 56.2217 100.011C56.2217 100.374 56.2217 100.661 56.2217 100.855V101.151C56.2235 101.126 56.2235 101.1 56.2217 101.075C56.2217 101.024 56.2217 100.948 56.2217 100.855C56.2217 100.762 56.2217 100.365 56.1731 100.011C56.1731 99.2589 56.0679 98.1861 55.9951 96.86C55.9951 96.2012 55.9222 95.4748 55.8818 94.6892C55.8766 94.2864 55.8359 93.8849 55.7603 93.4898C55.7208 93.2876 55.6438 93.0954 55.5337 92.9239C55.4136 92.7518 55.2553 92.6127 55.0724 92.5184C54.979 92.4769 54.8785 92.4554 54.777 92.4554C54.6754 92.4554 54.5749 92.4769 54.4815 92.5184C54.2846 92.6041 54.1256 92.7639 54.0364 92.9661C53.9432 93.1713 53.9176 93.403 53.9635 93.6249C54.0181 93.8497 54.1267 94.0561 54.2792 94.2247C54.6077 94.5628 55.035 94.7768 55.4933 94.8328C55.9681 94.8978 56.4473 94.9204 56.9259 94.9004C57.4045 94.8873 57.8811 94.8308 58.3504 94.7315C58.5776 94.6862 58.7981 94.6095 59.006 94.5034C59.211 94.4006 59.3909 94.2504 59.5321 94.0642C59.6657 93.8816 59.742 93.6603 59.7506 93.4307C59.7501 93.3189 59.7285 93.2084 59.6868 93.1054C59.6451 93.0025 59.5842 92.9092 59.5078 92.831C59.3555 92.6794 59.1648 92.5766 58.9582 92.5347C58.7516 92.4927 58.5379 92.5135 58.3423 92.5945C57.9829 92.7638 57.6951 93.0641 57.5329 93.4391C57.379 93.8075 57.2938 94.2031 57.282 94.6048C57.282 94.9933 57.282 95.365 57.282 95.7282C57.282 96.0914 57.282 96.4377 57.3386 96.7756C57.4358 98.1017 57.5814 99.166 57.6705 99.9008C57.719 100.272 57.7595 100.551 57.7838 100.745V100.965C57.7775 101.006 57.7666 101.045 57.7514 101.083Z" fill="white"/>
<path d="M54.7324 101.209C54.7693 101.469 54.7909 101.732 54.7972 101.995C54.7972 102.558 54.8295 103.242 54.8943 104.047V103.997L56.4321 105.863H56.3512L58.1237 105.762H58.0509L58.925 104.647L59.3702 104.081V104.157C59.3702 103.068 59.3216 102.045 59.3054 101.116L59.4025 101.209H56.0922H54.7324C54.8371 101.194 54.9434 101.194 55.0481 101.209L55.9789 101.159L59.3459 101.023H59.443V101.125C59.443 102.062 59.4997 103.084 59.532 104.166V104.174C59.3863 104.36 59.2407 104.554 59.0869 104.74L58.2047 105.863H58.1561L56.3836 105.956H56.3512L54.8457 104.09C54.8457 103.245 54.8457 102.569 54.8457 101.978C54.7935 101.724 54.7556 101.468 54.7324 101.209Z" fill="white"/>
<path d="M59.3294 103.883C59.3294 103.883 59.2646 103.883 59.1594 103.807C59.0088 103.737 58.8548 103.675 58.6981 103.621C58.1784 103.432 57.6293 103.346 57.0793 103.368C56.5233 103.381 55.9744 103.501 55.4605 103.723L55.0154 103.942L54.8535 104.027C54.8952 103.981 54.9446 103.944 54.9992 103.917C55.1427 103.826 55.2913 103.744 55.4444 103.672C55.9548 103.436 56.5048 103.306 57.0631 103.292C57.6152 103.271 58.1657 103.366 58.6819 103.571C58.8379 103.629 58.9894 103.7 59.1351 103.782L59.3294 103.883Z" fill="white"/>
<path d="M59.3213 103.148L59.1594 103.072L58.6981 102.877C58.1772 102.693 57.629 102.607 57.0793 102.624C56.5243 102.645 55.9767 102.765 55.4605 102.979C55.2663 103.063 55.1206 103.139 55.0154 103.198L54.8535 103.283L54.9992 103.173C55.1414 103.082 55.2902 103.003 55.4444 102.937C55.9541 102.697 56.5043 102.565 57.0631 102.548C57.6146 102.535 58.1636 102.63 58.6819 102.827C58.8761 102.911 59.0299 102.987 59.1351 103.046C59.2403 103.106 59.3294 103.139 59.3213 103.148Z" fill="white"/>
<path d="M59.2803 102.436L59.1184 102.368C59.0051 102.318 58.8513 102.242 58.657 102.174C58.1361 101.99 57.588 101.904 57.0383 101.921C56.4822 101.932 55.9331 102.053 55.4195 102.276C55.2253 102.36 55.0796 102.436 54.9744 102.495L54.8125 102.58L54.9582 102.47C55.1007 102.377 55.2495 102.295 55.4033 102.225C55.9151 101.993 56.4644 101.864 57.0221 101.845C57.5736 101.833 58.1224 101.927 58.6409 102.124C58.7966 102.186 58.9481 102.259 59.0941 102.343C59.1614 102.361 59.2247 102.393 59.2803 102.436Z" fill="white"/>
<path d="M20.0664 54.3438C20.0664 54.3438 20.2202 73.2642 21.1429 79.0333L43.8783 77.9099C43.8783 77.9099 41.8792 59.3273 42.6481 54.3438H20.0664Z" fill="#EBEBEB"/>
<path d="M39.2239 62.2437C36.7004 62.6335 34.1574 62.8704 31.6076 62.9532C29.0653 63.1978 26.5109 63.2796 23.959 63.1981C26.483 62.8133 29.0258 62.5764 31.5752 62.4886C34.1182 62.2541 36.6719 62.1724 39.2239 62.2437Z" fill="white"/>
<path d="M39.2236 66.2507C36.7007 66.6473 34.1575 66.887 31.6073 66.9687C29.0671 67.2031 26.516 67.2849 23.9668 67.2136C26.4902 66.8232 29.0333 66.5863 31.5831 66.5041C34.123 66.2646 36.6742 66.18 39.2236 66.2507Z" fill="white"/>
<path d="M35.3646 70.1857C33.9386 70.5067 32.4851 70.6765 31.0263 70.6925C29.5786 70.8463 28.1196 70.8463 26.6719 70.6925C28.0952 70.3719 29.546 70.2021 31.002 70.1857C32.4525 70.0318 33.9142 70.0318 35.3646 70.1857Z" fill="white"/>
<path d="M18.9902 109.961C18.9902 109.961 19.144 128.873 20.0667 134.65L42.8022 133.527C42.8022 133.527 40.803 114.944 41.5719 109.961H18.9902Z" fill="#EBEBEB"/>
<path d="M38.1474 117.899C35.6244 118.295 33.0812 118.534 30.5312 118.617C27.9909 118.852 25.4399 118.933 22.8906 118.862C25.4113 118.471 27.9517 118.234 30.4988 118.153C33.0414 117.913 35.5953 117.828 38.1474 117.899Z" fill="white"/>
<path d="M38.1474 121.916C35.624 122.306 33.081 122.543 30.5312 122.625C27.9909 122.86 25.4399 122.941 22.8906 122.87C25.414 122.48 27.9571 122.243 30.5069 122.16C33.0471 121.926 35.5982 121.844 38.1474 121.916Z" fill="white"/>
<path d="M34.2884 125.851C32.8651 126.171 31.4142 126.338 29.9583 126.35C28.5092 126.517 27.0475 126.532 25.5957 126.392C27.0191 126.071 28.4698 125.901 29.9259 125.885C31.3751 125.717 32.837 125.706 34.2884 125.851Z" fill="white"/>
<path d="M81.127 59.3125L83.377 113.878L148.645 114.697L145.715 60.0305L81.127 59.3125Z" fill="#EBEBEB"/>
<path d="M145.205 58.9297H80.3652V110.023H145.205V58.9297Z" fill="#F5F5F5"/>
<path d="M145.205 110.024C145.205 110.024 145.205 109.694 145.205 109.069C145.205 108.444 145.205 107.532 145.205 106.349C145.205 103.951 145.205 100.437 145.156 96.0107C145.156 87.0995 145.1 74.3535 145.059 58.9299L145.245 59.1157H80.4141L80.6408 58.8877C80.6408 77.2591 80.6408 94.6592 80.6408 109.981L80.4384 109.77L127.204 109.872L140.51 109.931H144.047H144.962H145.278H144.088L140.527 110.091L127.277 110.15L80.3332 110.252H80.1309V110.049C80.1309 94.7268 80.1309 77.3267 80.1309 58.9553V58.7188H80.3575H145.189H145.383V58.913C145.383 74.3788 145.31 87.1755 145.286 96.0783C145.286 100.513 145.286 103.984 145.237 106.375C145.237 107.54 145.237 108.436 145.237 109.061C145.221 109.72 145.205 110.024 145.205 110.024Z" fill="#E0E0E0"/>
<path d="M114.472 69.75H88.1914V104.271H114.472V69.75Z" fill="#F5F5F5"/>
<path d="M114.473 104.269C114.464 104.211 114.464 104.151 114.473 104.092V103.602C114.473 103.146 114.473 102.521 114.473 101.719C114.473 100.029 114.473 97.6557 114.425 94.6318C114.425 88.5586 114.36 79.96 114.32 69.748L114.522 69.9591H88.2415C88.1848 69.9591 88.6623 69.5199 88.46 69.7311V79.1153C88.46 82.1814 88.46 85.1715 88.46 88.0687C88.46 93.8716 88.46 99.3028 88.46 104.236L88.2819 104.041L107.31 104.143L112.644 104.193H114.061H114.562C114.409 104.205 114.255 104.205 114.101 104.193H112.725L107.424 104.244L88.2819 104.345H88.0958V104.151C88.0958 99.2183 88.0958 93.7871 88.0958 87.9843C88.0958 85.0871 88.0958 82.0716 88.0958 79.0308V69.7649C87.8934 69.9676 88.3629 69.4692 88.3224 69.5283H114.603H114.805V69.7395C114.765 80.0022 114.724 88.6516 114.7 94.7585L114.651 101.795C114.651 102.583 114.651 103.199 114.651 103.644C114.651 103.83 114.651 103.982 114.651 104.109C114.598 104.17 114.539 104.223 114.473 104.269Z" fill="#E0E0E0"/>
<path d="M139.563 61.8516H89.1953V66.8266H139.563V61.8516Z" fill="#F5F5F5"/>
<path d="M139.563 66.8239C139.563 66.8239 139.563 66.6972 139.563 66.4861C139.563 66.2749 139.563 65.9201 139.563 65.5147C139.563 64.67 139.563 63.4284 139.507 61.8488L139.596 61.9418C131.105 62.0262 111.745 62.0854 89.228 62.0854C89.6732 61.6123 89.3494 61.9502 89.4546 61.8488V66.807L89.2361 66.5705L124.938 66.6719L135.654 66.7395H138.568H139.337C139.426 66.7325 139.515 66.7325 139.604 66.7395H139.369H138.632H135.767L125.1 66.8155L89.2361 66.9084H89.0176V66.6803C89.0176 65.8863 89.0176 65.067 89.0176 64.2392V61.7053L89.2442 61.4688C111.761 61.4688 131.121 61.5279 139.612 61.6123H139.709V61.7053C139.709 63.3017 139.709 64.5518 139.66 65.4302C139.66 65.8272 139.66 66.1313 139.66 66.3678C139.654 66.5246 139.621 66.679 139.563 66.8239Z" fill="#E0E0E0"/>
<path d="M139.563 69.75H117.686V90.5541H139.563V69.75Z" fill="#F5F5F5"/>
<path d="M139.563 90.5525C139.563 90.5525 139.563 90.4089 139.563 90.1555V89.0237C139.563 88.0101 139.563 86.5826 139.515 84.8004C139.515 81.1345 139.458 75.9736 139.417 69.7653L139.604 69.9681H117.75L117.969 69.74V75.3232C117.969 77.1477 117.969 78.9384 117.969 80.6869C117.969 84.1753 117.969 87.4442 117.969 90.5357L117.767 90.3329L133.549 90.4343L138.025 90.4934H139.223C139.363 90.4811 139.504 90.4811 139.644 90.4934C139.518 90.5056 139.39 90.5056 139.264 90.4934H138.106L133.679 90.5441L117.767 90.6455H117.572V90.4343C117.572 87.385 117.572 84.074 117.572 80.5855C117.572 78.837 117.572 77.0464 117.572 75.2219V69.6386C117.37 69.8414 117.839 69.3515 117.799 69.4021H139.652H139.846V69.5964C139.806 75.8554 139.774 81.067 139.749 84.8004C139.749 86.5742 139.709 87.9848 139.701 89.0237C139.701 89.4686 139.701 89.8318 139.701 90.1133C139.674 90.2656 139.628 90.4134 139.563 90.5525Z" fill="#E0E0E0"/>
<path d="M139.563 93.8125H117.686V104.269H139.563V93.8125Z" fill="#F5F5F5"/>
<path d="M139.564 104.265C139.564 104.265 139.564 103.995 139.564 103.505L139.524 101.41C139.524 99.5601 139.475 96.9838 139.435 93.8079L139.597 93.9768L117.743 94.0444C117.541 94.2556 118.01 93.7572 117.962 93.8164V99.1969C117.962 100.945 117.962 102.643 117.962 104.265L117.743 104.045L133.389 104.147L137.953 104.214H139.184H139.621C139.492 104.227 139.362 104.227 139.232 104.214H138.042L133.534 104.282L117.743 104.383H117.533V104.163C117.533 102.542 117.533 100.844 117.533 99.0955V93.715C117.484 93.715 117.954 93.2673 117.759 93.4785L139.613 93.5376H139.718V93.7065C139.718 96.9247 139.653 99.5432 139.637 101.41C139.637 102.255 139.637 102.956 139.637 103.471C139.637 103.737 139.613 104.003 139.564 104.265Z" fill="#E0E0E0"/>
<path d="M113.817 69.8047C105.674 81.5371 96.3178 92.5346 88.1836 104.267L113.817 69.8047Z" fill="white"/>
<path d="M88.1914 104.267C88.1914 104.267 88.2481 104.124 88.4019 103.879L89.0898 102.831C89.6888 101.919 90.5872 100.627 91.7203 99.0474C93.9785 95.8715 97.2079 91.5806 100.834 86.8927C104.46 82.2048 107.722 77.9477 110.037 74.8309L112.78 71.1397L113.533 70.1345C113.711 69.9149 113.808 69.7967 113.824 69.8051C113.766 69.9428 113.692 70.0731 113.606 70.1937L112.918 71.241C112.319 72.1533 111.421 73.4456 110.287 75.0336C108.029 78.2011 104.8 82.492 101.174 87.1799C97.5478 91.8678 94.2941 96.1249 91.9712 99.2417L89.2274 102.941L88.4747 103.938C88.3929 104.059 88.2978 104.17 88.1914 104.267Z" fill="#E0E0E0"/>
<path d="M114.473 104.264C114.376 104.34 108.411 96.6623 101.159 87.1514C93.9067 77.6405 88.0953 69.8273 88.2087 69.7429C88.322 69.6584 94.2628 77.3449 101.523 86.8642C108.783 96.3836 114.57 104.171 114.473 104.264Z" fill="#E0E0E0"/>
<path d="M83.3756 69.8221C83.3756 70.6708 83.1345 71.5004 82.6827 72.206C82.2309 72.9117 81.5887 73.4617 80.8374 73.7864C80.0861 74.1112 79.2594 74.1962 78.4618 74.0306C77.6643 73.865 76.9316 73.4564 76.3566 72.8563C75.7816 72.2562 75.39 71.4916 75.2313 70.6593C75.0727 69.8269 75.1541 68.9642 75.4653 68.1801C75.7765 67.396 76.3035 66.7259 76.9797 66.2544C77.6558 65.7829 78.4508 65.5313 79.264 65.5312C80.3538 65.5335 81.3984 65.9863 82.169 66.7905C82.9396 67.5947 83.3735 68.6848 83.3756 69.8221Z" fill="#E0E0E0"/>
<path d="M150.628 59.4081C150.628 60.2567 150.386 61.0863 149.935 61.792C149.483 62.4976 148.841 63.0476 148.089 63.3724C147.338 63.6971 146.511 63.7821 145.714 63.6165C144.916 63.451 144.184 63.0423 143.609 62.4422C143.034 61.8421 142.642 61.0775 142.483 60.2452C142.325 59.4128 142.406 58.5501 142.717 57.766C143.028 56.982 143.555 56.3118 144.232 55.8403C144.908 55.3688 145.703 55.1172 146.516 55.1172C147.606 55.1194 148.65 55.5722 149.421 56.3764C150.192 57.1806 150.625 58.2708 150.628 59.4081Z" fill="#E0E0E0"/>
<path d="M311.467 89.2891H264.086V160.967H311.467V89.2891Z" fill="#E0E0E0"/>
<path d="M309.096 89.2891H261.715V160.967H309.096V89.2891Z" fill="#F5F5F5"/>
<path d="M303.212 97.0547H267.6V153.208H303.212V97.0547Z" fill="white"/>
<path d="M303.212 153.211C303.212 153.211 303.212 153.109 303.212 152.932C303.212 152.755 303.212 152.484 303.212 152.138C303.212 151.429 303.212 150.398 303.212 149.055C303.212 146.369 303.212 142.441 303.212 137.492C303.212 127.592 303.212 113.571 303.155 97.0575L303.276 97.1842H267.599L267.729 97.049C267.729 118.233 267.729 137.762 267.729 153.202L267.623 153.093L293.523 153.152H300.686H302.564H303.22H302.589H300.727H293.588L267.607 153.202H267.502V153.101C267.502 137.66 267.502 118.132 267.502 96.9476V96.8125H267.599H303.212H303.325V96.9308C303.325 113.478 303.285 127.525 303.268 137.475C303.268 142.416 303.268 146.327 303.268 149.013C303.268 150.339 303.268 151.361 303.268 152.062C303.268 152.408 303.268 152.662 303.268 152.848L303.212 153.211Z" fill="#E0E0E0"/>
<path d="M309.225 89.2891C308.997 89.7439 308.725 90.174 308.416 90.5729C307.865 91.3416 307.08 92.3805 306.19 93.5124C305.3 94.6442 304.466 95.6409 303.851 96.3589C303.537 96.7609 303.187 97.1314 302.807 97.4654C303.077 97.0296 303.38 96.6173 303.713 96.2322L305.996 93.3434L308.27 90.4547C308.561 90.0423 308.88 89.6527 309.225 89.2891Z" fill="#E0E0E0"/>
<path d="M303.389 153.023C305.157 155.963 307.239 158.684 309.597 161.132L303.389 153.023Z" fill="white"/>
<path d="M309.597 161.132C309.202 160.831 308.841 160.486 308.52 160.102C307.693 159.227 306.909 158.308 306.173 157.348C305.437 156.388 304.748 155.39 304.109 154.358C303.824 153.941 303.583 153.494 303.389 153.023C303.707 153.41 303.999 153.819 304.263 154.248C304.781 155.017 305.517 156.056 306.375 157.179C307.233 158.303 308.051 159.274 308.65 159.975C308.994 160.334 309.31 160.721 309.597 161.132Z" fill="#E0E0E0"/>
<path d="M261.707 160.912L267.915 152.922L261.707 160.912Z" fill="white"/>
<path d="M267.914 152.922C267.963 152.922 266.619 154.797 264.911 157.002C263.899 158.364 262.818 159.669 261.674 160.912C263.608 158.137 265.68 155.47 267.882 152.922H267.914Z" fill="#E0E0E0"/>
<path d="M261.715 89.2891C262.778 90.4885 263.783 91.743 264.726 93.0478C265.731 94.302 266.668 95.6132 267.534 96.9755C266.467 95.7704 265.462 94.5072 264.523 93.1914C263.516 91.948 262.578 90.6451 261.715 89.2891Z" fill="#E0E0E0"/>
<path d="M292.116 108.461H280.193V143.793H292.116V108.461Z" fill="#E0E0E0"/>
<path d="M300.548 13.1336L293.766 13.1719L293.948 48.3939L300.731 48.3556L300.548 13.1336Z" fill="#E0E0E0"/>
<path d="M252.569 13.2211L235.006 13.3203L235.107 32.7642L252.67 32.665L252.569 13.2211Z" fill="#EBEBEB"/>
<path d="M270.042 13.1352L252.479 13.2344L252.579 32.6783L270.143 32.5791L270.042 13.1352Z" fill="#F5F5F5"/>
<path d="M235.029 18.7146C246.7 18.816 258.404 18.7146 270.075 18.5457C270.125 18.5457 270.172 18.5252 270.207 18.4888C270.242 18.4524 270.261 18.4029 270.261 18.3514C270.261 18.2999 270.242 18.2505 270.207 18.214C270.172 18.1776 270.125 18.1571 270.075 18.1571C258.393 18.0896 246.711 18.1628 235.029 18.3768C234.986 18.3768 234.945 18.3946 234.915 18.4262C234.884 18.4579 234.867 18.5009 234.867 18.5457C234.867 18.5905 234.884 18.6335 234.915 18.6651C234.945 18.6968 234.986 18.7146 235.029 18.7146Z" fill="#E0E0E0"/>
<path d="M255.962 32.3511L224.049 32.5312L224.131 48.3769L256.044 48.1967L255.962 32.3511Z" fill="#EBEBEB"/>
<path d="M287.728 32.1714L255.814 32.3516L255.897 48.1972L287.81 48.017L287.728 32.1714Z" fill="#F5F5F5"/>
<path d="M224.07 36.9511C245.276 37.2045 266.546 36.9511 287.744 36.6216C287.793 36.6216 287.841 36.6012 287.876 36.5647C287.91 36.5283 287.93 36.4789 287.93 36.4274C287.93 36.3758 287.91 36.3264 287.876 36.29C287.841 36.2536 287.793 36.2331 287.744 36.2331C266.538 36.1148 245.268 36.1317 224.07 36.6132C224.027 36.6132 223.986 36.631 223.956 36.6627C223.925 36.6944 223.908 36.7373 223.908 36.7821C223.908 36.8269 223.925 36.8699 223.956 36.9016C223.986 36.9333 224.027 36.9511 224.07 36.9511Z" fill="#E0E0E0"/>
<path d="M335.781 48.3828H212.141V54.059H335.781V48.3828Z" fill="#E0E0E0"/>
<path d="M237.401 51.1094H232.383V70.4775H237.401V51.1094Z" fill="#E0E0E0"/>
<path d="M312.325 51.1094H307.307V70.4775H312.325V51.1094Z" fill="#E0E0E0"/>
<path d="M307.163 0.000765431L300.381 0.0390625L300.632 48.4799L307.415 48.4416L307.163 0.000765431Z" fill="#EBEBEB"/>
<path d="M317.765 9.01862L307.227 9.07812L307.43 48.3376L317.968 48.2781L317.765 9.01862Z" fill="#F5F5F5"/>
<path d="M317.692 16.5915C314.189 16.8497 310.673 16.8497 307.17 16.5915C310.673 16.3445 314.189 16.3445 317.692 16.5915Z" fill="#E0E0E0"/>
<path d="M317.692 14.9431C314.189 15.2013 310.673 15.2013 307.17 14.9431C310.673 14.6961 314.189 14.6961 317.692 14.9431Z" fill="#E0E0E0"/>
<path d="M317.692 42.3806C314.189 42.6388 310.673 42.6388 307.17 42.3806C310.673 42.1336 314.189 42.1336 317.692 42.3806Z" fill="#E0E0E0"/>
<path d="M317.692 40.7321C314.189 40.9903 310.673 40.9903 307.17 40.7321C310.673 40.4851 314.189 40.4851 317.692 40.7321Z" fill="#E0E0E0"/>
<path d="M312.592 37.1326C312.487 37.1326 312.406 33.1711 312.406 28.289C312.406 23.4068 312.487 19.4453 312.592 19.4453C312.698 19.4453 312.77 23.4068 312.77 28.289C312.77 33.1711 312.69 37.1326 312.592 37.1326Z" fill="#E0E0E0"/>
<path d="M329.274 18.6719H317.805V48.3027H329.274V18.6719Z" fill="#EBEBEB"/>
<path d="M323.866 40.6241C323.525 40.6449 323.183 40.5901 322.863 40.4635C322.544 40.3368 322.253 40.141 322.011 39.889C321.769 39.6371 321.58 39.3345 321.458 39.0012C321.335 38.6679 321.282 38.3114 321.301 37.955C321.282 37.5666 321.358 37.1795 321.52 36.8297C321.683 36.4798 321.928 36.1783 322.231 35.9531L322.49 36.3332C322.247 36.5185 322.051 36.7633 321.92 37.0461C321.789 37.3289 321.726 37.641 321.738 37.955C321.738 38.5441 321.962 39.1092 322.361 39.5258C322.76 39.9424 323.302 40.1764 323.866 40.1764C324.431 40.1764 324.972 39.9424 325.371 39.5258C325.771 39.1092 325.995 38.5441 325.995 37.955C326.007 37.64 325.944 37.3269 325.811 37.0438C325.678 36.7607 325.48 36.5165 325.234 36.3332L325.501 35.9531C325.801 36.1814 326.043 36.4837 326.204 36.833C326.365 37.1823 326.44 37.5677 326.424 37.955C326.443 38.3106 326.389 38.6664 326.267 38.9991C326.145 39.3318 325.958 39.6339 325.716 39.8857C325.475 40.1376 325.186 40.3335 324.867 40.4608C324.548 40.588 324.207 40.6437 323.866 40.6241Z" fill="#FAFAFA"/>
<path d="M325.777 35.2208L325.397 34.9927C325.794 34.4465 326.008 33.7783 326.004 33.0922C326.004 31.9857 325.623 31.538 325.057 31.538C323.584 31.538 324.668 35.035 322.685 35.035C321.924 35.035 321.301 34.3677 321.301 33.0331C321.291 32.3929 321.463 31.764 321.795 31.2255L322.183 31.462C321.878 31.9264 321.72 32.4786 321.73 33.0415C321.73 34.072 322.135 34.5282 322.677 34.5282C324.191 34.5282 323.122 31.0312 325.049 31.0312C325.858 31.0312 326.425 31.7746 326.425 33.1176C326.449 33.8758 326.22 34.6194 325.777 35.2208Z" fill="#FAFAFA"/>
<path d="M325.777 30.3927L325.397 30.1646C325.794 29.6184 326.008 28.9502 326.004 28.2641C326.004 27.1576 325.623 26.7099 325.057 26.7099C323.584 26.7099 324.668 30.1984 322.685 30.1984C321.924 30.1984 321.301 29.5395 321.301 28.205C321.291 27.5648 321.463 26.9359 321.795 26.3974L322.183 26.6255C321.879 27.0934 321.721 27.648 321.73 28.2134C321.73 29.2439 322.135 29.7 322.677 29.7C324.191 29.7 323.122 26.2031 325.049 26.2031C325.858 26.2031 326.425 26.938 326.425 28.281C326.45 29.042 326.221 29.7887 325.777 30.3927Z" fill="#FAFAFA"/>
<path d="M303.673 10.3291C304.751 10.3291 305.624 9.41771 305.624 8.29345C305.624 7.1692 304.751 6.25781 303.673 6.25781C302.596 6.25781 301.723 7.1692 301.723 8.29345C301.723 9.41771 302.596 10.3291 303.673 10.3291Z" fill="#E0E0E0"/>
<path d="M304.272 13.8828H303.066V42.7028H304.272V13.8828Z" fill="#E0E0E0"/>
<path d="M349.999 349.134C349.999 349.252 271.821 349.353 175.408 349.353C78.9949 349.353 0.800781 349.269 0.800781 349.134C0.800781 348.999 78.9625 348.914 175.408 348.914C271.854 348.914 349.999 349.032 349.999 349.134Z" fill="#263238"/>
<path d="M95.347 58.7663C82.3564 80.0856 83.2063 109.649 97.4028 130.115C106.864 143.765 121.053 152.921 132.319 164.966C143.586 177.011 152.149 194.791 146.2 210.451C140.146 226.39 122.413 232.869 109.139 242.971C94.4934 254.103 84.5511 270.724 81.3999 289.344C78.2486 307.963 82.1336 327.133 92.2389 342.827H230.173C230.173 342.827 254.406 294.639 223.253 257.904C192.1 221.17 175.37 220.579 176.52 196.489C177.669 172.399 193.824 164.586 203.059 155.548C212.294 146.51 257.287 125.453 230.748 58.7578L95.347 58.7663Z" fill="#FAFAFA"/>
<path d="M95.3463 58.7635H97.7178H104.711H131.631L230.747 58.6875H230.852V58.7889C232.884 63.8388 234.614 69.0152 236.032 74.2884C237.522 79.8095 238.503 85.4662 238.962 91.1817C239.44 97.1562 239.146 103.171 238.088 109.063C236.927 115.172 234.822 121.043 231.856 126.446C230.319 129.203 228.582 131.832 226.66 134.31C224.698 136.822 222.575 139.193 220.306 141.406C218.009 143.659 215.602 145.787 213.095 147.783C210.586 149.81 207.963 151.719 205.406 153.746C204.127 154.751 202.977 155.883 201.731 157.015C200.485 158.147 199.246 159.203 197.967 160.267C195.418 162.395 192.844 164.49 190.416 166.847C185.348 171.431 181.454 177.26 179.085 183.808C177.946 187.166 177.228 190.664 176.948 194.214C176.875 195.059 176.762 195.988 176.729 196.883C176.697 197.778 176.665 198.674 176.729 199.569C176.748 201.367 176.921 203.159 177.247 204.924C177.889 208.501 179.288 211.883 181.343 214.824C183.457 217.764 185.852 220.472 188.49 222.907C193.726 227.899 199.287 232.672 204.604 237.824C209.922 242.976 215.126 248.348 220.144 254.033C222.705 256.847 225.1 259.82 227.315 262.936C229.545 266.091 231.482 269.459 233.103 272.996C236.378 280.164 238.391 287.889 239.043 295.802C239.703 303.824 239.251 311.903 237.7 319.79C236.946 323.775 235.956 327.707 234.737 331.565C233.539 335.455 232.079 339.251 230.367 342.926L230.31 343.044H92.125L92.0683 342.951C85.5999 332.787 81.6329 321.116 80.5185 308.97C79.3973 297.303 81.037 285.528 85.2938 274.677C89.3395 264.304 95.569 255.015 103.521 247.495C107.38 243.94 111.547 240.768 115.969 238.018C120.275 235.231 124.622 232.646 128.725 229.825C132.833 227.146 136.606 223.945 139.959 220.297C143.162 216.715 145.537 212.416 146.904 207.729C148.102 203.156 148.29 198.359 147.454 193.699C146.656 189.202 145.218 184.854 143.189 180.801C141.248 176.897 138.92 173.217 136.244 169.82C133.661 166.561 130.853 163.504 127.843 160.672C122.007 155.064 116.026 150.156 110.652 145.114C107.956 142.58 105.407 140.046 103.052 137.452C100.769 134.914 98.6643 132.207 96.7546 129.352C93.3022 124.117 90.6407 118.36 88.8632 112.281C87.3061 107.032 86.403 101.596 86.176 96.1061C86.0627 94.856 86.1113 93.6228 86.1113 92.415C86.1113 91.2071 86.1113 90.033 86.2165 88.8927C86.3217 87.7524 86.3784 86.6375 86.4593 85.514C86.5402 84.3906 86.7588 83.3855 86.8964 82.3634C87.7906 76.1416 89.615 70.1048 92.303 64.4735C92.6671 63.6023 93.0834 62.756 93.5495 61.9395L94.545 60.1741C95.0711 59.2365 95.3544 58.7635 95.3544 58.7635L94.545 60.1995L93.5818 61.9395C93.1269 62.7596 92.7162 63.6056 92.3516 64.4735C89.6879 70.1185 87.8855 76.1632 87.0097 82.3888C86.8721 83.4024 86.7102 84.4498 86.5888 85.5225C86.4674 86.5952 86.4269 87.7186 86.346 88.8589C86.2651 89.9992 86.2651 91.1733 86.257 92.3727C86.2489 93.5721 86.2165 94.8054 86.3298 96.0555C86.5639 101.527 87.4753 106.944 89.0412 112.172C90.8166 118.228 93.4756 123.963 96.9246 129.175C98.8295 132.017 100.931 134.711 103.213 137.233C105.561 139.834 108.11 142.368 110.805 144.835C116.18 149.903 122.137 154.76 128.013 160.377C131.047 163.229 133.876 166.309 136.479 169.592C139.17 173.014 141.511 176.719 143.464 180.649C145.512 184.727 146.964 189.103 147.77 193.631C148.617 198.341 148.429 203.19 147.219 207.813C145.846 212.555 143.448 216.904 140.21 220.525C136.84 224.194 133.051 227.417 128.927 230.121C124.808 232.95 120.461 235.535 116.163 238.322C111.76 241.065 107.609 244.226 103.764 247.766C95.8607 255.246 89.6677 264.483 85.6418 274.795C81.4108 285.591 79.7849 297.306 80.907 308.911C82.0215 320.987 85.9688 332.591 92.4001 342.698L92.2383 342.605H230.173L229.986 342.723C231.696 339.058 233.151 335.27 234.341 331.387C235.554 327.547 236.537 323.631 237.287 319.664C238.831 311.815 239.281 303.776 238.622 295.793C237.982 287.924 235.983 280.241 232.722 273.114C231.114 269.603 229.192 266.257 226.984 263.122C224.773 260.022 222.389 257.06 219.845 254.253C214.854 248.582 209.682 243.188 204.329 238.069C199.02 232.925 193.475 228.161 188.222 223.144C185.563 220.688 183.147 217.96 181.011 215.001C178.916 212.025 177.482 208.6 176.81 204.975C176.486 203.184 176.31 201.367 176.284 199.544C176.244 198.64 176.284 197.736 176.284 196.832C176.284 195.929 176.43 195.033 176.495 194.138C176.792 190.566 177.526 187.049 178.68 183.673C181.07 177.067 185 171.188 190.116 166.568C192.545 164.22 195.143 162.091 197.692 159.971C198.971 158.907 200.226 157.834 201.448 156.736C202.67 155.638 203.876 154.456 205.138 153.442C207.712 151.415 210.327 149.506 212.828 147.487C215.327 145.501 217.728 143.383 220.023 141.144C222.277 138.941 224.389 136.585 226.344 134.091C228.251 131.621 229.98 129.006 231.516 126.269C234.465 120.903 236.559 115.072 237.716 109.004C238.769 103.159 239.065 97.1934 238.598 91.2662C238.146 85.5516 237.173 79.8949 235.693 74.3729C234.294 69.0852 232.586 63.892 230.577 58.8226L230.715 58.9156L131.655 58.8395H104.719H97.7097L95.3463 58.7635Z" fill="#263238"/>
<path d="M225.245 97.8599C245.56 101.348 213.533 138.902 195.395 153.718C184.873 162.291 173.622 171.599 168.637 184.506C162.971 199.152 167.172 215.606 164.436 230.337C164.348 230.845 164.079 231.299 163.683 231.609C163.287 231.918 162.794 232.06 162.302 232.006C161.81 231.951 161.356 231.704 161.031 231.315C160.706 230.925 160.535 230.422 160.551 229.906C160.68 220.235 160.438 210.572 158.932 201.053C156.755 187.538 151.785 174.201 142.745 164.31C135.339 156.226 125.634 150.863 117.743 143.311C106.217 132.288 94.3762 118.073 93.2188 101.804C93.2188 101.804 115.347 83.2219 127.634 85.5447C141.992 88.2898 156.124 111.408 178.365 108.765C193.841 106.915 201.684 93.8224 225.245 97.8599Z" fill="#A210C6"/>
<path d="M227.048 298.854C226.538 293.549 225.178 287.552 220.67 285.052C217.942 283.531 214.616 283.7 211.621 284.52C208.626 285.339 205.818 286.767 202.856 287.687C196.967 289.494 190.678 289.284 184.912 287.087C179.4 284.976 174.673 281.175 169.533 278.151C164.394 275.127 158.429 272.914 152.731 274.392C142.905 276.926 137.79 289.292 128.077 292.274C123.755 293.591 119.117 292.848 114.73 291.818C110.344 290.787 105.932 289.444 101.44 289.621C97.9115 289.757 94.245 291.032 91.7764 293.549L91.7117 293.625C91.3007 294.045 90.9269 294.503 90.5947 294.994C87.5838 299.217 87.0982 304.817 88.029 309.936C89.065 315.671 91.6307 320.967 94.3826 326.043C97.6201 332.024 101.311 337.97 106.669 341.957C113.29 346.881 121.602 343.486 129.704 344.153C148.587 345.707 168.902 346.763 187.793 345.243C197.773 344.398 207.121 345.564 215.037 339.17C220.605 334.676 224.231 327.902 225.979 320.79C227.728 313.678 227.752 306.16 227.048 298.854Z" fill="#A210C6"/>
<g opacity="0.24">
<path d="M191.403 288.695C190.343 290.385 189.881 292.682 190.909 294.405C191.937 296.128 193.337 297.708 193.775 299.693C194.479 302.801 192.682 305.842 191.346 308.722C188.874 313.872 187.941 319.678 188.667 325.388C189.433 331.116 192.268 336.322 196.591 339.941C198.509 341.487 201.002 342.686 203.317 341.926C205.494 341.217 206.895 338.911 207.364 336.571C207.833 334.231 207.437 331.824 207.154 329.467C205.835 318.484 206.108 307.356 207.963 296.458C208.27 294.642 208.562 292.564 207.461 291.119C206.667 290.278 205.659 289.692 204.555 289.43C200.347 287.969 195.806 289.591 191.443 288.729" fill="black"/>
</g>
<path d="M82.114 349.366C82.114 349.366 81.7336 342.761 89.9893 339.078H235.07C235.07 339.078 242.638 343.082 243.569 349.214L82.114 349.366Z" fill="#263238"/>
<path d="M231.987 59.5647L231.752 59.6745L95.331 58.7623C95.331 58.7623 94.8454 58.4413 94.1251 57.8416C93.2746 57.1464 92.6542 56.1906 92.3507 55.1086C92.0473 54.0266 92.0762 52.8725 92.4333 51.8085C92.7905 50.7445 93.4579 49.8238 94.342 49.1759C95.226 48.5279 96.2823 48.1851 97.3626 48.1955L229.777 49.3105C235.224 49.3612 236.94 57.1321 231.987 59.5647Z" fill="#263238"/>
<g opacity="0.24">
<path d="M210.132 113.874C210.408 114.423 209.38 115.563 207.429 117.421C205.479 119.28 202.573 121.721 198.963 124.787C194.629 128.524 190.029 131.912 185.204 134.923C182.206 136.734 179.052 138.247 175.782 139.442C174.011 140.081 172.202 140.603 170.368 141.004C168.441 141.431 166.484 141.697 164.516 141.798C160.528 142.025 156.536 141.451 152.756 140.109C149.413 138.84 146.237 137.138 143.302 135.041C140.583 133.166 138.243 131.308 136.018 129.525C133.792 127.743 131.809 126.028 130.012 124.407C122.849 117.928 119.077 113.164 119.806 112.243C120.534 111.323 125.633 114.321 133.565 119.389L140.04 123.528C142.363 124.998 144.848 126.628 147.389 128.132C149.911 129.677 152.584 130.937 155.362 131.89C158.204 132.779 161.173 133.144 164.135 132.972C170.352 132.634 176.381 130.353 181.602 127.718C186.822 125.082 191.549 122.008 195.645 119.609C198.886 117.613 202.274 115.89 205.778 114.456C208.344 113.519 209.898 113.342 210.132 113.874Z" fill="black"/>
</g>
<path d="M160.648 247.986C161.221 247.748 161.861 247.755 162.43 248.006C162.998 248.257 163.449 248.731 163.685 249.327C163.92 249.922 163.922 250.59 163.689 251.187C163.456 251.783 163.007 252.26 162.44 252.513C161.872 252.767 161.232 252.778 160.658 252.542C160.083 252.307 159.621 251.845 159.37 251.256C159.12 250.668 159.101 250 159.319 249.397C159.537 248.795 159.974 248.306 160.534 248.037" fill="#A210C6"/>
<path d="M111.859 137.433C111.681 137.281 111.519 137.111 111.373 136.926L110.054 135.423C109.495 134.756 108.759 133.978 108.006 132.99L105.432 129.612C104.55 128.311 103.554 126.909 102.551 125.388L101.07 122.93C100.819 122.508 100.552 122.086 100.309 121.638L99.5965 120.27C97.4425 116.286 95.755 112.046 94.5703 107.642C93.3798 103.241 92.7378 98.699 92.6602 94.1272C92.6602 93.0713 92.7168 92.0493 92.733 91.0441C92.733 90.5458 92.733 90.0559 92.7977 89.5744C92.8625 89.093 92.8949 88.6199 92.9434 88.1554C93.0487 87.2262 93.1134 86.3225 93.2348 85.4609C93.3562 84.5994 93.5262 83.7716 93.6638 83.0029C93.8904 81.4234 94.2951 80.0466 94.5784 78.7796C94.7322 78.1715 94.8536 77.5971 95.0073 77.0903L95.4525 75.6797L96.0757 73.7454C96.1353 73.5151 96.2166 73.2916 96.3186 73.0781C96.2853 73.3137 96.2311 73.5456 96.1567 73.7707C96.0191 74.2606 95.841 74.911 95.6063 75.7304L95.2016 77.141C95.064 77.6562 94.9507 78.2306 94.805 78.8303C94.546 80.0551 94.1656 81.4403 93.9956 83.0536C93.8661 83.8307 93.7366 84.65 93.599 85.5031C93.4614 86.3562 93.4291 87.2516 93.3319 88.1807C93.3319 88.6453 93.2429 89.1099 93.1943 89.5913C93.1458 90.0728 93.1944 90.5627 93.1458 91.0526C93.1458 92.0493 93.081 93.0629 93.0891 94.1103C93.1681 98.6552 93.8019 103.171 94.975 107.549C96.1533 111.921 97.8185 116.133 99.9365 120.101C100.171 120.557 100.406 121.013 100.633 121.469C100.859 121.925 101.142 122.314 101.385 122.753L102.842 125.211C103.83 126.765 104.809 128.167 105.667 129.434L108.192 132.813C108.921 133.818 109.641 134.603 110.175 135.296L111.438 136.859C111.589 137.041 111.73 137.233 111.859 137.433Z" fill="#263238"/>
<path d="M104.178 262.917C104.218 262.819 104.267 262.726 104.323 262.638L104.809 261.844C105.028 261.489 105.295 261.067 105.618 260.56L106.128 259.715C106.331 259.437 106.565 259.158 106.8 258.871L108.419 256.844C109.042 256.142 109.754 255.416 110.507 254.622C112.252 252.868 114.107 251.237 116.059 249.74C120.357 246.361 125.901 242.983 131.907 239.021C135.065 236.99 138.1 234.759 140.996 232.34C144.103 229.757 146.847 226.732 149.147 223.353C153.357 216.602 155.644 208.744 155.743 200.69C155.846 194.126 154.792 187.599 152.635 181.432C151.206 177.27 149.413 173.255 147.277 169.438C146.524 168.078 145.909 167.047 145.488 166.346L145.011 165.552C144.906 165.375 144.857 165.273 144.857 165.273C144.929 165.349 144.992 165.434 145.043 165.527L145.561 166.304C146.006 166.98 146.646 167.993 147.415 169.353C149.617 173.15 151.46 177.162 152.919 181.331C155.134 187.523 156.231 194.089 156.156 200.699C156.122 202.604 155.973 204.506 155.711 206.392C155.449 208.364 155.051 210.315 154.521 212.228C153.416 216.28 151.697 220.121 149.43 223.606C147.106 227.022 144.333 230.079 141.191 232.686C138.277 235.107 135.226 237.341 132.053 239.376C126.023 243.304 120.471 246.648 116.173 250.002C114.221 251.479 112.361 253.085 110.604 254.808C109.851 255.593 109.131 256.303 108.5 256.996L106.881 258.981C106.638 259.285 106.404 259.563 106.201 259.825L105.675 260.628L104.866 261.886L104.348 262.655C104.298 262.747 104.241 262.834 104.178 262.917Z" fill="#263238"/>
<path d="M96.6491 277.844C96.6003 277.981 96.5407 278.114 96.4711 278.241L95.8883 279.314C95.6293 279.77 95.3217 280.344 95.0061 281.003C94.6904 281.662 94.2857 282.439 93.9458 283.326C93.7677 283.765 93.5735 284.221 93.3792 284.694C93.185 285.167 93.0231 285.691 92.8289 286.215C92.4404 287.262 92.1328 288.411 91.7767 289.593C90.3689 294.889 89.8836 300.404 90.3441 305.879C90.4817 307.129 90.5788 308.328 90.7892 309.426C90.8783 309.975 90.9511 310.516 91.0563 311.023C91.1615 311.529 91.2748 312.019 91.3801 312.484C91.5581 313.421 91.8252 314.241 92.0195 314.967C92.2137 315.694 92.408 316.319 92.586 316.825L92.9665 317.991C93.021 318.123 93.0565 318.262 93.0717 318.405C92.9937 318.288 92.9311 318.16 92.8855 318.025C92.7641 317.712 92.6184 317.341 92.4323 316.885C92.1876 316.283 91.9742 315.669 91.7928 315.043C91.5743 314.317 91.291 313.497 91.0887 312.56C90.9754 312.095 90.8621 311.605 90.7407 311.099C90.6193 310.592 90.5464 310.043 90.4412 309.494C90.2146 308.379 90.1013 307.179 89.9556 305.921C89.4489 300.413 89.9376 294.854 91.3963 289.534C91.7605 288.318 92.0842 287.161 92.497 286.113C92.6994 285.59 92.8612 285.075 93.0717 284.593L93.6706 283.216C94.0267 282.372 94.48 281.586 94.7956 280.91C95.0809 280.329 95.397 279.765 95.7426 279.221L96.3901 278.182C96.552 277.954 96.6329 277.836 96.6491 277.844Z" fill="#263238"/>
<path d="M196.714 298.15L196.552 298.268L196.05 298.598L194.083 299.831L192.659 300.676C192.125 300.988 191.534 301.275 190.902 301.605C189.624 302.247 188.215 303.066 186.548 303.725L183.958 304.831C183.06 305.203 182.08 305.499 181.093 305.853C179.126 306.605 176.941 307.146 174.666 307.762C164.68 310.203 154.322 310.49 144.226 308.607C141.911 308.117 139.709 307.695 137.702 307.053C136.698 306.749 135.711 306.512 134.788 306.208L132.15 305.203C130.458 304.637 129.001 303.902 127.698 303.328C127.051 303.032 126.444 302.77 125.901 302.483L124.428 301.681L122.405 300.557L121.887 300.253L121.717 300.143C121.717 300.143 121.79 300.143 121.911 300.219L122.445 300.481L124.501 301.529L125.982 302.289C126.533 302.559 127.148 302.804 127.795 303.091C129.098 303.632 130.555 304.35 132.255 304.89L134.861 305.879C135.784 306.2 136.771 306.428 137.775 306.723C139.774 307.348 141.967 307.745 144.25 308.227C154.299 310.043 164.595 309.756 174.537 307.382C176.803 306.774 178.98 306.259 180.947 305.524C181.935 305.178 182.906 304.899 183.804 304.527L186.394 303.454C188.062 302.813 189.478 302.019 190.757 301.402C191.388 301.081 191.987 300.802 192.521 300.557L193.962 299.713L195.961 298.547L196.487 298.26C196.649 298.167 196.714 298.142 196.714 298.15Z" fill="#263238"/>
<path d="M205.154 119.375C205.104 119.436 205.047 119.49 204.984 119.535L204.45 119.992C203.956 120.405 203.268 120.988 202.386 121.681C200.589 123.168 197.983 125.321 194.689 127.889C190.855 130.952 186.835 133.751 182.653 136.268C180.166 137.721 177.574 138.966 174.899 139.993C172.015 141.089 169.005 141.787 165.948 142.071C160.003 142.419 154.075 141.132 148.756 138.338C146.457 137.119 144.237 135.742 142.112 134.216C140.137 132.763 138.332 131.352 136.737 129.992C133.5 127.306 131.023 125.034 129.275 123.48L127.276 121.672L126.766 121.199L126.596 121.022C126.596 121.022 126.669 121.022 126.79 121.157L127.332 121.605L129.38 123.345C131.161 124.865 133.702 127.095 136.923 129.747C138.542 131.074 140.331 132.467 142.314 133.903C144.432 135.403 146.64 136.757 148.926 137.958C154.192 140.696 160.05 141.957 165.923 141.615C168.944 141.335 171.918 140.648 174.77 139.571C177.426 138.558 180.002 137.329 182.475 135.897C186.651 133.425 190.676 130.686 194.527 127.695C197.829 125.161 200.46 123.049 202.297 121.605L204.409 119.916L204.968 119.493C205.024 119.444 205.087 119.404 205.154 119.375Z" fill="#263238"/>
<g opacity="0.24">
<path d="M132.156 305.245C135.993 302.154 141.383 302.897 146.126 303.944C150.869 304.992 155.644 306.673 160.444 305.971C164.062 305.439 167.38 303.589 170.966 302.779C174.551 301.968 178.865 302.567 180.848 305.769C164.999 311.098 147.921 310.914 132.181 305.245" fill="black"/>
</g>
<path d="M265.978 282.326L248.577 261.961L248.399 286.718L253.644 302.598L201.503 312.032L199.294 269.098L195.538 236.156C195.315 234.192 195.721 232.206 196.694 230.509C197.666 228.811 199.149 227.497 200.912 226.772L215.263 220.859L235.497 224.728L243.631 227.955C247.042 229.31 250.082 231.517 252.486 234.382L276.962 263.591" fill="#A210C6"/>
<path d="M247.363 257.062C248.346 257.049 249.327 256.975 250.301 256.843C252.649 256.469 254.836 255.372 256.582 253.693C258.329 252.013 259.555 249.828 260.103 247.416C260.304 246.409 260.453 245.391 260.548 244.367C260.614 244.643 260.638 244.928 260.621 245.212C260.627 245.978 260.551 246.743 260.394 247.492C259.904 250.001 258.671 252.284 256.868 254.02C255.065 255.756 252.785 256.856 250.35 257.164C249.623 257.262 248.887 257.279 248.156 257.215C247.886 257.209 247.618 257.157 247.363 257.062Z" fill="white"/>
<path d="M248.876 285.657C248.997 285.657 249.03 277.075 248.949 266.5C248.868 255.925 248.698 247.352 248.576 247.352C248.455 247.352 248.423 255.925 248.504 266.509C248.584 277.092 248.754 285.657 248.876 285.657Z" fill="#263238"/>
<path d="M246.966 291.951L215.465 278.715C214.22 278.192 213.139 277.316 212.345 276.186C211.552 275.056 211.076 273.718 210.973 272.321L208.666 240.798C208.666 240.798 208.941 227.385 200.912 226.734L196.372 228.61C190.471 231.878 189.014 240.849 189.816 247.767C190.957 257.598 191.434 271.518 192.705 280.05C193.757 287.035 197.561 293.176 204.134 294.975L242.935 303.742L246.966 291.951Z" fill="#A210C6"/>
<path d="M209.12 245.609C209.173 245.845 209.205 246.085 209.217 246.327C209.266 246.843 209.338 247.535 209.419 248.405C209.581 250.255 209.808 252.857 210.083 256.049C210.358 259.242 210.666 263.136 211.022 267.393C211.103 268.466 211.192 269.556 211.281 270.671C211.343 271.805 211.479 272.934 211.686 274.049C211.905 275.177 212.454 276.207 213.256 276.997C214.119 277.789 215.1 278.428 216.161 278.889C224.846 282.808 232.851 286.052 238.662 288.324L245.566 290.976L247.444 291.694C247.664 291.77 247.877 291.863 248.083 291.973C247.854 291.929 247.629 291.864 247.412 291.779L245.51 291.137C243.891 290.562 241.463 289.709 238.565 288.603C232.713 286.407 224.7 283.214 215.983 279.311C214.881 278.828 213.861 278.16 212.964 277.335C212.104 276.482 211.516 275.373 211.281 274.159C211.072 273.027 210.939 271.881 210.884 270.73C210.795 269.606 210.714 268.517 210.633 267.444C210.318 263.221 210.026 259.335 209.824 256.092C209.622 252.848 209.419 250.289 209.29 248.439C209.233 247.594 209.193 246.868 209.168 246.353C209.132 246.107 209.115 245.858 209.12 245.609Z" fill="#263238"/>
<path d="M191.07 262.742C191.102 262.881 191.121 263.022 191.127 263.165L191.232 264.381C191.329 265.504 191.45 267.016 191.604 268.858C191.758 270.699 192.001 272.988 192.316 275.471C192.626 278.161 193.099 280.827 193.733 283.453C194.031 284.806 194.551 286.095 195.271 287.263C195.974 288.335 196.761 289.344 197.626 290.278C199.099 291.86 200.8 293.191 202.668 294.223C204.41 295.146 206.277 295.785 208.204 296.115C208.067 296.133 207.929 296.133 207.792 296.115C207.4 296.088 207.011 296.034 206.626 295.954C205.202 295.678 203.824 295.191 202.531 294.51C200.61 293.501 198.86 292.172 197.351 290.574C196.456 289.629 195.643 288.603 194.923 287.508C194.167 286.308 193.619 284.978 193.304 283.58C192.661 280.933 192.194 278.244 191.904 275.53C191.612 272.996 191.418 270.783 191.288 268.891C191.159 266.999 191.086 265.462 191.046 264.398C191.046 263.908 191.046 263.502 191.046 263.173C191.032 263.029 191.04 262.884 191.07 262.742Z" fill="#263238"/>
<path d="M204.537 284.795C204.62 284.179 204.815 283.586 205.112 283.047C205.761 281.701 206.661 280.503 207.759 279.524C208.856 278.545 210.13 277.804 211.506 277.345C212.063 277.123 212.657 277.017 213.254 277.033C212.724 277.263 212.184 277.466 211.635 277.641C210.334 278.166 209.127 278.917 208.066 279.862C207.007 280.809 206.107 281.934 205.403 283.19C204.837 284.162 204.602 284.821 204.537 284.795Z" fill="#263238"/>
<path d="M210.738 260.829C210.807 260.85 210.872 260.881 210.933 260.922L211.499 261.234C212.23 261.61 212.981 261.94 213.749 262.222C216.581 263.26 219.619 263.533 222.579 263.016C226.977 262.198 230.905 259.649 233.555 255.896C235.138 253.728 236.131 251.154 236.428 248.446C236.575 247.023 236.432 245.584 236.007 244.223C235.559 242.833 234.779 241.586 233.741 240.599C232.717 239.599 231.428 238.945 230.042 238.724C229.385 238.601 228.711 238.635 228.069 238.824C227.426 239.013 226.834 239.351 226.335 239.813C225.883 240.275 225.622 240.902 225.607 241.562C225.621 242.218 225.836 242.851 226.222 243.369C226.624 243.87 227.117 244.282 227.672 244.583C228.228 244.883 228.836 245.065 229.459 245.118C231.651 245.403 233.876 245.109 235.931 244.264C237.986 243.418 239.804 242.048 241.219 240.278C242.292 238.901 243.1 237.321 243.599 235.624C243.971 234.338 244.173 233.005 244.198 231.662C244.207 230.814 244.147 229.966 244.02 229.128C243.971 228.867 243.931 228.647 243.907 228.478C243.9 228.402 243.9 228.326 243.907 228.25C244.241 229.342 244.405 230.483 244.392 231.629C244.4 232.991 244.221 234.348 243.858 235.658C242.957 238.813 241.012 241.533 238.369 243.332C235.726 245.131 232.557 245.892 229.427 245.481C228.758 245.42 228.108 245.221 227.514 244.896C226.919 244.571 226.392 244.127 225.963 243.589C225.523 242.999 225.279 242.276 225.267 241.528C225.267 240.759 225.558 240.022 226.076 239.476C226.62 238.969 227.266 238.596 227.967 238.386C228.667 238.175 229.404 238.132 230.123 238.259C231.595 238.487 232.965 239.18 234.048 240.244C235.144 241.278 235.964 242.59 236.428 244.054C236.869 245.469 237.018 246.966 236.865 248.446C236.549 251.213 235.523 253.839 233.895 256.048C231.648 259.248 228.458 261.591 224.814 262.72C221.171 263.849 217.273 263.701 213.717 262.298C212.666 261.947 211.665 261.453 210.738 260.829Z" fill="white"/>
<path d="M190.1 252.417C190.236 252.164 190.411 251.936 190.618 251.741C191.135 251.17 191.704 250.652 192.317 250.196C194.384 248.714 196.787 247.826 199.286 247.619C200.657 247.458 202.044 247.518 203.398 247.797C204.498 248.035 205.562 248.427 206.562 248.962C207.234 249.315 207.878 249.722 208.489 250.179C208.725 250.33 208.938 250.518 209.12 250.736C209.071 250.804 208.133 250.06 206.433 249.241C204.217 248.169 201.76 247.76 199.335 248.059C196.899 248.259 194.548 249.08 192.487 250.449C190.925 251.539 190.156 252.476 190.1 252.417Z" fill="white"/>
<path d="M195.141 229.882C195.909 230.637 196.765 231.287 197.69 231.816C198.7 232.357 199.798 232.695 200.928 232.813C202.303 232.957 203.69 232.754 204.975 232.222C206.234 231.662 207.344 230.792 208.212 229.688C208.929 228.766 209.477 227.716 209.831 226.588C210.122 225.529 210.288 224.437 210.325 223.336C210.403 223.627 210.439 223.929 210.43 224.231C210.443 225.06 210.337 225.886 210.114 226.681C209.784 227.868 209.234 228.975 208.495 229.941C207.608 231.153 206.429 232.097 205.079 232.679C203.728 233.26 202.254 233.458 200.806 233.252C199.633 233.114 198.497 232.735 197.464 232.137C196.768 231.739 196.135 231.232 195.586 230.634C195.394 230.414 195.243 230.159 195.141 229.882Z" fill="white"/>
<path d="M222.596 281.711C222.597 281.501 222.619 281.291 222.66 281.086C222.774 280.499 222.961 279.931 223.219 279.396C224.248 277.429 225.92 275.912 227.93 275.122C230.888 273.895 234.162 273.773 237.197 274.776C238.864 275.291 240.774 275.933 242.053 277.631C242.375 278.065 242.578 278.581 242.64 279.125C242.703 279.67 242.623 280.222 242.409 280.723C241.921 281.7 241.131 282.476 240.167 282.927C239.237 283.408 238.218 283.673 237.181 283.704C236.151 283.756 235.136 283.427 234.316 282.775C233.937 282.438 233.628 282.023 233.408 281.557C233.188 281.091 233.062 280.583 233.037 280.064C232.984 279.094 233.13 278.123 233.466 277.217C234.685 274.138 237.009 271.677 239.941 270.359C241.886 269.454 244.017 269.071 246.141 269.244C246.914 269.305 247.676 269.473 248.407 269.742C248.407 269.801 247.597 269.522 246.124 269.413C244.365 269.313 242.605 269.589 240.952 270.224C239.299 270.858 237.787 271.838 236.509 273.104C235.322 274.29 234.397 275.731 233.798 277.327C233.484 278.18 233.348 279.093 233.401 280.005C233.424 280.467 233.538 280.919 233.736 281.333C233.934 281.747 234.211 282.114 234.55 282.412C235.29 283.005 236.208 283.305 237.14 283.257C238.113 283.23 239.069 282.982 239.941 282.53C240.821 282.121 241.544 281.416 241.997 280.528C242.179 280.097 242.246 279.622 242.192 279.154C242.138 278.686 241.964 278.241 241.689 277.868C241.124 277.124 240.401 276.528 239.576 276.128C238.777 275.729 237.946 275.403 237.092 275.156C234.137 274.158 230.944 274.245 228.043 275.401C226.077 276.144 224.421 277.581 223.365 279.464C223.014 280.174 222.756 280.93 222.596 281.711Z" fill="white"/>
<path d="M201.617 293.583C201.617 293.498 202.815 293.397 204.636 292.738C207.014 291.864 209.144 290.383 210.832 288.43C212.52 286.476 213.712 284.113 214.3 281.555C214.761 279.595 214.745 278.32 214.826 278.328C214.883 278.62 214.897 278.919 214.867 279.215C214.848 280.025 214.756 280.831 214.592 281.622C214.067 284.263 212.877 286.709 211.144 288.709C209.411 290.709 207.198 292.19 204.733 293C203.995 293.251 203.237 293.429 202.467 293.532C202.188 293.592 201.901 293.609 201.617 293.583Z" fill="white"/>
<path d="M191.402 269.08C191.522 269.01 191.65 268.956 191.783 268.919C192.042 268.835 192.414 268.717 192.908 268.581C194.309 268.197 195.759 268.043 197.206 268.125C198.21 268.205 199.195 268.459 200.119 268.877C201.196 269.362 202.133 270.13 202.839 271.107C203.614 272.215 203.989 273.573 203.899 274.942C203.847 275.67 203.634 276.375 203.276 277.003C202.914 277.664 202.341 278.172 201.657 278.439C201.297 278.567 200.91 278.594 200.536 278.517C200.163 278.44 199.815 278.261 199.529 277.999C199.043 277.441 198.779 276.71 198.792 275.955C198.75 274.609 199.005 273.272 199.537 272.045C200.275 270.296 201.553 268.855 203.166 267.951C204.779 267.046 206.635 266.73 208.44 267.053C208.828 267.116 209.21 267.214 209.581 267.348C209.832 267.45 209.961 267.509 209.953 267.526C209.945 267.543 209.411 267.348 208.415 267.222C207.009 267.044 205.581 267.235 204.263 267.779C202.311 268.597 200.748 270.188 199.917 272.205C199.423 273.377 199.188 274.65 199.229 275.93C199.212 276.576 199.432 277.205 199.844 277.687C200.076 277.893 200.356 278.033 200.655 278.092C200.955 278.151 201.264 278.128 201.552 278.025C202.152 277.793 202.655 277.351 202.976 276.775C203.299 276.205 203.492 275.567 203.543 274.908C203.628 273.639 203.287 272.379 202.58 271.344C201.923 270.414 201.044 269.68 200.03 269.215C199.145 268.795 198.198 268.533 197.23 268.438C195.814 268.328 194.391 268.433 193.005 268.75C191.961 268.962 191.419 269.114 191.402 269.08Z" fill="white"/>
<g opacity="0.3">
<path d="M237.908 288.189C234.541 286.204 231.247 284.675 227.726 283.011C224.205 281.347 220.749 279.193 218.443 275.95C214.096 269.834 214.59 261.007 210.146 254.977C210.438 259.031 210.727 263.088 211.013 267.148C211.28 270.865 210.737 274.547 213.028 277.073C214.962 279.202 218.734 280.832 221.405 281.752C226.771 283.602 232.55 286.347 237.908 288.189Z" fill="black"/>
</g>
<path d="M292.689 334.523C292.689 334.523 319.05 342.125 320.11 342.531C321.729 343.114 321.43 349.187 318.961 349.085C317.787 349.043 298.727 349.829 296.298 349.677C293.87 349.525 286.586 346.526 286.586 346.526L292.689 334.523Z" fill="#A210C6"/>
<path d="M303.638 345.022C303.964 344.01 304.353 343.023 304.804 342.065C305.371 341.179 305.993 340.333 306.666 339.531C305.728 340.067 304.949 340.862 304.415 341.829C303.881 342.796 303.612 343.897 303.638 345.013V345.022Z" fill="#263238"/>
<path d="M300.887 343.722C301.016 343.722 301.283 342.446 301.987 341.011C302.692 339.575 303.517 338.569 303.428 338.477C302.659 339.102 302.032 339.897 301.592 340.806C301.153 341.714 300.912 342.713 300.887 343.73V343.722Z" fill="#263238"/>
<path d="M298.354 343.005C298.484 342.021 298.69 341.049 298.97 340.1C299.383 339.204 299.862 338.342 300.402 337.523C299.566 338.111 298.922 338.95 298.556 339.93C298.191 340.91 298.12 341.983 298.354 343.005Z" fill="#263238"/>
<path d="M298.782 339.451C299.014 338.798 299.111 338.101 299.065 337.406C299.057 336.649 298.967 335.896 298.798 335.16C298.697 334.725 298.564 334.298 298.401 333.884C298.325 333.622 298.179 333.388 297.98 333.208C297.847 333.106 297.684 333.054 297.518 333.064C297.353 333.073 297.196 333.142 297.074 333.259C296.87 333.464 296.745 333.741 296.726 334.036C296.706 334.278 296.706 334.521 296.726 334.763C296.728 335.215 296.783 335.666 296.888 336.106C297.063 336.842 297.335 337.55 297.697 338.209C297.987 338.844 298.388 339.417 298.879 339.898C298.944 339.898 298.498 339.214 297.972 338.091C297.665 337.441 297.434 336.754 297.284 336.047C297.199 335.633 297.156 335.211 297.155 334.788C297.155 334.366 297.155 333.842 297.398 333.639C297.445 333.594 297.507 333.569 297.572 333.569C297.636 333.569 297.698 333.594 297.746 333.639C297.877 333.774 297.977 333.939 298.037 334.121C298.192 334.518 298.325 334.924 298.434 335.337C298.619 336.038 298.736 336.757 298.782 337.482C298.83 338.665 298.709 339.442 298.782 339.451Z" fill="#263238"/>
<path d="M298.749 339.173C298.212 338.939 297.63 338.841 297.049 338.886C296.419 338.886 295.792 338.965 295.18 339.122C294.803 339.211 294.438 339.351 294.095 339.536C293.879 339.651 293.705 339.835 293.598 340.062C293.492 340.289 293.459 340.546 293.504 340.795C293.565 341.032 293.684 341.248 293.851 341.422C294.017 341.595 294.224 341.72 294.451 341.783C294.839 341.884 295.245 341.884 295.633 341.783C296.257 341.634 296.842 341.346 297.349 340.938C297.829 340.603 298.243 340.176 298.571 339.68C298.084 339.977 297.616 340.307 297.171 340.668C296.681 341.019 296.132 341.268 295.552 341.403C295.231 341.487 294.894 341.487 294.573 341.403C294.421 341.363 294.282 341.281 294.169 341.167C294.057 341.053 293.976 340.91 293.933 340.752C293.909 340.598 293.933 340.439 294.003 340.3C294.074 340.161 294.185 340.05 294.322 339.984C294.622 339.811 294.944 339.68 295.277 339.595C295.858 339.422 296.455 339.315 297.058 339.274C298.085 339.139 298.733 339.249 298.749 339.173Z" fill="#263238"/>
<path d="M307.686 345.317C307.799 344.476 307.975 343.646 308.212 342.834C308.582 342.079 309.012 341.358 309.499 340.68C308.731 341.116 308.131 341.816 307.801 342.661C307.47 343.506 307.43 344.444 307.686 345.317Z" fill="#263238"/>
<path d="M289.297 346.595C289.616 346.805 289.959 346.976 290.317 347.101C291.273 347.48 292.252 347.796 293.247 348.047C296.552 348.8 299.933 349.135 303.315 349.044C307.265 348.993 310.826 348.808 313.408 348.698L316.46 348.529C316.834 348.522 317.208 348.483 317.577 348.411C317.205 348.35 316.827 348.33 316.452 348.351H313.4L303.315 348.554C299.964 348.644 296.613 348.361 293.319 347.71C290.794 347.177 289.329 346.502 289.297 346.595Z" fill="#263238"/>
<path d="M288.52 347.217C288.52 347.276 289.272 346.837 290.494 346.28C292.047 345.514 293.775 345.222 295.48 345.435C297.157 345.814 298.671 346.751 299.794 348.104C300.262 348.681 300.768 349.223 301.308 349.726C300.96 349.054 300.528 348.435 300.021 347.885C299.501 347.254 298.915 346.687 298.273 346.195C297.468 345.574 296.533 345.162 295.545 344.996C293.756 344.77 291.944 345.127 290.357 346.018C289.686 346.312 289.066 346.717 288.52 347.217Z" fill="#263238"/>
<path d="M264.676 326.93C264.676 326.93 239.731 343.975 238.84 344.668C237.497 345.723 239.034 350.766 241.366 349.896C242.466 349.482 263.397 343.401 265.647 342.488C267.897 341.576 273.959 336.458 273.959 336.458L264.676 326.93Z" fill="#A210C6"/>
<path d="M257.269 340.414C256.968 339.342 256.391 338.378 255.6 337.625C254.809 336.873 253.835 336.362 252.785 336.148C253.662 336.697 254.503 337.307 255.302 337.973C256.006 338.743 256.663 339.558 257.269 340.414Z" fill="#263238"/>
<path d="M259.503 338.301C259.186 337.337 258.668 336.459 257.986 335.728C257.305 334.998 256.476 334.435 255.561 334.078C255.497 334.196 256.589 334.923 257.666 336.038C258.742 337.153 259.39 338.369 259.503 338.301Z" fill="#263238"/>
<path d="M261.753 336.795C261.75 335.732 261.362 334.71 260.668 333.932C260.088 333.073 259.223 332.471 258.24 332.242C258.991 332.854 259.697 333.523 260.353 334.244C260.883 335.054 261.352 335.907 261.753 336.795Z" fill="#263238"/>
<path d="M260.312 333.56C260.377 333.56 260.037 332.825 259.754 331.609C259.583 330.904 259.483 330.182 259.454 329.455C259.426 329.028 259.426 328.599 259.454 328.171C259.451 327.979 259.499 327.789 259.592 327.622C259.627 327.565 259.682 327.524 259.745 327.508C259.809 327.492 259.876 327.503 259.932 327.538C260.215 327.656 260.361 328.163 260.498 328.568C260.617 328.97 260.698 329.383 260.741 329.802C260.804 330.525 260.782 331.254 260.676 331.972C260.506 333.206 260.272 333.957 260.336 333.983C260.67 333.378 260.889 332.713 260.984 332.023C261.139 331.283 261.194 330.524 261.146 329.768C261.113 329.315 261.034 328.868 260.911 328.433C260.844 328.2 260.763 327.971 260.668 327.749C260.56 327.472 260.359 327.247 260.102 327.116C259.951 327.043 259.782 327.027 259.622 327.072C259.462 327.117 259.322 327.219 259.227 327.36C259.094 327.595 259.024 327.864 259.025 328.138C258.936 329.341 259.068 330.551 259.414 331.702C259.584 332.381 259.89 333.014 260.312 333.56Z" fill="#263238"/>
<path d="M260.223 333.283C260.223 333.35 260.838 333.046 261.841 332.784C262.428 332.638 263.027 332.553 263.63 332.531C263.974 332.507 264.32 332.529 264.658 332.599C264.807 332.62 264.946 332.69 265.053 332.8C265.161 332.909 265.232 333.052 265.257 333.207C265.264 333.375 265.228 333.541 265.152 333.69C265.077 333.838 264.965 333.963 264.828 334.051C264.55 334.234 264.233 334.344 263.905 334.372C263.314 334.433 262.717 334.37 262.149 334.187C261.621 333.98 261.08 333.814 260.53 333.688C260.987 334.069 261.509 334.355 262.068 334.533C262.669 334.773 263.312 334.874 263.954 334.828C264.353 334.807 264.74 334.679 265.079 334.457C265.279 334.328 265.443 334.146 265.552 333.929C265.662 333.712 265.714 333.469 265.702 333.224C265.674 332.972 265.567 332.737 265.399 332.554C265.231 332.371 265.011 332.25 264.771 332.21C264.392 332.14 264.006 332.123 263.622 332.159C262.993 332.203 262.37 332.325 261.769 332.523C261.204 332.648 260.675 332.908 260.223 333.283Z" fill="#263238"/>
<path d="M244.537 348.959C244.537 349.001 244.958 348.697 245.152 347.954C245.346 346.983 245.178 345.971 244.683 345.124C244.443 344.671 244.172 344.237 243.873 343.824C243.63 343.472 243.344 343.154 243.023 342.878C242.794 342.679 242.511 342.558 242.214 342.531C242.004 342.531 241.898 342.573 241.898 342.599C241.898 342.624 242.344 342.641 242.805 343.131C243.077 343.418 243.319 343.735 243.525 344.077C243.816 344.485 244.086 344.908 244.335 345.344C244.782 346.102 244.975 346.993 244.885 347.878C244.79 348.245 244.674 348.606 244.537 348.959Z" fill="#263238"/>
<path d="M253.498 341.975C253.531 341.518 253.47 341.059 253.317 340.629C253.165 340.199 252.926 339.808 252.615 339.484C252.366 339.106 252.041 338.79 251.662 338.558C251.283 338.326 250.859 338.183 250.422 338.141C251.083 338.631 251.703 339.179 252.275 339.779C252.741 340.474 253.15 341.209 253.498 341.975Z" fill="#263238"/>
<path d="M271.394 337.359C271.006 337.585 270.638 337.845 270.293 338.136C269.304 338.853 268.278 339.51 267.217 340.105C265.649 340.973 264.026 341.732 262.361 342.377C260.467 343.112 258.314 343.804 256.113 344.48C251.621 345.831 247.558 347.065 244.628 347.985L241.139 349.126C240.709 349.245 240.289 349.403 239.885 349.599C240.326 349.536 240.762 349.437 241.188 349.303L244.692 348.281C247.647 347.436 251.718 346.254 256.21 344.902C258.452 344.218 260.581 343.509 262.475 342.748C264.16 342.08 265.797 341.284 267.371 340.366C268.429 339.741 269.441 339.035 270.398 338.255C270.753 337.986 271.086 337.686 271.394 337.359Z" fill="#263238"/>
<path d="M272.315 337.705C271.644 337.397 270.932 337.197 270.203 337.114C268.43 336.771 266.598 337.007 264.958 337.79C264.071 338.274 263.311 338.975 262.74 339.834C262.271 340.511 261.877 341.242 261.567 342.013C261.242 342.697 261.011 343.425 260.879 344.175C261.245 343.523 261.57 342.846 261.85 342.148C262.525 340.499 263.695 339.123 265.185 338.229C266.751 337.493 268.485 337.233 270.187 337.477C271.482 337.587 272.299 337.773 272.315 337.705Z" fill="#263238"/>
<path d="M316.515 285.365C316.515 285.365 324.002 288.152 324.026 296.911C324.091 313.678 291.554 332.168 291.554 332.168L248.252 302.233L245.541 301.084C245.541 301.084 304.019 278.177 316.515 285.365Z" fill="#263238"/>
<path d="M270.188 317.351C270.586 317.121 270.965 316.855 271.321 316.557C272.025 316.017 273.037 315.223 274.275 314.218C276.76 312.224 280.127 309.386 283.761 306.134C287.395 302.882 290.584 299.833 292.85 297.578C293.983 296.454 294.89 295.525 295.513 294.875C295.849 294.558 296.158 294.21 296.436 293.836C296.063 294.108 295.714 294.413 295.392 294.748L292.64 297.341C290.317 299.529 287.095 302.544 283.469 305.788C279.843 309.031 276.509 311.903 274.089 313.964L271.215 316.414C270.849 316.697 270.506 317.011 270.188 317.351Z" fill="#455A64"/>
<path d="M304.293 291.633C301.462 291.32 298.627 292.192 296.41 294.057C296.483 294.184 298.029 293.128 300.247 292.469C302.464 291.81 304.293 291.776 304.293 291.633Z" fill="#455A64"/>
<path d="M300.564 288.984C299.562 289.428 298.681 290.123 297.997 291.007C297.314 291.891 296.85 292.937 296.646 294.052C296.776 294.052 297.245 292.692 298.338 291.299C299.431 289.905 300.637 289.103 300.564 288.984Z" fill="#455A64"/>
<path d="M318.895 342.101C318.895 342.05 318.377 341.94 317.778 342.455C317.072 343.142 316.629 344.072 316.531 345.074C316.389 346.058 316.524 347.065 316.92 347.971C317.227 348.655 317.567 348.976 317.608 348.942C317.501 348.567 317.369 348.2 317.211 347.844C316.928 346.976 316.845 346.05 316.968 345.141C317.065 344.236 317.42 343.383 317.988 342.692C318.45 342.193 318.903 342.177 318.895 342.101Z" fill="#263238"/>
<path d="M306.552 257.953L291.133 298.75L224.74 299.882L223.51 296.132L246.779 295.254L257.965 259.06L306.552 257.953Z" fill="#455A64"/>
<path d="M275.545 275.641C276.055 275.374 276.627 275.266 277.195 275.331C277.762 275.395 278.299 275.629 278.742 276.004C279.118 276.373 279.378 276.852 279.489 277.378C279.601 277.904 279.557 278.453 279.365 278.952C279.157 279.451 278.819 279.879 278.39 280.188C277.961 280.497 277.458 280.675 276.937 280.701C276.389 280.737 275.844 280.587 275.385 280.271C274.927 279.956 274.579 279.493 274.395 278.952C274.222 278.348 274.237 277.702 274.438 277.107C274.638 276.512 275.015 275.999 275.512 275.641" fill="#EBEBEB"/>
<path d="M295.65 334.213C295.65 334.213 234.477 292.335 231.984 291.465C229.491 290.595 223.421 286.456 217.375 288.196C211.329 289.936 205.89 295.604 203.179 303.882C201.625 308.612 200.896 316.678 200.548 322.734C200.084 329.976 202.333 337.123 206.821 342.669C208.809 345.256 211.449 347.213 214.445 348.319C215.084 348.53 215.748 348.708 216.428 348.86C227.994 351.478 239.9 346.056 246.375 335.734L247.8 333.47C247.8 333.47 287.823 348.809 288.447 348.598L295.65 334.213Z" fill="#263238"/>
<path d="M219.973 322.685C220.081 322.742 220.191 322.793 220.305 322.837L221.308 323.251L225.185 324.814L239.6 330.481C245.719 332.863 253.052 335.701 261.283 338.827C269.515 341.952 278.628 345.373 288.373 348.811L288.543 348.878L288.632 348.701L293.416 339.173L295.844 334.316L295.933 334.13L295.763 334.02L249.102 303.106L235.084 293.882L231.28 291.399L230.284 290.765C230.058 290.622 229.936 290.562 229.936 290.562L230.26 290.807L231.231 291.475L234.995 294.009L248.981 303.376L295.569 334.409L295.488 334.105C294.719 335.651 293.869 337.298 293.06 338.962L288.284 348.49L288.551 348.38C278.839 344.95 269.693 341.538 261.453 338.438L239.738 330.194L225.242 324.636L221.341 323.15L220.321 322.778L219.973 322.685Z" fill="#455A64"/>
<path d="M226.318 173.978C227.362 171.031 229.669 169.755 232.591 169.02C234.061 168.663 235.591 168.682 237.052 169.075C238.514 169.467 239.862 170.222 240.984 171.275C242.465 172.686 243.55 174.654 245.379 175.499C248.398 176.926 252.259 174.84 255.092 176.588C255.943 177.112 256.594 177.926 256.934 178.894C257.275 179.861 257.283 180.922 256.959 181.896C256.635 182.869 255.997 183.695 255.155 184.234C254.313 184.772 253.318 184.99 252.34 184.849C254.306 185.812 254.671 188.904 253.319 190.677C251.967 192.451 249.466 192.933 247.37 192.316C245.304 191.573 243.471 190.256 242.069 188.507C240.596 186.817 239.301 185.001 237.698 183.439C236.16 181.808 234.119 180.797 231.935 180.584C228.997 180.465 226.27 182.535 224.74 185.145C223.21 187.755 222.619 190.855 222.19 193.896C221.761 196.936 221.438 200.028 220.313 202.866C220.183 203.204 219.989 203.567 219.657 203.643C219.163 203.753 218.807 203.187 218.613 202.705C216.398 197.281 215.227 191.455 215.165 185.559C215.124 182.18 215.497 178.945 217.528 176.267C219.56 173.59 224.246 171.926 226.294 173.936" fill="#263238"/>
<path d="M219.423 187.605L214.922 221.712C214.742 223.09 214.832 224.491 215.187 225.831C215.542 227.171 216.155 228.421 216.988 229.506C217.821 230.591 218.856 231.488 220.032 232.142C221.207 232.796 222.498 233.193 223.826 233.31C226.339 233.538 228.839 232.748 230.81 231.105C232.781 229.462 234.071 227.091 234.412 224.483C234.744 221.949 235.027 219.778 235.084 219.516C235.084 219.516 243.51 219.896 245.242 211.391C246.051 207.277 247.144 198.661 248.026 190.857C248.471 186.818 247.445 182.752 245.151 179.466C242.857 176.18 239.463 173.915 235.643 173.119L234.833 172.958C226.213 171.674 220.386 178.601 219.423 187.605Z" fill="#FFBE9D"/>
<path d="M235.076 219.399C231.287 218.673 227.791 216.788 225.031 213.984C225.031 213.984 226.375 220.64 234.671 221.586L235.076 219.399Z" fill="#EB996E"/>
<path d="M244.506 196.072C244.449 196.39 244.275 196.671 244.02 196.856C243.766 197.041 243.452 197.114 243.147 197.06C242.996 197.043 242.851 196.993 242.719 196.916C242.587 196.838 242.471 196.733 242.379 196.608C242.287 196.483 242.22 196.339 242.182 196.186C242.144 196.033 242.136 195.873 242.159 195.717C242.215 195.398 242.388 195.114 242.643 194.927C242.897 194.741 243.212 194.666 243.519 194.72C243.67 194.739 243.816 194.789 243.948 194.868C244.08 194.946 244.195 195.052 244.287 195.178C244.379 195.304 244.446 195.448 244.484 195.602C244.521 195.755 244.529 195.915 244.506 196.072Z" fill="#263238"/>
<path d="M245.429 194.676C245.251 194.811 244.498 193.941 243.244 193.679C241.989 193.417 240.937 193.89 240.816 193.679C240.694 193.468 240.97 193.341 241.431 193.122C242.046 192.836 242.732 192.762 243.39 192.91C244.043 193.041 244.639 193.387 245.089 193.899C245.437 194.304 245.51 194.625 245.429 194.676Z" fill="#263238"/>
<path d="M232.106 193.943C232.051 194.263 231.877 194.547 231.622 194.733C231.368 194.92 231.053 194.994 230.746 194.94C230.596 194.92 230.45 194.869 230.318 194.791C230.186 194.712 230.071 194.607 229.978 194.481C229.886 194.355 229.818 194.212 229.779 194.059C229.74 193.905 229.73 193.746 229.751 193.589C229.812 193.272 229.987 192.992 230.24 192.807C230.493 192.621 230.805 192.544 231.11 192.592C231.262 192.611 231.408 192.661 231.54 192.739C231.672 192.817 231.788 192.923 231.881 193.049C231.974 193.175 232.041 193.319 232.08 193.472C232.119 193.626 232.128 193.786 232.106 193.943Z" fill="#263238"/>
<path d="M233.037 192.353C232.859 192.48 232.106 191.61 230.851 191.348C229.597 191.086 228.545 191.559 228.423 191.348C228.302 191.137 228.577 191.01 229.038 190.79C229.654 190.51 230.339 190.436 230.997 190.579C231.65 190.717 232.247 191.063 232.705 191.568C233.045 192.024 233.118 192.294 233.037 192.353Z" fill="#263238"/>
<path d="M235.73 203.001C236.433 202.919 237.144 202.933 237.843 203.043C238.175 203.043 238.49 203.043 238.588 202.849C238.69 202.514 238.69 202.153 238.588 201.818C238.442 200.974 238.288 200.028 238.126 199.065C237.503 195.162 237.123 191.986 237.268 191.961C237.414 191.936 238.078 195.078 238.669 198.98C238.814 199.943 238.96 200.855 239.089 201.734C239.216 202.181 239.184 202.661 239 203.085C238.932 203.192 238.841 203.281 238.734 203.345C238.627 203.41 238.508 203.448 238.385 203.457C238.2 203.484 238.012 203.484 237.827 203.457C237.113 203.397 236.408 203.243 235.73 203.001Z" fill="#263238"/>
<path d="M231.863 203.151C232.073 203.151 231.798 204.604 232.769 205.854C233.74 207.104 235.197 207.256 235.197 207.459C235.197 207.661 234.825 207.661 234.21 207.552C233.408 207.397 232.684 206.955 232.162 206.301C231.668 205.668 231.427 204.86 231.49 204.046C231.555 203.438 231.774 203.117 231.863 203.151Z" fill="#263238"/>
<path d="M234.339 187.273C234.153 187.61 232.931 187.18 231.417 187.053C229.904 186.926 228.641 187.104 228.503 186.74C228.447 186.572 228.722 186.284 229.264 186.039C229.984 185.743 230.76 185.627 231.53 185.702C232.305 185.763 233.055 186.018 233.716 186.445C234.21 186.783 234.412 187.121 234.339 187.273Z" fill="#263238"/>
<path d="M245.686 190.788C245.411 191.042 244.61 190.552 243.565 190.315C242.521 190.079 241.607 190.121 241.469 189.766C241.404 189.597 241.599 189.327 242.044 189.124C242.624 188.886 243.26 188.842 243.865 188.998C244.475 189.132 245.028 189.466 245.443 189.952C245.743 190.332 245.816 190.662 245.686 190.788Z" fill="#263238"/>
<path d="M218.881 194.059C218.751 193.966 213.596 191.153 212.657 197.024C211.718 202.894 217.562 202.666 217.594 202.497C217.626 202.328 218.881 194.059 218.881 194.059Z" fill="#FFBE9D"/>
<path d="M216.235 199.966C216.235 199.966 216.129 200.025 215.951 200.076C215.701 200.138 215.438 200.099 215.215 199.966C214.887 199.665 214.643 199.276 214.509 198.842C214.376 198.408 214.356 197.944 214.454 197.5C214.519 196.993 214.693 196.507 214.964 196.081C215.041 195.906 215.156 195.752 215.301 195.633C215.446 195.514 215.616 195.433 215.798 195.397C215.916 195.386 216.034 195.419 216.132 195.49C216.229 195.561 216.3 195.665 216.332 195.785C216.38 195.954 216.332 196.072 216.332 196.081C216.332 196.089 216.469 196.005 216.461 195.76C216.453 195.609 216.396 195.467 216.299 195.354C216.234 195.279 216.154 195.218 216.065 195.176C215.976 195.133 215.879 195.111 215.781 195.109C215.544 195.117 215.312 195.187 215.108 195.314C214.904 195.441 214.735 195.621 214.616 195.836C214.294 196.303 214.086 196.845 214.009 197.415C213.855 198.606 214.26 199.814 215.037 200.194C215.181 200.267 215.338 200.304 215.498 200.304C215.658 200.304 215.816 200.267 215.959 200.194C216.202 200.11 216.251 199.983 216.235 199.966Z" fill="#EB996E"/>
<path d="M250.049 189.484C248.147 189.592 246.248 189.226 244.507 188.419C242.767 187.611 241.235 186.384 240.037 184.839C238.418 182.66 237.342 179.813 235.003 178.495C234.197 178.082 233.321 177.839 232.425 177.781C231.529 177.723 230.631 177.851 229.782 178.158C228.093 178.788 226.546 179.771 225.233 181.046C225.978 185.709 223.995 190.338 222.061 194.561C221.894 195.059 221.572 195.484 221.146 195.769C220.385 196.166 219.479 195.541 219.017 194.789C218.371 193.529 218.09 192.1 218.208 190.675C218.225 187.43 218.858 184.221 220.07 181.232C221.3 178.235 223.346 175.679 225.954 173.884C229.299 171.752 233.306 171.059 237.131 171.949C240.935 172.873 244.364 175.021 246.933 178.09C248.185 179.45 249.094 181.113 249.58 182.93" fill="#263238"/>
<path d="M23.538 327.035C23.5734 326.911 23.6223 326.792 23.6837 326.68L24.1369 325.658C24.6951 324.337 25.1472 322.969 25.4886 321.57C26.3789 317.938 26.6865 312.388 25.3672 305.8C24.6574 302.206 23.7219 298.665 22.5667 295.199C21.377 291.441 20.001 287.454 18.876 283.138C17.6058 278.636 16.9918 273.96 17.0549 269.268C17.2248 264.361 18.617 259.462 20.1467 254.588C21.6764 249.714 23.2547 244.933 23.7242 240.136C24.2547 235.519 23.3676 230.847 21.1908 226.79C19.1593 222.888 16.6178 219.56 14.7158 216.105C12.933 212.906 11.6181 209.447 10.8146 205.842C9.66808 200.617 9.58536 195.198 10.5718 189.937C10.9346 188.014 11.4768 186.133 12.1905 184.32C12.1715 184.449 12.1417 184.577 12.1015 184.7L11.7777 185.773C9.87337 192.26 9.66934 199.161 11.1869 205.758C11.9979 209.321 13.3156 212.738 15.0962 215.894C16.9982 219.273 19.5559 222.651 21.6198 226.562C23.8304 230.698 24.7339 235.457 24.2017 240.161C23.7242 245.043 22.1297 249.849 20.608 254.723C19.0864 259.597 17.7024 264.437 17.5324 269.26C17.4619 273.905 18.0594 278.534 19.3049 282.994C20.4138 287.285 21.7817 291.272 22.9472 295.047C24.0926 298.533 25.0146 302.094 25.7071 305.707C26.994 312.346 26.6217 317.955 25.7071 321.595C25.3504 322.999 24.868 324.365 24.2664 325.675C24.056 326.097 23.886 326.427 23.7646 326.68C23.7002 326.806 23.6243 326.924 23.538 327.035Z" fill="#263238"/>
<path d="M17.2965 219.511C17.2965 219.511 13.4196 206.587 20.3721 199.019C20.426 198.958 20.495 198.914 20.5714 198.892C20.6479 198.869 20.7288 198.869 20.8052 198.892C20.8815 198.915 20.9503 198.959 21.0039 199.021C21.0575 199.082 21.0937 199.157 21.1086 199.239C21.481 201.376 21.9423 207.88 17.2965 219.511Z" fill="#A210C6"/>
<path d="M19.6201 203.328C19.6072 204.129 19.5177 204.927 19.3531 205.71C19.1021 207.399 18.8027 209.283 18.4708 211.412C18.139 213.54 17.8557 215.474 17.6048 217.113C17.5393 217.913 17.4011 218.705 17.192 219.478C17.1266 218.675 17.151 217.868 17.2649 217.071C17.3944 215.593 17.6453 213.565 17.9933 211.336C18.3413 209.106 18.7136 207.112 19.0212 205.651C19.1347 204.855 19.3357 204.076 19.6201 203.328Z" fill="#263238"/>
<path d="M21.8457 250.005C21.8457 250.005 24.2172 236.685 33.7517 233.408C33.8268 233.38 33.9078 233.375 33.9855 233.393C34.0632 233.411 34.1346 233.451 34.1917 233.509C34.2489 233.567 34.2894 233.64 34.3089 233.721C34.3284 233.801 34.326 233.886 34.302 233.965C33.6869 236.009 31.1697 241.99 21.8457 250.005Z" fill="#A210C6"/>
<path d="M31.1533 236.828C30.7831 237.531 30.3466 238.193 29.8502 238.805C28.8951 240.139 27.762 241.693 26.5156 243.417L23.1647 248.037C22.7464 248.709 22.2696 249.34 21.7402 249.92C22.0412 249.178 22.4242 248.475 22.8815 247.826C23.6908 246.584 24.7835 244.912 26.119 243.112C27.4545 241.313 28.6604 239.734 29.575 238.585C30.0344 237.938 30.564 237.348 31.1533 236.828Z" fill="#263238"/>
<path d="M19.2711 283.409C19.2711 283.409 17.8304 269.945 26.0375 263.897C26.1021 263.848 26.1785 263.82 26.258 263.814C26.3375 263.808 26.417 263.825 26.4875 263.864C26.5581 263.902 26.617 263.961 26.6576 264.032C26.6982 264.104 26.7189 264.186 26.7174 264.269C26.6931 266.431 25.9566 272.91 19.2711 283.409Z" fill="#A210C6"/>
<path d="M24.5085 267.977C24.3545 268.763 24.1212 269.53 23.8124 270.266C23.262 271.828 22.6226 273.644 21.9023 275.688L20.0164 281.111C19.8158 281.883 19.5448 282.632 19.207 283.349C19.2927 282.549 19.4637 281.762 19.7169 281.001C20.1135 279.574 20.7287 277.623 21.4814 275.511C22.2341 273.399 22.9706 271.499 23.5291 270.139C23.7761 269.382 24.1047 268.656 24.5085 267.977Z" fill="#263238"/>
<path d="M26.451 317.023C26.451 317.023 25.4716 303.509 33.8811 297.782C33.9468 297.735 34.0238 297.708 34.1035 297.704C34.1832 297.7 34.2624 297.719 34.3322 297.759C34.402 297.8 34.4597 297.859 34.4986 297.932C34.5376 298.005 34.5564 298.087 34.5528 298.171C34.4476 300.324 33.4926 306.769 26.451 317.023Z" fill="#A210C6"/>
<path d="M32.2137 301.82C32.0195 302.602 31.7482 303.361 31.4043 304.084C30.7973 305.621 30.0931 307.463 29.308 309.422L27.2279 314.777C27.0158 315.523 26.7395 316.247 26.4023 316.94C26.5111 316.144 26.7095 315.364 26.9932 314.617C27.4303 313.206 28.1182 311.289 28.9438 309.203C29.7694 307.116 30.5625 305.241 31.1696 303.907C31.4431 303.173 31.7933 302.474 32.2137 301.82Z" fill="#263238"/>
<path d="M11.7283 208.155C11.7283 208.155 0.227046 201.887 0.000419665 191.405C-0.00310875 191.322 0.015668 191.239 0.0546399 191.167C0.0936117 191.094 0.151233 191.034 0.221027 190.994C0.290821 190.953 0.370021 190.934 0.449724 190.938C0.529427 190.942 0.606473 190.969 0.672202 191.016C2.37999 192.25 7.11486 196.498 11.7283 208.155Z" fill="#A210C6"/>
<path d="M2.38867 195.008C2.92628 195.58 3.40632 196.209 3.82127 196.883L7.05878 201.562L10.2963 206.233C10.7895 206.847 11.2284 207.505 11.6075 208.201C10.9989 207.693 10.4549 207.105 9.98874 206.453C9.07414 205.321 7.86816 203.699 6.60553 201.866C5.3429 200.034 4.24215 198.336 3.47324 197.086C3.03695 196.438 2.67306 195.741 2.38867 195.008Z" fill="#263238"/>
<path d="M24.079 235.935C24.079 235.935 12.2378 230.411 11.3961 219.962C11.3894 219.88 11.4045 219.798 11.4398 219.724C11.4751 219.65 11.5292 219.588 11.5961 219.545C11.6631 219.501 11.7403 219.477 11.8192 219.477C11.8982 219.476 11.9758 219.498 12.0436 219.54C13.8242 220.63 18.8019 224.574 24.079 235.935Z" fill="#A210C6"/>
<path d="M13.9941 223.383C14.5624 223.922 15.0776 224.519 15.532 225.165L19.0447 229.633L22.5655 234.085C23.0909 234.653 23.5626 235.272 23.9738 235.935C23.3566 235.439 22.7946 234.872 22.2984 234.245C21.319 233.164 20.024 231.627 18.6562 229.878C17.2883 228.13 16.0904 226.5 15.2568 225.309C14.7675 224.719 14.3439 224.073 13.9941 223.383Z" fill="#263238"/>
<path d="M17.2643 266.883C17.2643 266.883 9.13009 256.325 12.9504 246.611C12.9794 246.535 13.0282 246.468 13.0914 246.418C13.1546 246.368 13.2297 246.338 13.3084 246.33C13.3872 246.322 13.4665 246.337 13.5375 246.373C13.6086 246.41 13.6687 246.466 13.7112 246.535C14.8038 248.402 17.4991 254.272 17.2643 266.883Z" fill="#A210C6"/>
<path d="M13.7526 250.93C14.0248 251.678 14.2228 252.454 14.3434 253.244C14.6834 254.874 15.08 256.783 15.5251 258.895C15.9703 261.007 16.3345 262.907 16.7149 264.529C16.9314 265.299 17.0804 266.087 17.1601 266.885C16.8007 266.169 16.5288 265.409 16.3507 264.622C15.946 263.194 15.4685 261.243 15.0152 258.996C14.562 256.749 14.2058 254.773 13.9792 253.32C13.8201 252.534 13.7441 251.733 13.7526 250.93Z" fill="#263238"/>
<path d="M25.3253 303.326C25.3253 303.326 13.565 297.599 12.9013 287.125C12.8962 287.044 12.9125 286.963 12.9485 286.89C12.9844 286.818 13.0386 286.757 13.1053 286.714C13.172 286.672 13.2485 286.649 13.3267 286.648C13.4048 286.648 13.4816 286.67 13.5488 286.711C15.3133 287.869 20.2262 291.898 25.3253 303.326Z" fill="#A210C6"/>
<path d="M15.4355 290.617C15.9975 291.165 16.5046 291.77 16.9491 292.425C17.9365 293.734 19.102 295.263 20.3889 296.952L23.8369 301.471C24.3553 302.062 24.8213 302.701 25.229 303.38C24.6269 302.886 24.0834 302.319 23.6103 301.691C22.6552 300.601 21.3845 299.038 20.049 297.265C18.7135 295.491 17.4995 293.852 16.6901 292.644C16.2036 292.017 15.783 291.338 15.4355 290.617Z" fill="#263238"/>
<path d="M48.7412 250.07C48.7525 250.171 48.7525 250.273 48.7412 250.374C48.7412 250.611 48.7412 250.89 48.7412 251.219C48.7412 252.064 48.6603 253.136 48.6036 254.505C48.4498 257.394 48.2394 261.414 47.9885 266.237C47.1791 271.136 44.751 276.567 41.5135 281.838C39.1582 285.724 36.6572 289.263 34.5609 292.548C32.6229 295.417 30.8785 298.423 29.3404 301.544C28.3348 303.662 27.5218 305.873 26.9123 308.149C26.7018 308.952 26.5481 309.585 26.459 310.016C26.4233 310.238 26.3664 310.456 26.2891 310.667C26.2917 310.442 26.3161 310.219 26.3619 309.999C26.4186 309.56 26.5481 308.918 26.7261 308.099C27.2754 305.77 28.051 303.506 29.041 301.341C30.5453 298.182 32.2684 295.142 34.1967 292.244C36.3092 288.933 38.7697 285.394 41.1169 281.534C44.3544 276.28 46.6854 270.934 47.5919 266.11C47.9157 261.304 48.1828 257.284 48.4013 254.395C48.5065 253.027 48.5955 251.929 48.6522 251.118C48.6522 250.78 48.7169 250.493 48.7412 250.273C48.7343 250.206 48.7343 250.138 48.7412 250.07Z" fill="#263238"/>
<path d="M41.7816 280.877C41.7816 280.877 46.7593 268.368 40.4947 260.174C40.4462 260.109 40.381 260.058 40.3066 260.029C40.2322 260 40.1515 259.992 40.0734 260.008C39.9953 260.024 39.923 260.062 39.8644 260.118C39.8059 260.174 39.7635 260.247 39.742 260.326C39.1511 262.421 38.1232 268.883 41.7816 280.877Z" fill="#A210C6"/>
<path d="M40.8327 264.539C41.0473 265.31 41.1803 266.103 41.2293 266.904C41.4073 268.374 41.6016 270.41 41.7554 272.665C41.9091 274.92 41.982 276.964 41.982 278.442C42.0319 279.245 41.9856 280.051 41.8444 280.841C41.7037 280.056 41.636 279.258 41.642 278.459C41.5368 276.77 41.4073 274.852 41.2697 272.699C41.1321 270.545 40.9945 268.593 40.8893 266.938C40.7949 266.142 40.776 265.339 40.8327 264.539Z" fill="#263238"/>
<g opacity="0.3">
<path d="M41.7797 280.877C41.7797 280.877 46.7573 268.368 40.4927 260.174C40.4442 260.109 40.3791 260.058 40.3047 260.029C40.2303 260 40.1495 259.992 40.0715 260.008C39.9934 260.024 39.921 260.062 39.8625 260.118C39.804 260.174 39.7616 260.247 39.74 260.326C39.1492 262.421 38.1213 268.883 41.7797 280.877Z" fill="black"/>
</g>
<path d="M26.3212 311.014C26.3212 311.014 30.3114 298.133 23.4317 290.497C23.3784 290.436 23.31 290.392 23.2341 290.369C23.1582 290.346 23.0777 290.346 23.0015 290.368C22.9254 290.389 22.8565 290.433 22.8024 290.493C22.7483 290.553 22.7112 290.628 22.6952 290.708C22.2986 292.837 21.7806 299.332 26.3212 311.014Z" fill="#A210C6"/>
<path d="M24.1445 294.805C24.4196 295.557 24.6123 296.339 24.7192 297.136C25.0106 298.58 25.3667 300.591 25.6985 302.829C26.0304 305.067 26.257 307.095 26.3703 308.573C26.4803 309.37 26.4966 310.179 26.4189 310.98C26.2218 310.205 26.0917 309.414 26.0304 308.615C25.7957 306.926 25.5205 305.042 25.221 302.905C24.9215 300.768 24.6302 298.842 24.4116 297.195C24.2475 296.409 24.158 295.609 24.1445 294.805Z" fill="#263238"/>
<g opacity="0.3">
<path d="M26.3231 311.014C26.3231 311.014 30.3134 298.133 23.4337 290.497C23.3803 290.436 23.312 290.392 23.2361 290.369C23.1602 290.346 23.0797 290.346 23.0035 290.368C22.9273 290.389 22.8584 290.433 22.8043 290.493C22.7503 290.553 22.7132 290.628 22.6971 290.708C22.3005 292.837 21.7825 299.332 26.3231 311.014Z" fill="black"/>
</g>
<path d="M48.0781 265.595C48.0781 265.595 58.7134 257.824 57.6369 247.401C57.63 247.318 57.6011 247.239 57.5537 247.173C57.5062 247.106 57.442 247.055 57.3681 247.024C57.2942 246.993 57.2136 246.985 57.1353 246.999C57.057 247.013 56.9841 247.05 56.9246 247.105C55.3868 248.609 51.2104 253.415 48.0781 265.595Z" fill="#A210C6"/>
<g opacity="0.3">
<path d="M48.0762 265.595C48.0762 265.595 58.7114 257.824 57.6349 247.401C57.628 247.318 57.5992 247.239 57.5517 247.173C57.5043 247.106 57.44 247.055 57.3661 247.024C57.2923 246.993 57.2117 246.985 57.1334 246.999C57.0551 247.013 56.9821 247.05 56.9227 247.105C55.3849 248.609 51.2085 253.415 48.0762 265.595Z" fill="black"/>
</g>
<path d="M55.7189 251.297C55.5041 252.066 55.2082 252.809 54.8367 253.51C54.2296 254.853 53.3474 256.677 52.3195 258.671C51.2916 260.664 50.3042 262.43 49.5353 263.68C49.1676 264.386 48.7133 265.039 48.1836 265.622C48.4755 264.881 48.8304 264.169 49.2439 263.494L51.8905 258.426L54.5291 253.358C54.8567 252.63 55.2554 251.939 55.7189 251.297Z" fill="#263238"/>
<path d="M30.6035 298.239C30.6035 298.239 43.3998 296.153 46.8639 286.304C46.8926 286.226 46.8999 286.142 46.8851 286.06C46.8703 285.978 46.834 285.902 46.7802 285.841C46.7264 285.78 46.6572 285.735 46.5805 285.712C46.5038 285.69 46.4226 285.69 46.3459 285.712C44.3468 286.304 38.5435 288.745 30.6035 298.239Z" fill="#A210C6"/>
<g opacity="0.3">
<path d="M30.6016 298.239C30.6016 298.239 43.3978 296.153 46.862 286.304C46.8906 286.226 46.8979 286.142 46.8831 286.06C46.8683 285.978 46.832 285.902 46.7782 285.841C46.7244 285.78 46.6553 285.735 46.5786 285.712C46.5019 285.69 46.4206 285.69 46.344 285.712C44.3448 286.304 38.5416 288.745 30.6016 298.239Z" fill="black"/>
</g>
<path d="M43.4975 288.914C42.9805 289.502 42.4053 290.032 41.7816 290.494C40.6727 291.423 39.1106 292.656 37.3462 293.965C35.5817 295.274 33.9468 296.415 32.7408 297.192C32.1068 297.651 31.4219 298.028 30.7012 298.315C31.2735 297.782 31.8912 297.304 32.5466 296.888L37.071 293.56L41.5792 290.181C42.1748 289.69 42.8177 289.266 43.4975 288.914Z" fill="#263238"/>
<path d="M18.3741 322.867L14.6348 349.136H37.9449L34.9178 322.867H18.3741Z" fill="#455A64"/>
<path d="M35.8566 331.002C35.8566 331.146 31.6478 331.256 26.4516 331.256C21.2554 331.256 17.0547 331.146 17.0547 331.002C20.1809 330.752 23.3172 330.667 26.4516 330.749C29.5887 330.667 32.7277 330.752 35.8566 331.002Z" fill="#263238"/>
<path d="M36.3177 333.074C36.3177 333.209 31.9713 333.327 26.6051 333.327C21.2389 333.327 16.8926 333.209 16.8926 333.074C16.8926 332.939 21.2389 332.82 26.6051 332.82C31.9713 332.82 36.3177 332.955 36.3177 333.074Z" fill="#263238"/>
</svg>
