<svg width="40" height="40" viewBox="0 0 40 40" fill="none" xmlns="http://www.w3.org/2000/svg">
<circle cx="20" cy="20.0078" r="20" transform="rotate(-180 20 20.0078)" fill="#E0F1E9"/>
<path d="M18.8147 27.5439C19.1291 27.841 19.5552 28.0078 19.9994 28.0078C20.4437 28.0078 20.8698 27.841 21.1841 27.5439L27.5088 21.5626C27.8233 21.265 28 20.8614 28 20.4405C28 20.0197 27.8233 19.6161 27.5088 19.3185C27.1943 19.0209 26.7678 18.8537 26.323 18.8537C25.8782 18.8537 25.4517 19.0209 25.1372 19.3185L21.6759 22.5926V10.3941C21.6759 9.97338 21.4993 9.56991 21.1849 9.27242C20.8705 8.97494 20.4441 8.80781 19.9994 8.80781C19.5548 8.80781 19.1284 8.97494 18.814 9.27242C18.4996 9.56991 18.323 9.97338 18.323 10.3941V22.5926L14.8628 19.3185C14.7071 19.1712 14.5222 19.0543 14.3187 18.9745C14.1153 18.8948 13.8972 18.8537 13.677 18.8537C13.4568 18.8537 13.2387 18.8948 13.0352 18.9745C12.8318 19.0543 12.6469 19.1712 12.4912 19.3185C12.3355 19.4659 12.2119 19.6408 12.1277 19.8333C12.0434 20.0258 12 20.2322 12 20.4405C12 20.6489 12.0434 20.8553 12.1277 21.0478C12.2119 21.2403 12.3355 21.4152 12.4912 21.5626L18.8147 27.5439Z" fill="#93D1A6"/>
</svg>
