<svg width="44" height="50" viewBox="0 0 44 50" fill="none" xmlns="http://www.w3.org/2000/svg">
<path d="M12.833 35.4431L20.9235 35.4118L38.5822 15.5368C39.2752 14.7493 39.6565 13.7035 39.6565 12.591C39.6565 11.4785 39.2752 10.4327 38.5822 9.64518L35.6745 6.34102C34.2885 4.76602 31.8703 4.77435 30.4953 6.33477L12.833 26.2139V35.4431ZM33.0822 9.28685L35.9953 12.5848L33.0675 15.8806L30.1598 12.5785L33.0822 9.28685ZM16.4997 27.9514L27.5547 15.5077L30.4623 18.8118L19.4092 31.2514L16.4997 31.2618V27.9514Z" fill="#9937AA"/>
<path d="M9.16667 43.75H34.8333C36.8555 43.75 38.5 41.8812 38.5 39.5833V21.525L34.8333 25.6917V39.5833H14.9563C14.9087 39.5833 14.8592 39.6042 14.8115 39.6042C14.751 39.6042 14.6905 39.5854 14.6282 39.5833H9.16667V10.4167H21.7195L25.3862 6.25H9.16667C7.1445 6.25 5.5 8.11875 5.5 10.4167V39.5833C5.5 41.8812 7.1445 43.75 9.16667 43.75Z" fill="#9937AA"/>
</svg>
