<svg width="40" height="40" viewBox="0 0 40 40" fill="none" xmlns="http://www.w3.org/2000/svg">
<circle cx="20" cy="20" r="20" fill="#EAB8B5"/>
<path d="M21.1853 12.4639C20.8709 12.1669 20.4448 12 20.0006 12C19.5563 12 19.1302 12.1669 18.8159 12.4639L12.4912 18.4452C12.1767 18.7428 12 19.1464 12 19.5673C12 19.9881 12.1767 20.3917 12.4912 20.6893C12.8057 20.9869 13.2322 21.1541 13.677 21.1541C14.1218 21.1541 14.5483 20.9869 14.8628 20.6893L18.3241 17.4152V29.6137C18.3241 30.0344 18.5007 30.4379 18.8151 30.7354C19.1295 31.0329 19.5559 31.2 20.0006 31.2C20.4452 31.2 20.8716 31.0329 21.186 30.7354C21.5004 30.4379 21.677 30.0344 21.677 29.6137V17.4152L25.1372 20.6893C25.2929 20.8367 25.4778 20.9535 25.6813 21.0333C25.8847 21.113 26.1028 21.1541 26.323 21.1541C26.5432 21.1541 26.7613 21.113 26.9648 21.0333C27.1682 20.9535 27.3531 20.8367 27.5088 20.6893C27.6645 20.542 27.7881 20.367 27.8723 20.1745C27.9566 19.982 28 19.7757 28 19.5673C28 19.3589 27.9566 19.1526 27.8723 18.96C27.7881 18.7675 27.6645 18.5926 27.5088 18.4452L21.1853 12.4639Z" fill="#FF000C"/>
</svg>
