<svg width="130" height="100" viewBox="0 0 130 100" fill="none" xmlns="http://www.w3.org/2000/svg">
<path d="M65.4875 0C24.375 0 0 50 0 50C0 50 24.375 100 65.4875 100C105.625 100 130 50 130 50C130 50 105.625 0 65.4875 0ZM65 16.6667C83.0375 16.6667 97.5 31.6667 97.5 50C97.5 68.5 83.0375 83.3333 65 83.3333C47.125 83.3333 32.5 68.5 32.5 50C32.5 31.6667 47.125 16.6667 65 16.6667ZM65 33.3333C56.0625 33.3333 48.75 40.8333 48.75 50C48.75 59.1667 56.0625 66.6667 65 66.6667C73.9375 66.6667 81.25 59.1667 81.25 50C81.25 48.3333 80.6 46.8333 80.275 45.3333C78.975 48 76.375 50 73.125 50C68.575 50 65 46.3333 65 41.6667C65 38.3333 66.95 35.6667 69.55 34.3333C68.0875 33.8333 66.625 33.3333 65 33.3333Z" fill="white"/>
</svg>
