<svg width="105" height="101" viewBox="0 0 105 101" fill="none" xmlns="http://www.w3.org/2000/svg">
<path d="M34.6875 56.8125H25.3125C23.7656 56.8125 22.5 55.7473 22.5 54.4453V46.5547C22.5 45.2527 23.7656 44.1875 25.3125 44.1875H34.6875C36.2344 44.1875 37.5 45.2527 37.5 46.5547V54.4453C37.5 55.7473 36.2344 56.8125 34.6875 56.8125ZM60 54.4453V46.5547C60 45.2527 58.7344 44.1875 57.1875 44.1875H47.8125C46.2656 44.1875 45 45.2527 45 46.5547V54.4453C45 55.7473 46.2656 56.8125 47.8125 56.8125H57.1875C58.7344 56.8125 60 55.7473 60 54.4453ZM82.5 54.4453V46.5547C82.5 45.2527 81.2344 44.1875 79.6875 44.1875H70.3125C68.7656 44.1875 67.5 45.2527 67.5 46.5547V54.4453C67.5 55.7473 68.7656 56.8125 70.3125 56.8125H79.6875C81.2344 56.8125 82.5 55.7473 82.5 54.4453ZM60 73.3828V65.4922C60 64.1902 58.7344 63.125 57.1875 63.125H47.8125C46.2656 63.125 45 64.1902 45 65.4922V73.3828C45 74.6848 46.2656 75.75 47.8125 75.75H57.1875C58.7344 75.75 60 74.6848 60 73.3828ZM37.5 73.3828V65.4922C37.5 64.1902 36.2344 63.125 34.6875 63.125H25.3125C23.7656 63.125 22.5 64.1902 22.5 65.4922V73.3828C22.5 74.6848 23.7656 75.75 25.3125 75.75H34.6875C36.2344 75.75 37.5 74.6848 37.5 73.3828ZM82.5 73.3828V65.4922C82.5 64.1902 81.2344 63.125 79.6875 63.125H70.3125C68.7656 63.125 67.5 64.1902 67.5 65.4922V73.3828C67.5 74.6848 68.7656 75.75 70.3125 75.75H79.6875C81.2344 75.75 82.5 74.6848 82.5 73.3828ZM105 22.0938V91.5312C105 96.7588 99.9609 101 93.75 101H11.25C5.03906 101 0 96.7588 0 91.5312V22.0938C0 16.8662 5.03906 12.625 11.25 12.625H22.5V2.36719C22.5 1.06523 23.7656 0 25.3125 0H34.6875C36.2344 0 37.5 1.06523 37.5 2.36719V12.625H67.5V2.36719C67.5 1.06523 68.7656 0 70.3125 0H79.6875C81.2344 0 82.5 1.06523 82.5 2.36719V12.625H93.75C99.9609 12.625 105 16.8662 105 22.0938ZM93.75 90.3477V31.5625H11.25V90.3477C11.25 90.9986 11.8828 91.5312 12.6562 91.5312H92.3438C93.1172 91.5312 93.75 90.9986 93.75 90.3477Z" fill="white"/>
</svg>
