<svg width="250" height="150" viewBox="0 0 250 150" fill="none" xmlns="http://www.w3.org/2000/svg">
<path d="M2.67694 63.3943C2.56843 63.3948 2.46368 63.3574 2.38331 63.2897C2.30293 63.2219 2.25276 63.1286 2.24266 63.0282L0.000575198 37.9611C-0.0051185 37.8595 0.0316302 37.7598 0.103148 37.6828C0.174667 37.6058 0.275419 37.5575 0.384354 37.548C0.49798 37.5402 0.610361 37.5742 0.697267 37.6427C0.784174 37.7111 0.838644 37.8086 0.848931 37.9141L3.09103 62.9812C3.09944 63.0869 3.06287 63.1913 2.98919 63.2721C2.9155 63.3529 2.81062 63.4036 2.69715 63.4131L2.67694 63.3943Z" fill="#A210C6"/>
<path d="M4.01043 78.2998C3.90192 78.3002 3.79717 78.2629 3.71679 78.1951C3.63642 78.1274 3.58625 78.0341 3.57615 77.9337L2.89948 70.3478C2.89394 70.2952 2.89982 70.2422 2.91676 70.1918C2.9337 70.1414 2.96136 70.0946 2.99809 70.0544C3.03483 70.0141 3.0799 69.9811 3.13062 69.9573C3.18134 69.9335 3.23668 69.9195 3.29336 69.9159C3.3499 69.9108 3.40698 69.9163 3.4612 69.932C3.51542 69.9477 3.56569 69.9735 3.60902 70.0076C3.65235 70.0418 3.68786 70.0836 3.71344 70.1308C3.73902 70.1779 3.75415 70.2294 3.75794 70.2821L4.43461 77.8679C4.44303 77.9736 4.40644 78.078 4.33276 78.1588C4.25908 78.2396 4.1542 78.2902 4.04073 78.2998H4.01043Z" fill="#A210C6"/>
<path d="M231.219 149.628H22.684C20.0567 149.581 17.5395 148.639 15.6093 146.981C13.6791 145.323 12.4699 143.065 12.2108 140.634L0.465079 9.3934C0.339575 8.24708 0.476396 7.08904 0.866557 5.99536C1.25672 4.90169 1.89139 3.89712 2.72888 3.04767C3.56637 2.19821 4.58771 1.52308 5.72583 1.06664C6.86394 0.61019 8.09307 0.38276 9.33246 0.399277H217.857C220.486 0.446883 223.004 1.38851 224.936 3.04596C226.868 4.70341 228.079 6.96169 228.341 9.3934L240.086 140.616C240.213 141.763 240.078 142.923 239.688 144.018C239.299 145.113 238.664 146.119 237.827 146.971C236.99 147.822 235.968 148.499 234.829 148.957C233.69 149.415 232.46 149.644 231.219 149.628Z" fill="white"/>
<path d="M231.219 149.999H22.6845C19.9547 149.958 17.3368 148.984 15.3306 147.262C13.3243 145.541 12.0701 143.193 11.8074 140.667L0.0616087 9.43555C-0.0570032 8.23819 0.0946298 7.031 0.506799 5.89125C0.918969 4.7515 1.5826 3.7043 2.4552 2.8167C3.32339 1.92322 4.38493 1.21042 5.57022 0.72503C6.75552 0.239638 8.03779 -0.00738175 9.33297 0.000167979H217.858C220.599 0.0406128 223.227 1.02175 225.237 2.75488C227.247 4.48801 228.496 6.85073 228.745 9.3886L240.481 140.611C240.61 141.807 240.466 143.016 240.058 144.158C239.65 145.299 238.987 146.347 238.113 147.234C237.238 148.12 236.172 148.825 234.984 149.301C233.796 149.778 232.513 150.016 231.219 149.999ZM9.33297 0.788793C8.14748 0.770894 6.97139 0.986978 5.88237 1.42277C4.79334 1.85857 3.81615 2.50416 3.01533 3.31692C2.21451 4.12968 1.60826 5.09112 1.23664 6.13775C0.865016 7.18438 0.736466 8.29238 0.859472 9.3886L12.6052 140.601C12.855 142.943 14.0219 145.118 15.884 146.712C17.7461 148.306 20.1736 149.209 22.7047 149.248H231.219C232.402 149.264 233.575 149.048 234.662 148.612C235.748 148.177 236.723 147.533 237.522 146.723C238.322 145.912 238.927 144.954 239.3 143.91C239.672 142.866 239.803 141.761 239.683 140.667L227.937 9.43555C227.689 7.09297 226.523 4.91701 224.661 3.32238C222.798 1.72774 220.369 0.825919 217.838 0.788793H9.33297Z" fill="#A210C6"/>
<path d="M217.858 0.407062H9.33335C8.09584 0.390837 6.86861 0.617822 5.73202 1.07315C4.59544 1.52847 3.57515 2.20185 2.73799 3.04921C1.90083 3.89656 1.26568 4.89877 0.87414 5.99017C0.482601 7.08157 0.34351 8.23756 0.465974 9.3824H228.341C228.075 6.95407 226.862 4.70032 224.931 3.04673C222.999 1.39313 220.483 0.454148 217.858 0.407062Z" fill="#A210C6"/>
<path d="M14.2111 4.91224C14.2398 5.15966 14.2115 5.40992 14.1283 5.64642C14.045 5.88292 13.9086 6.10025 13.7281 6.28402C13.5476 6.46779 13.3271 6.61379 13.0813 6.71234C12.8355 6.81089 12.57 6.85975 12.3023 6.85566C11.7349 6.84453 11.1916 6.64071 10.7748 6.28268C10.358 5.92464 10.0966 5.43715 10.04 4.91224C10.013 4.66513 10.0424 4.4155 10.1263 4.17966C10.2102 3.94383 10.3466 3.72711 10.5268 3.54368C10.707 3.36024 10.9268 3.21422 11.1718 3.11517C11.4169 3.01611 11.6816 2.96625 11.9488 2.96885C12.5175 2.97588 13.0633 3.1783 13.481 3.53713C13.8987 3.89595 14.1588 4.38578 14.2111 4.91224Z" fill="white"/>
<path d="M22.6941 4.91224C22.7228 5.15966 22.6946 5.40992 22.6113 5.64642C22.528 5.88292 22.3916 6.10025 22.2111 6.28402C22.0306 6.46779 21.8102 6.61379 21.5643 6.71234C21.3185 6.81089 21.053 6.85975 20.7853 6.85566C20.225 6.83557 19.6914 6.62775 19.2831 6.27056C18.8747 5.91337 18.6191 5.43092 18.5634 4.91224C18.5364 4.66513 18.5658 4.4155 18.6497 4.17966C18.7336 3.94383 18.8701 3.72711 19.0503 3.54368C19.2304 3.36024 19.4502 3.21422 19.6952 3.11517C19.9403 3.01611 20.2051 2.96625 20.4723 2.96885C21.0339 2.98498 21.5698 3.19147 21.9791 3.54942C22.3883 3.90737 22.6427 4.39208 22.6941 4.91224Z" fill="white"/>
<path d="M31.1779 4.91224C31.2066 5.15966 31.1783 5.40992 31.0951 5.64642C31.0118 5.88292 30.8754 6.10025 30.6949 6.28402C30.5144 6.46779 30.2939 6.61379 30.0481 6.71234C29.8023 6.81089 29.5368 6.85975 29.2691 6.85566C28.7017 6.84453 28.1584 6.64071 27.7416 6.28268C27.3248 5.92464 27.0634 5.43715 27.0068 4.91224C26.9798 4.66513 27.0092 4.4155 27.0931 4.17966C27.177 3.94383 27.3134 3.72711 27.4936 3.54368C27.6738 3.36024 27.8936 3.21422 28.1386 3.11517C28.3836 3.01611 28.6484 2.96625 28.9156 2.96885C29.4843 2.97588 30.0301 3.1783 30.4478 3.53713C30.8655 3.89595 31.1256 4.38578 31.1779 4.91224Z" fill="white"/>
<path d="M213.121 132.419H37.7528C35.6639 132.383 33.662 131.636 32.1264 130.319C30.5907 129.002 29.628 127.207 29.4207 125.275L21.1795 33.7939C21.081 32.8816 21.1914 31.9602 21.5034 31.0903C21.8153 30.2204 22.3219 29.4218 22.9897 28.7469C23.6575 28.0721 24.4713 27.5363 25.3778 27.1747C26.2843 26.8132 27.2629 26.6341 28.2491 26.6493H203.648C205.736 26.6857 207.738 27.4331 209.274 28.7499C210.81 30.0667 211.772 31.8614 211.98 33.7939L220.17 125.322C220.261 126.229 220.146 127.143 219.831 128.006C219.517 128.869 219.011 129.661 218.346 130.33C217.682 131 216.873 131.532 215.973 131.891C215.072 132.251 214.101 132.431 213.121 132.419Z" fill="#F0F0F0"/>
<path opacity="0.1" d="M158.866 42.6264L104.531 103.445C102.823 105.354 101.674 107.641 101.194 110.084C100.713 112.527 100.919 115.044 101.79 117.392C102.661 119.739 104.168 121.839 106.166 123.487C108.164 125.136 110.585 126.278 113.196 126.803L201.365 144.519C204.123 145.075 206.991 144.923 209.663 144.079C212.334 143.234 214.708 141.73 216.53 139.727C218.352 137.724 219.552 135.297 220.003 132.708C220.454 130.118 220.139 127.464 219.09 125.029L185.287 46.4851C184.288 44.1545 182.654 42.1057 180.545 40.5405C178.436 38.9752 175.925 37.9473 173.259 37.5579C170.593 37.1685 167.864 37.4311 165.341 38.3199C162.817 39.2086 160.586 40.6928 158.866 42.6264Z" fill="#263238"/>
<path opacity="0.1" d="M37.9149 51.1656L18.9884 98.5865C18.4216 100.034 18.2583 101.592 18.5138 103.114C18.7693 104.637 19.4353 106.074 20.4496 107.292C21.4639 108.511 22.7936 109.471 24.3147 110.083C25.8357 110.694 27.4987 110.938 29.1485 110.792L84.4232 105.75C86.1822 105.59 87.8621 104.992 89.2858 104.019C90.7094 103.045 91.824 101.732 92.5118 100.219C93.1996 98.7057 93.4351 97.0478 93.1936 95.4204C92.952 93.7929 92.2423 92.2562 91.1394 90.9725L54.7811 48.6307C53.6949 47.3704 52.2684 46.4006 50.6472 45.8203C49.0259 45.2401 47.2681 45.0702 45.5532 45.3279C43.8382 45.5857 42.2275 46.2618 40.8856 47.2874C39.5437 48.313 38.5186 49.6513 37.9149 51.1656Z" fill="#263238"/>
<path d="M177.61 27.3118L126.81 95.8473C125.223 97.9881 124.254 100.471 123.995 103.06C123.736 105.648 124.196 108.255 125.331 110.631C126.466 113.007 128.238 115.073 130.478 116.63C132.717 118.187 135.349 119.184 138.121 119.525L231.501 131.082C234.438 131.446 237.426 131.06 240.145 129.967C242.865 128.874 245.213 127.114 246.939 124.876C248.666 122.637 249.705 120.005 249.946 117.26C250.186 114.515 249.62 111.76 248.307 109.292L205.727 29.1707C204.463 26.7971 202.554 24.7719 200.188 23.2961C197.823 21.8202 195.083 20.9449 192.241 20.757C189.399 20.5691 186.554 21.0752 183.988 22.225C181.421 23.3748 179.223 25.1284 177.61 27.3118Z" fill="#A210C6"/>
<path d="M140.333 113.412C138.647 113.198 137.043 112.601 135.665 111.672C134.287 110.743 133.177 109.512 132.435 108.088C131.67 106.742 131.31 105.229 131.394 103.709C131.477 102.189 132.001 100.717 132.91 99.451L183.842 30.7089C184.763 29.4827 186.036 28.5224 187.517 27.9379C188.998 27.3535 190.626 27.1685 192.214 27.4042C193.901 27.6158 195.506 28.2127 196.884 29.1417C198.262 30.0706 199.371 31.3026 200.112 32.7275L242.772 113.046C243.538 114.391 243.898 115.905 243.814 117.425C243.73 118.945 243.207 120.416 242.298 121.683C241.379 122.912 240.106 123.874 238.625 124.461C237.144 125.047 235.515 125.233 233.925 124.997L140.333 113.412Z" fill="white"/>
<path d="M187.882 51.7085L193.83 52.4408C195.69 52.6846 197.388 53.5563 198.601 54.8896C199.814 56.2229 200.456 57.9245 200.405 59.6699L200.001 66.8802C199.991 67.1416 199.961 67.4021 199.91 67.6594L195.679 89.3937C195.376 90.8916 194.456 92.2204 193.114 93.0972C191.773 93.974 190.117 94.3294 188.498 94.0879C186.78 93.8608 185.194 93.0998 184.001 91.9287C182.807 90.7575 182.075 89.2453 181.923 87.638L180.216 65.1809C180.196 64.9215 180.196 64.661 180.216 64.4016L180.61 57.1819C180.653 56.3617 180.881 55.5592 181.281 54.8268C181.68 54.0944 182.241 53.4487 182.928 52.932C183.614 52.4152 184.411 52.0391 185.264 51.8283C186.118 51.6174 187.01 51.5766 187.882 51.7085ZM187.407 100.115L189.023 100.312C190.688 100.531 192.207 101.311 193.293 102.504C194.379 103.696 194.955 105.219 194.911 106.781C194.876 107.518 194.673 108.239 194.316 108.898C193.96 109.556 193.458 110.137 192.842 110.603C192.227 111.068 191.513 111.408 190.747 111.598C189.981 111.789 189.18 111.827 188.397 111.71L186.781 111.503C185.117 111.287 183.598 110.509 182.512 109.318C181.426 108.126 180.849 106.605 180.893 105.044C180.927 104.307 181.128 103.585 181.484 102.926C181.84 102.266 182.343 101.684 182.958 101.219C183.574 100.753 184.289 100.414 185.055 100.224C185.822 100.033 186.624 99.9965 187.407 100.115Z" fill="#A210C6"/>
<path d="M57.447 37.7957L43.4995 86.963C43.0789 88.457 43.0731 90.0259 43.4825 91.5226C43.892 93.0193 44.7034 94.3949 45.8407 95.5206C46.978 96.6464 48.4041 97.4854 49.9853 97.9591C51.5666 98.4328 53.2513 98.5257 54.8817 98.2291L108.985 88.4182C110.701 88.0999 112.295 87.3608 113.601 86.2773C114.907 85.1939 115.878 83.8056 116.412 82.2562C116.947 80.7068 117.026 79.0527 116.642 77.4653C116.258 75.8778 115.424 74.4148 114.226 73.2277L74.1112 33.8432C72.908 32.6548 71.3844 31.7876 69.6986 31.332C68.0128 30.8764 66.2266 30.8489 64.5255 31.2523C62.8244 31.6558 61.2707 32.4755 60.0258 33.6263C58.781 34.777 57.8905 36.2167 57.447 37.7957Z" fill="#A210C6"/>
<path d="M54.7707 94.2753C53.7773 94.4424 52.7546 94.3734 51.7975 94.0747C50.8405 93.776 49.9803 93.2572 49.2967 92.5666C48.5915 91.9013 48.0818 91.0789 47.8166 90.178C47.5513 89.2772 47.5394 88.3281 47.7818 87.4217L61.7595 38.1231C62.0019 37.2617 62.5028 36.4821 63.2038 35.8753C63.9048 35.2686 64.777 34.8596 65.7185 34.6963C66.7128 34.5312 67.7358 34.6021 68.6927 34.9024C69.6496 35.2028 70.5094 35.7228 71.1925 36.4144L111.449 75.8458C112.155 76.5106 112.666 77.3327 112.933 78.2334C113.2 79.1341 113.214 80.0834 112.974 80.9907C112.73 81.8503 112.229 82.6279 111.528 83.2329C110.827 83.8379 109.956 84.2454 109.015 84.408L54.7707 94.2753Z" fill="white"/>
<path d="M68.3439 49.691L71.7878 49.062C72.8997 48.8952 74.0388 49.1164 74.9859 49.6832C75.933 50.2499 76.6212 51.1221 76.9184 52.132L78.1505 56.4226C78.1972 56.5801 78.2342 56.74 78.2616 56.9014L80.4532 70.4113C80.624 71.3209 80.4015 72.2564 79.8341 73.0142C79.2666 73.772 78.4002 74.2908 77.4233 74.4577C76.399 74.6158 75.3472 74.4431 74.4432 73.9682C73.5391 73.4934 72.8372 72.745 72.4544 71.8478L66.8592 59.0044C66.7914 58.8547 66.734 58.701 66.6875 58.5443L65.415 54.2444C65.2495 53.7665 65.1957 53.2611 65.257 52.7623C65.3183 52.2634 65.4934 51.7824 65.7706 51.3514C66.0478 50.9205 66.4207 50.5494 66.8645 50.2631C67.3082 49.9768 67.8126 49.7818 68.3439 49.691ZM78.0899 78.1192L79.0291 77.9502C80.0252 77.7899 81.0497 77.9825 81.9004 78.49C82.7512 78.9975 83.3663 79.7831 83.6244 80.6917C83.7668 81.1148 83.8116 81.561 83.7559 82.0013C83.7003 82.4416 83.5454 82.866 83.3015 83.2469C83.0575 83.6278 82.73 83.9566 82.3401 84.212C81.9503 84.4673 81.5069 84.6433 81.039 84.7287L80.0997 84.8977C79.105 85.0584 78.0817 84.8671 77.2311 84.3615C76.3806 83.8558 75.7646 83.0725 75.5044 82.1656C75.3621 81.742 75.3172 81.2952 75.3728 80.8543C75.4284 80.4134 75.5831 79.9884 75.8269 79.6067C76.0708 79.2251 76.3983 78.8954 76.7882 78.6392C77.178 78.3829 77.6216 78.2057 78.0899 78.1192Z" fill="#A210C6"/>
</svg>
