<svg width="73" height="74" viewBox="0 0 73 74" fill="none" xmlns="http://www.w3.org/2000/svg">
<rect x="3.5" y="0.5" width="66" height="66" rx="10.5" stroke="white"/>
<g filter="url(#filter0_d_1829_7087)">
<rect x="4" y="1" width="65" height="65" rx="10" fill="#A210C6"/>
</g>
<path d="M35.85 13.8906C46.3206 13.8906 54.8083 22.3783 54.8083 32.849C54.8083 43.3196 46.3206 51.8073 35.85 51.8073C32.8242 51.8115 29.8417 51.0884 27.1538 49.6991L19.9003 51.722C19.4956 51.8349 19.0682 51.8382 18.6618 51.7316C18.2554 51.625 17.8847 51.4122 17.5876 51.1151C17.2905 50.818 17.0777 50.4473 16.9711 50.0409C16.8645 49.6345 16.8678 49.2071 16.9807 48.8024L19.0055 41.5546C17.6127 38.8643 16.8877 35.8784 16.8916 32.849C16.8916 22.3783 25.3793 13.8906 35.85 13.8906ZM35.85 16.7344C31.5761 16.7344 27.4773 18.4322 24.4552 21.4542C21.4331 24.4763 19.7354 28.5751 19.7354 32.849C19.7354 35.6358 20.4425 38.3146 21.7696 40.692L22.054 41.2039L19.9458 48.7569L27.5045 46.6487L28.0164 46.9331C30.167 48.1288 32.5628 48.8161 35.0202 48.9423C37.4776 49.0685 39.9313 48.6303 42.1931 47.6613C44.4549 46.6922 46.4647 45.2181 48.0685 43.3519C49.6722 41.4857 50.8273 39.277 51.4452 36.8952C52.063 34.5134 52.1272 32.0217 51.6328 29.6112C51.1384 27.2008 50.0986 24.9355 48.5931 22.9892C47.0875 21.0429 45.1562 19.4673 42.9473 18.383C40.7384 17.2988 38.3106 16.7348 35.85 16.7344ZM35.85 39.4844C36.3528 39.4844 36.835 39.6841 37.1905 40.0397C37.546 40.3952 37.7458 40.8774 37.7458 41.3802C37.7458 41.883 37.546 42.3652 37.1905 42.7208C36.835 43.0763 36.3528 43.276 35.85 43.276C35.3471 43.276 34.8649 43.0763 34.5094 42.7208C34.1539 42.3652 33.9541 41.883 33.9541 41.3802C33.9541 40.8774 34.1539 40.3952 34.5094 40.0397C34.8649 39.6841 35.3471 39.4844 35.85 39.4844ZM35.85 22.8958C37.2327 22.8958 38.5588 23.4451 39.5365 24.4228C40.5142 25.4006 41.0635 26.7267 41.0635 28.1094C41.0635 30.0242 40.5004 31.0934 39.071 32.5816L38.7506 32.9058C37.5714 34.085 37.2718 34.5855 37.2718 35.6927C37.2718 36.0698 37.122 36.4315 36.8554 36.6981C36.5887 36.9648 36.2271 37.1146 35.85 37.1146C35.4728 37.1146 35.1112 36.9648 34.8445 36.6981C34.5779 36.4315 34.4281 36.0698 34.4281 35.6927C34.4281 33.7779 34.9911 32.7087 36.4206 31.2204L36.741 30.8962C37.9202 29.717 38.2197 29.2165 38.2197 28.1094C38.2178 27.5032 37.9836 26.9209 37.5654 26.4821C37.1473 26.0433 36.5768 25.7814 35.9715 25.7504C35.3661 25.7193 34.7719 25.9213 34.311 26.315C33.85 26.7086 33.5575 27.264 33.4934 27.8667L33.4802 28.1094C33.4802 28.4865 33.3304 28.8481 33.0637 29.1148C32.797 29.3814 32.4354 29.5312 32.0583 29.5312C31.6812 29.5312 31.3195 29.3814 31.0529 29.1148C30.7862 28.8481 30.6364 28.4865 30.6364 28.1094C30.6364 26.7267 31.1857 25.4006 32.1634 24.4228C33.1411 23.4451 34.4672 22.8958 35.85 22.8958Z" fill="white"/>
<defs>
<filter id="filter0_d_1829_7087" x="0" y="1" width="73" height="73" filterUnits="userSpaceOnUse" color-interpolation-filters="sRGB">
<feFlood flood-opacity="0" result="BackgroundImageFix"/>
<feColorMatrix in="SourceAlpha" type="matrix" values="0 0 0 0 0 0 0 0 0 0 0 0 0 0 0 0 0 0 127 0" result="hardAlpha"/>
<feOffset dy="4"/>
<feGaussianBlur stdDeviation="2"/>
<feComposite in2="hardAlpha" operator="out"/>
<feColorMatrix type="matrix" values="0 0 0 0 0 0 0 0 0 0 0 0 0 0 0 0 0 0 0.25 0"/>
<feBlend mode="normal" in2="BackgroundImageFix" result="effect1_dropShadow_1829_7087"/>
<feBlend mode="normal" in="SourceGraphic" in2="effect1_dropShadow_1829_7087" result="shape"/>
</filter>
</defs>
</svg>
