<svg width="20" height="20" viewBox="0 0 20 20" fill="none" xmlns="http://www.w3.org/2000/svg">
<path d="M15.8337 9.9974C15.8337 10.2184 15.7459 10.4304 15.5896 10.5867C15.4333 10.7429 15.2213 10.8307 15.0003 10.8307C14.7793 10.8307 14.5673 10.7429 14.4111 10.5867C14.2548 10.4304 14.167 10.2184 14.167 9.9974C14.167 9.77638 14.2548 9.56442 14.4111 9.40814C14.5673 9.25186 14.7793 9.16406 15.0003 9.16406C15.2213 9.16406 15.4333 9.25186 15.5896 9.40814C15.7459 9.56442 15.8337 9.77638 15.8337 9.9974Z" fill="#676568"/>
<path fill-rule="evenodd" clip-rule="evenodd" d="M8.28699 2.71094H10.8803C12.412 2.71094 13.6253 2.71094 14.5745 2.83844C15.5512 2.9701 16.342 3.24677 16.9662 3.8701C17.7362 4.64094 17.982 5.6726 18.0712 7.01177C18.552 7.2226 18.9153 7.6701 18.9545 8.23677C18.9587 8.2876 18.9587 8.34177 18.9587 8.39177V11.6134C18.9587 11.6634 18.9587 11.7176 18.9553 11.7676C18.9153 12.3343 18.552 12.7826 18.0712 12.9943C17.982 14.3326 17.7362 15.3643 16.9662 16.1351C16.342 16.7584 15.5512 17.0351 14.5745 17.1668C13.6245 17.2943 12.412 17.2943 10.8803 17.2943H8.28699C6.75533 17.2943 5.54199 17.2943 4.59283 17.1668C3.61616 17.0351 2.82533 16.7584 2.20116 16.1351C1.57783 15.5109 1.30116 14.7201 1.16949 13.7434C1.04199 12.7934 1.04199 11.5809 1.04199 10.0493V9.95594C1.04199 8.42427 1.04199 7.21094 1.16949 6.26177C1.30116 5.2851 1.57783 4.49427 2.20116 3.8701C2.82533 3.24677 3.61616 2.9701 4.59283 2.83844C5.54283 2.71094 6.75533 2.71094 8.28699 2.71094ZM16.807 13.1276H15.192C13.4045 13.1276 11.8745 11.7709 11.8745 10.0026C11.8745 8.23427 13.4045 6.8776 15.1912 6.8776H16.8062C16.7112 5.7601 16.497 5.16927 16.0812 4.75427C15.7287 4.40177 15.2453 4.1901 14.407 4.0776C13.5512 3.9626 12.422 3.96094 10.8328 3.96094H8.33283C6.74366 3.96094 5.61533 3.9626 4.75783 4.0776C3.92033 4.1901 3.43699 4.40177 3.08449 4.75427C2.73199 5.10677 2.52033 5.5901 2.40783 6.42844C2.29283 7.2851 2.29116 8.41344 2.29116 10.0026C2.29116 11.5918 2.29283 12.7209 2.40783 13.5776C2.52033 14.4151 2.73199 14.8984 3.08449 15.2509C3.43699 15.6034 3.92033 15.8151 4.75866 15.9276C5.61533 16.0426 6.74366 16.0443 8.33283 16.0443H10.8328C12.422 16.0443 13.5512 16.0426 14.4078 15.9276C15.2453 15.8151 15.7287 15.6034 16.0812 15.2509C16.497 14.8359 16.712 14.2459 16.807 13.1276ZM4.37533 6.66927C4.37533 6.50351 4.44117 6.34454 4.55838 6.22733C4.67559 6.11012 4.83457 6.04427 5.00033 6.04427H8.33366C8.49942 6.04427 8.65839 6.11012 8.7756 6.22733C8.89281 6.34454 8.95866 6.50351 8.95866 6.66927C8.95866 6.83503 8.89281 6.994 8.7756 7.11121C8.65839 7.22842 8.49942 7.29427 8.33366 7.29427H5.00033C4.83457 7.29427 4.67559 7.22842 4.55838 7.11121C4.44117 6.994 4.37533 6.83503 4.37533 6.66927ZM17.437 8.1276H15.192C14.0053 8.1276 13.1245 9.0101 13.1245 10.0026C13.1245 10.9951 14.0053 11.8776 15.1912 11.8776H17.4562C17.6278 11.8668 17.702 11.7509 17.7078 11.6809V8.32427C17.702 8.25427 17.6278 8.13844 17.4562 8.12844L17.437 8.1276Z" fill="#676568"/>
</svg>
