<svg width="20" height="16" viewBox="0 0 20 16" fill="none" xmlns="http://www.w3.org/2000/svg">
<path d="M2.91628 4.66832C2.91645 3.87824 3.12084 3.10163 3.50963 2.41384C3.89842 1.72605 4.4584 1.15044 5.13523 0.74287C5.81206 0.335299 6.58275 0.109609 7.37252 0.0877003C8.16229 0.0657919 8.94431 0.24841 9.64269 0.617832C10.3411 0.987254 10.9321 1.53093 11.3584 2.19611C11.7847 2.86129 12.0319 3.62538 12.0758 4.41423C12.1198 5.20307 11.9591 5.98989 11.6093 6.69832C11.2596 7.40676 10.7326 8.01274 10.0796 8.45748C11.4859 8.97326 12.7056 9.89808 13.5818 11.1129C14.458 12.3277 14.9507 13.777 14.9963 15.2741C14.9943 15.4356 14.9301 15.59 14.817 15.7052C14.7039 15.8203 14.5506 15.8873 14.3893 15.8922C14.2279 15.897 14.0709 15.8393 13.9511 15.7311C13.8313 15.623 13.7579 15.4727 13.7463 15.3116C13.6967 13.6879 13.0167 12.1472 11.8506 11.0162C10.6845 9.88511 9.12374 9.25257 7.4992 9.25257C5.87465 9.25257 4.31394 9.88511 3.1478 11.0162C1.98166 12.1472 1.30174 13.6879 1.25211 15.3116C1.24377 15.4748 1.17185 15.6283 1.05175 15.7391C0.931648 15.8499 0.772929 15.9093 0.609592 15.9045C0.446255 15.8997 0.291291 15.8311 0.177899 15.7134C0.0645064 15.5958 0.00170477 15.4384 0.00294779 15.275C0.0484072 13.7777 0.540953 12.3282 1.41719 11.1132C2.29342 9.89825 3.51323 8.97331 4.91961 8.45748C4.30218 8.03697 3.79689 7.47191 3.44773 6.8115C3.09857 6.15109 2.91613 5.41535 2.91628 4.66832ZM7.49961 1.33498C6.61556 1.33498 5.76771 1.68617 5.14259 2.31129C4.51747 2.93641 4.16628 3.78426 4.16628 4.66832C4.16628 5.55237 4.51747 6.40022 5.14259 7.02534C5.76771 7.65046 6.61556 8.00165 7.49961 8.00165C8.38367 8.00165 9.23151 7.65046 9.85664 7.02534C10.4818 6.40022 10.8329 5.55237 10.8329 4.66832C10.8329 3.78426 10.4818 2.93641 9.85664 2.31129C9.23151 1.68617 8.38367 1.33498 7.49961 1.33498ZM14.4079 4.66832C14.2852 4.66832 14.1646 4.67665 14.0463 4.69332C13.9637 4.70811 13.8789 4.70611 13.7971 4.68744C13.7153 4.66877 13.638 4.6338 13.57 4.58464C13.502 4.53547 13.4446 4.47311 13.4012 4.40127C13.3578 4.32942 13.3293 4.24958 13.3174 4.16649C13.3055 4.0834 13.3105 3.99877 13.3321 3.91765C13.3536 3.83653 13.3913 3.76058 13.4428 3.69434C13.4943 3.62809 13.5587 3.5729 13.632 3.53207C13.7054 3.49123 13.7862 3.46558 13.8696 3.45665C14.6984 3.33682 15.5436 3.49598 16.272 3.90909C17.0004 4.32219 17.5709 4.96579 17.8934 5.73859C18.216 6.51139 18.2725 7.36952 18.054 8.17793C17.8354 8.98634 17.3543 9.69914 16.6863 10.2041C17.6683 10.6439 18.502 11.3583 19.087 12.2613C19.672 13.1644 19.9831 14.2174 19.9829 15.2933C19.9829 15.4591 19.9171 15.618 19.7999 15.7353C19.6827 15.8525 19.5237 15.9183 19.3579 15.9183C19.1922 15.9183 19.0332 15.8525 18.916 15.7353C18.7988 15.618 18.7329 15.4591 18.7329 15.2933C18.7332 14.3633 18.4338 13.458 17.879 12.7117C17.3242 11.9653 16.5436 11.4177 15.6529 11.15L15.2079 11.0166V9.61998L15.5496 9.44582C16.0561 9.18927 16.4613 8.76953 16.6999 8.25435C16.9384 7.73917 16.9964 7.15863 16.8645 6.60645C16.7325 6.05426 16.4183 5.56266 15.9726 5.211C15.5269 4.85935 14.9757 4.66816 14.4079 4.66832Z" fill="#676568"/>
</svg>
