<svg width="48" height="48" viewBox="0 0 48 48" fill="none" xmlns="http://www.w3.org/2000/svg">
<path d="M41.0379 12.4865C41.0379 12.2446 40.9903 12.0051 40.8977 11.7816C40.8051 11.5581 40.6695 11.3551 40.4984 11.184C40.3274 11.013 40.1243 10.8773 39.9008 10.7847C39.6773 10.6922 39.4378 10.6445 39.1959 10.6445H8.80391C8.56202 10.6445 8.32249 10.6922 8.09901 10.7847C7.87553 10.8773 7.67247 11.013 7.50142 11.184C7.33038 11.3551 7.1947 11.5581 7.10213 11.7816C7.00956 12.0051 6.96191 12.2446 6.96191 12.4865V35.5105C6.96191 35.9991 7.15598 36.4676 7.50142 36.813C7.84687 37.1585 8.31539 37.3525 8.80391 37.3525H39.1959C39.6844 37.3525 40.153 37.1585 40.4984 36.813C40.8438 36.4676 41.0379 35.9991 41.0379 35.5105V12.4865Z" stroke="#A210C6" stroke-linecap="round" stroke-linejoin="round"/>
<path d="M38.0597 10.6463L37.4777 8.47028C37.3512 7.99848 37.0424 7.59627 36.6194 7.3521C36.1963 7.10793 35.6936 7.04181 35.2217 7.16828L22.2417 10.6463M41.0377 33.2603L42.1337 32.9663C42.3674 32.9037 42.5865 32.7957 42.7785 32.6485C42.9705 32.5013 43.1315 32.3177 43.2525 32.1082C43.3735 31.8987 43.4521 31.6674 43.4837 31.4275C43.5153 31.1877 43.4993 30.944 43.4367 30.7103L41.0367 21.7573M9.93973 37.3543L10.5217 39.5303C10.6483 40.0021 10.957 40.4043 11.3801 40.6484C11.8032 40.8926 12.3059 40.9587 12.7777 40.8323L25.7577 37.3543M6.96174 14.7403L5.86574 15.0343C5.63203 15.0968 5.41295 15.2048 5.22098 15.352C5.02901 15.4993 4.86793 15.6829 4.74693 15.8924C4.62594 16.1019 4.54739 16.3331 4.51579 16.573C4.48418 16.8129 4.50013 17.0566 4.56274 17.2903L6.97674 26.2983M12.9477 16.1723H35.0507M12.9477 21.3913H35.0507M12.9477 26.6093H35.0507M12.9477 31.8283H23.9997" stroke="#360542" stroke-linecap="round" stroke-linejoin="round"/>
</svg>
