<svg width="45" height="45" viewBox="0 0 45 45" fill="none" xmlns="http://www.w3.org/2000/svg">
<path d="M38.4736 11.7113C38.4736 11.4845 38.4289 11.2599 38.3421 11.0504C38.2554 10.8409 38.1282 10.6505 37.9678 10.4902C37.8074 10.3298 37.6171 10.2026 37.4076 10.1158C37.1981 10.029 36.9735 9.98438 36.7467 9.98438H8.25422C8.02744 9.98438 7.80289 10.029 7.59337 10.1158C7.38386 10.2026 7.19349 10.3298 7.03313 10.4902C6.87278 10.6505 6.74558 10.8409 6.65879 11.0504C6.57201 11.2599 6.52734 11.4845 6.52734 11.7113V33.2963C6.52734 33.7542 6.70928 34.1935 7.03313 34.5173C7.35699 34.8412 7.79622 35.0231 8.25422 35.0231H36.7467C37.2047 35.0231 37.644 34.8412 37.9678 34.5173C38.2917 34.1935 38.4736 33.7542 38.4736 33.2963V11.7113Z" stroke="#212427" stroke-linecap="round" stroke-linejoin="round"/>
<path d="M35.681 9.98357L35.1354 7.94357C35.0167 7.50126 34.7273 7.12419 34.3306 6.89528C33.934 6.66637 33.4627 6.60438 33.0204 6.72294L20.8516 9.98357M38.4729 31.1842L39.5004 30.9086C39.7195 30.8499 39.9249 30.7487 40.1048 30.6107C40.2848 30.4726 40.4358 30.3005 40.5493 30.1041C40.6627 29.9077 40.7363 29.6909 40.766 29.466C40.7956 29.2411 40.7806 29.0127 40.7219 28.7936L38.4719 20.4001M9.3185 35.0223L9.86413 37.0623C9.98276 37.5046 10.2722 37.8817 10.6689 38.1106C11.0655 38.3395 11.5368 38.4015 11.9791 38.2829L24.1479 35.0223M6.52663 13.8217L5.49913 14.0973C5.28003 14.156 5.07464 14.2572 4.89467 14.3952C4.7147 14.5333 4.56369 14.7054 4.45025 14.9018C4.33681 15.0982 4.26318 15.315 4.23355 15.5399C4.20392 15.7647 4.21888 15.9932 4.27756 16.2123L6.54069 24.6573M12.1385 15.1642H32.8601M12.1385 20.057H32.8601M12.1385 24.9489H32.8601M12.1385 29.8417H22.4998" stroke="#212427" stroke-linecap="round" stroke-linejoin="round"/>
</svg>
