<svg width="46" height="38" viewBox="0 0 46 38" fill="none" xmlns="http://www.w3.org/2000/svg">
<path fill-rule="evenodd" clip-rule="evenodd" d="M18.7167 0.771484H27.2834C31.1126 0.771484 34.1459 0.771485 36.5188 1.09023C38.9605 1.4194 40.9376 2.11107 42.498 3.6694C44.0563 5.22982 44.748 7.2069 45.0772 9.64857C45.2647 11.0507 45.3417 12.6819 45.373 14.5715C45.4002 14.7298 45.403 14.8914 45.3813 15.0507C45.3959 16.2298 45.3959 17.5048 45.3959 18.884V19.1173C45.3959 22.9465 45.3959 25.9798 45.0772 28.3527C44.748 30.7944 44.0563 32.7715 42.498 34.3319C40.9376 35.8902 38.9605 36.5819 36.5188 36.9111C34.1438 37.2298 31.1126 37.2298 27.2834 37.2298H18.7167C14.8876 37.2298 11.8542 37.2298 9.48133 36.9111C7.03966 36.5819 5.06258 35.8902 3.50216 34.3319C1.94383 32.7715 1.25216 30.7944 0.922997 28.3527C0.604247 25.9777 0.604247 22.9465 0.604247 19.1173V18.884C0.604247 17.5048 0.604247 16.2298 0.618831 15.0507C0.596494 14.8915 0.598602 14.73 0.625081 14.5715C0.658414 12.6819 0.735497 11.0507 0.922997 9.64857C1.25216 7.2069 1.94383 5.22982 3.50216 3.6694C5.06258 2.11107 7.03966 1.4194 9.48133 1.09023C11.8563 0.771485 14.8876 0.771484 18.7167 0.771484ZM3.73341 16.3965C3.72925 17.2048 3.72925 18.0715 3.72925 19.0007C3.72925 22.9736 3.73341 25.7965 4.02091 27.9382C4.30216 30.0319 4.83133 31.2402 5.71258 32.1215C6.59383 33.0027 7.80216 33.5319 9.898 33.8132C12.0397 34.1007 14.8605 34.1048 18.8334 34.1048H27.1667C31.1397 34.1048 33.9626 34.1007 36.1042 33.8132C38.198 33.5319 39.4063 33.0027 40.2876 32.1215C41.1688 31.2402 41.698 30.0319 41.9792 27.9361C42.2667 25.7944 42.2709 22.9736 42.2709 19.0007C42.2709 18.0715 42.2709 17.2048 42.2667 16.3965H3.73341ZM42.2167 13.2715H3.78341C3.82508 12.0486 3.89591 10.9923 4.02091 10.0632C4.30216 7.9694 4.83133 6.76107 5.71258 5.87982C6.59383 4.99857 7.80216 4.4694 9.898 4.18815C12.0397 3.90065 14.8605 3.89648 18.8334 3.89648H27.1667C31.1397 3.89648 33.9626 3.90065 36.1042 4.18815C38.198 4.4694 39.4063 4.99857 40.2876 5.87982C41.1688 6.76107 41.698 7.9694 41.9792 10.0652C42.1042 10.9923 42.1751 12.0486 42.2167 13.2715ZM8.93758 27.334C8.93758 26.9196 9.1022 26.5222 9.39523 26.2291C9.68825 25.9361 10.0857 25.7715 10.5001 25.7715H18.8334C19.2478 25.7715 19.6452 25.9361 19.9383 26.2291C20.2313 26.5222 20.3959 26.9196 20.3959 27.334C20.3959 27.7484 20.2313 28.1458 19.9383 28.4388C19.6452 28.7319 19.2478 28.8965 18.8334 28.8965H10.5001C10.0857 28.8965 9.68825 28.7319 9.39523 28.4388C9.1022 28.1458 8.93758 27.7484 8.93758 27.334ZM22.4792 27.334C22.4792 26.9196 22.6439 26.5222 22.9369 26.2291C23.2299 25.9361 23.6273 25.7715 24.0417 25.7715H27.1667C27.5811 25.7715 27.9786 25.9361 28.2716 26.2291C28.5646 26.5222 28.7292 26.9196 28.7292 27.334C28.7292 27.7484 28.5646 28.1458 28.2716 28.4388C27.9786 28.7319 27.5811 28.8965 27.1667 28.8965H24.0417C23.6273 28.8965 23.2299 28.7319 22.9369 28.4388C22.6439 28.1458 22.4792 27.7484 22.4792 27.334Z" fill="#212427" fill-opacity="0.75"/>
</svg>
