<svg width="30" height="31" viewBox="0 0 30 31" fill="none" xmlns="http://www.w3.org/2000/svg">
<path d="M4.37491 10.7798C4.37516 9.59471 4.68175 8.42979 5.26493 7.39811C5.84812 6.36642 6.68809 5.503 7.70333 4.89165C8.71858 4.28029 9.87462 3.94176 11.0593 3.90889C12.2439 3.87603 13.417 4.14996 14.4645 4.70409C15.5121 5.25822 16.3986 6.07375 17.0381 7.07151C17.6776 8.06928 18.0483 9.21541 18.1143 10.3987C18.1802 11.582 17.9392 12.7622 17.4145 13.8248C16.8899 14.8875 16.0994 15.7965 15.1199 16.4636C17.2293 17.2372 19.0589 18.6245 20.3732 20.4467C21.6875 22.2689 22.4265 24.4428 22.4949 26.6886C22.492 26.9307 22.3956 27.1623 22.226 27.3351C22.0563 27.5078 21.8264 27.6084 21.5844 27.6156C21.3423 27.6229 21.1069 27.5363 20.9271 27.3741C20.7474 27.2118 20.6373 26.9863 20.6199 26.7448C20.5455 24.3091 19.5256 21.9981 17.7764 20.3016C16.0272 18.605 13.6861 17.6562 11.2493 17.6562C8.81247 17.6562 6.4714 18.605 4.72219 20.3016C2.97299 21.9981 1.9531 24.3091 1.87866 26.7448C1.86614 26.9896 1.75826 27.2198 1.57811 27.386C1.39796 27.5522 1.15988 27.6412 0.914876 27.634C0.66987 27.6269 0.437425 27.524 0.267336 27.3475C0.0972479 27.171 0.00304543 26.9349 0.00490997 26.6898C0.0730992 24.4439 0.811918 22.2697 2.12627 20.4472C3.44062 18.6247 5.27034 17.2373 7.37991 16.4636C6.45345 15.8331 5.69528 14.9856 5.1715 13.9949C4.64772 13.0042 4.37425 11.9004 4.37491 10.7798ZM11.2499 5.77982C9.92383 5.77982 8.65206 6.3066 7.71438 7.24428C6.77669 8.18197 6.24991 9.45373 6.24991 10.7798C6.24991 12.1059 6.77669 13.3777 7.71438 14.3154C8.65206 15.253 9.92383 15.7798 11.2499 15.7798C12.576 15.7798 13.8478 15.253 14.7854 14.3154C15.7231 13.3777 16.2499 12.1059 16.2499 10.7798C16.2499 9.45373 15.7231 8.18197 14.7854 7.24428C13.8478 6.3066 12.576 5.77982 11.2499 5.77982ZM21.6124 10.7798C21.4274 10.7798 21.2474 10.7923 21.0699 10.8173C20.946 10.8395 20.8189 10.8365 20.6961 10.8085C20.5734 10.7805 20.4575 10.7281 20.3555 10.6543C20.2535 10.5806 20.1673 10.487 20.1022 10.3792C20.0371 10.2715 19.9944 10.1517 19.9766 10.0271C19.9588 9.90244 19.9663 9.7755 19.9986 9.65382C20.0309 9.53214 20.0874 9.41822 20.1647 9.31885C20.242 9.21948 20.3385 9.1367 20.4485 9.07544C20.5585 9.01419 20.6797 8.97571 20.8049 8.96232C22.0481 8.78257 23.3158 9.02131 24.4085 9.64097C25.5012 10.2606 26.3568 11.226 26.8407 12.3852C27.3246 13.5444 27.4093 14.8316 27.0815 16.0442C26.7537 17.2569 26.0319 18.3261 25.0299 19.0836C26.5029 19.7431 27.7536 20.8148 28.631 22.1694C29.5084 23.5239 29.9752 25.1034 29.9749 26.7173C29.9749 26.966 29.8761 27.2044 29.7003 27.3802C29.5245 27.556 29.286 27.6548 29.0374 27.6548C28.7888 27.6548 28.5503 27.556 28.3745 27.3802C28.1987 27.2044 28.0999 26.966 28.0999 26.7173C28.0998 25.3225 27.6503 23.9648 26.8182 22.8454C25.9861 21.726 24.8155 20.9044 23.4799 20.5023L22.8124 20.3023V18.2073L23.3249 17.9461C24.0846 17.5612 24.6924 16.9316 25.0503 16.1589C25.4081 15.3861 25.4951 14.5153 25.2972 13.687C25.0993 12.8587 24.628 12.1213 23.9594 11.5938C23.2908 11.0664 22.464 10.7796 21.6124 10.7798Z" fill="white"/>
</svg>
