<svg width="30" height="25" viewBox="0 0 30 25" fill="none" xmlns="http://www.w3.org/2000/svg">
<path d="M4.37491 7.77982C4.37516 6.59471 4.68175 5.42979 5.26493 4.39811C5.84812 3.36642 6.68809 2.503 7.70333 1.89165C8.71858 1.28029 9.87462 0.941757 11.0593 0.908894C12.2439 0.876032 13.417 1.14996 14.4645 1.70409C15.5121 2.25822 16.3986 3.07375 17.0381 4.07151C17.6776 5.06928 18.0483 6.21541 18.1143 7.39868C18.1802 8.58195 17.9392 9.76218 17.4145 10.8248C16.8899 11.8875 16.0994 12.7965 15.1199 13.4636C17.2293 14.2372 19.0589 15.6245 20.3732 17.4467C21.6875 19.2689 22.4265 21.4428 22.4949 23.6886C22.492 23.9307 22.3956 24.1623 22.226 24.3351C22.0563 24.5078 21.8264 24.6084 21.5844 24.6156C21.3423 24.6229 21.1069 24.5363 20.9271 24.3741C20.7474 24.2118 20.6373 23.9863 20.6199 23.7448C20.5455 21.3091 19.5256 18.9981 17.7764 17.3016C16.0272 15.605 13.6861 14.6562 11.2493 14.6562C8.81247 14.6562 6.4714 15.605 4.72219 17.3016C2.97299 18.9981 1.9531 21.3091 1.87866 23.7448C1.86614 23.9896 1.75826 24.2198 1.57811 24.386C1.39796 24.5522 1.15988 24.6412 0.914876 24.634C0.66987 24.6269 0.437425 24.524 0.267336 24.3475C0.0972479 24.171 0.00304543 23.9349 0.00490997 23.6898C0.0730992 21.4439 0.811918 19.2697 2.12627 17.4472C3.44062 15.6247 5.27034 14.2373 7.37991 13.4636C6.45345 12.8331 5.69528 11.9856 5.1715 10.9949C4.64772 10.0042 4.37425 8.90044 4.37491 7.77982ZM11.2499 2.77982C9.92383 2.77982 8.65206 3.3066 7.71438 4.24428C6.77669 5.18197 6.24991 6.45373 6.24991 7.77982C6.24991 9.1059 6.77669 10.3777 7.71438 11.3154C8.65206 12.253 9.92383 12.7798 11.2499 12.7798C12.576 12.7798 13.8478 12.253 14.7854 11.3154C15.7231 10.3777 16.2499 9.1059 16.2499 7.77982C16.2499 6.45373 15.7231 5.18197 14.7854 4.24428C13.8478 3.3066 12.576 2.77982 11.2499 2.77982ZM21.6124 7.77982C21.4274 7.77982 21.2474 7.79232 21.0699 7.81732C20.946 7.83951 20.8189 7.83651 20.6961 7.8085C20.5734 7.78049 20.4575 7.72805 20.3555 7.6543C20.2535 7.58055 20.1673 7.487 20.1022 7.37924C20.0371 7.27148 19.9944 7.15171 19.9766 7.02708C19.9588 6.90244 19.9663 6.7755 19.9986 6.65382C20.0309 6.53214 20.0874 6.41822 20.1647 6.31885C20.242 6.21948 20.3385 6.1367 20.4485 6.07544C20.5585 6.01419 20.6797 5.97571 20.8049 5.96232C22.0481 5.78257 23.3158 6.02131 24.4085 6.64097C25.5012 7.26063 26.3568 8.22602 26.8407 9.38523C27.3246 10.5444 27.4093 11.8316 27.0815 13.0442C26.7537 14.2569 26.0319 15.3261 25.0299 16.0836C26.5029 16.7431 27.7536 17.8148 28.631 19.1694C29.5084 20.5239 29.9752 22.1034 29.9749 23.7173C29.9749 23.966 29.8761 24.2044 29.7003 24.3802C29.5245 24.556 29.286 24.6548 29.0374 24.6548C28.7888 24.6548 28.5503 24.556 28.3745 24.3802C28.1987 24.2044 28.0999 23.966 28.0999 23.7173C28.0998 22.3225 27.6503 20.9648 26.8182 19.8454C25.9861 18.726 24.8155 17.9044 23.4799 17.5023L22.8124 17.3023V15.2073L23.3249 14.9461C24.0846 14.5612 24.6924 13.9316 25.0503 13.1589C25.4081 12.3861 25.4951 11.5153 25.2972 10.687C25.0993 9.85874 24.628 9.12133 23.9594 8.59385C23.2908 8.06637 22.464 7.77959 21.6124 7.77982Z" fill="#212427"/>
</svg>
