<svg width="111" height="100" viewBox="0 0 111 100" fill="none" xmlns="http://www.w3.org/2000/svg">
<path d="M30.7852 34.3737H43.0986V46.8732C43.0986 47.7019 43.4229 48.4968 44.0002 49.0828C44.5775 49.6688 45.3605 49.998 46.1769 49.998H58.4902C59.3067 49.998 60.0896 49.6688 60.6669 49.0828C61.2442 48.4968 61.5686 47.7019 61.5686 46.8732V34.3737H73.8819C74.6983 34.3737 75.4813 34.0444 76.0586 33.4584C76.6359 32.8724 76.9602 32.0775 76.9602 31.2488V18.7493C76.9602 17.9205 76.6359 17.1257 76.0586 16.5396C75.4813 15.9536 74.6983 15.6244 73.8819 15.6244H61.5686V3.12488C61.5686 2.29611 61.2442 1.50128 60.6669 0.915255C60.0896 0.329227 59.3067 0 58.4902 0H46.1769C45.3605 0 44.5775 0.329227 44.0002 0.915255C43.4229 1.50128 43.0986 2.29611 43.0986 3.12488V15.6244H30.7852C29.9688 15.6244 29.1858 15.9536 28.6085 16.5396C28.0312 17.1257 27.7069 17.9205 27.7069 18.7493V31.2488C27.7069 32.0775 28.0312 32.8724 28.6085 33.4584C29.1858 34.0444 29.9688 34.3737 30.7852 34.3737ZM109.319 65.683C108.721 64.8552 107.968 64.1556 107.103 63.6242C106.237 63.0928 105.277 62.7401 104.277 62.5864C103.278 62.4327 102.258 62.481 101.276 62.7285C100.295 62.976 99.3713 63.4179 98.5586 64.0287L75.5346 81.2507H52.3297C51.5133 81.2507 50.7303 80.9215 50.153 80.3355C49.5757 79.7495 49.2514 78.9546 49.2514 78.1259C49.2514 77.2971 49.5757 76.5023 50.153 75.9162C50.7303 75.3302 51.5133 75.001 52.3297 75.001H67.3828C70.4611 75.001 73.2989 72.878 73.803 69.8039C73.9518 68.9063 73.906 67.9865 73.6688 67.1086C73.4316 66.2308 73.0087 65.416 72.4296 64.721C71.8505 64.0261 71.1291 63.4676 70.3156 63.0846C69.5021 62.7016 68.6162 62.5033 67.7195 62.5034H36.9361C31.7443 62.5023 26.7097 64.3123 22.6758 67.6302L13.7294 75.001H3.07833C2.26362 75.0066 1.48385 75.3376 0.907749 75.9224C0.331648 76.5073 0.00554417 77.2988 0 78.1259V96.8751C0.00554417 97.7021 0.331648 98.4937 0.907749 99.0785C1.48385 99.6633 2.26362 99.9944 3.07833 100H69.8397C74.1097 99.9897 78.2663 98.6035 81.7105 96.0412L107.69 76.5947C109.329 75.3657 110.422 73.5266 110.727 71.4809C111.033 69.4352 110.526 67.3501 109.319 65.683Z" fill="white"/>
</svg>
