<svg width="27" height="27" viewBox="0 0 27 27" fill="none" xmlns="http://www.w3.org/2000/svg">
<path d="M12.7647 26H2.47059C2.08056 26 1.70651 25.8537 1.43073 25.5932C1.15494 25.3327 1 24.9795 1 24.6111V2.38889C1 2.02053 1.15494 1.66726 1.43073 1.4068C1.70651 1.14633 2.08056 1 2.47059 1H23.0588C23.4488 1 23.8229 1.14633 24.0987 1.4068C24.3745 1.66726 24.5294 2.02053 24.5294 2.38889V10.375" stroke="#212427" stroke-width="2" stroke-linecap="round" stroke-linejoin="round"/>
<path d="M22.7912 15.5821C24.5633 15.5821 26.0001 16.8876 26.0001 18.4988C26.0001 20.596 23.8604 22.3876 22.7912 23.3599C22.078 24.0078 21.1876 24.6564 20.1177 25.3043C19.0486 24.6564 18.1567 24.0078 17.4442 23.3599C16.3743 22.3876 14.2354 20.596 14.2354 18.4988C14.2354 16.8876 15.6721 15.5821 17.4442 15.5821C18.5596 15.5821 19.5427 16.1001 20.1177 16.8863C20.4184 16.4808 20.8188 16.1504 21.2844 15.9232C21.7501 15.6961 22.2671 15.579 22.7912 15.5821Z" stroke="#212427" stroke-width="2" stroke-linejoin="round"/>
<path d="M6.88281 6.55469H18.6475" stroke="#212427" stroke-width="2" stroke-linecap="round"/>
</svg>
