<svg width="40" height="45" viewBox="0 0 40 45" fill="none" xmlns="http://www.w3.org/2000/svg">
<g clip-path="url(#clip0_1829_7108)">
<path d="M15.5556 2.10938V7.03125H11.6667C10.7431 7.03125 10 7.97168 10 9.14062V13.3594C10 14.5283 10.7431 15.4688 11.6667 15.4688H15.5556V20.3906C15.5556 21.5596 16.2986 22.5 17.2222 22.5H20.5556C21.4792 22.5 22.2222 21.5596 22.2222 20.3906V15.4688H26.1111C27.0347 15.4688 27.7778 14.5283 27.7778 13.3594V9.14062C27.7778 7.97168 27.0347 7.03125 26.1111 7.03125H22.2222V2.10938C22.2222 0.94043 21.4792 0 20.5556 0H17.2222C16.2986 0 15.5556 0.94043 15.5556 2.10938ZM38.8681 34.4707C40.1042 33.3193 40.3681 31.1221 39.4583 29.5576C38.5486 27.9932 36.8125 27.6592 35.5764 28.8105L27.2639 36.5625H18.8889C18.2778 36.5625 17.7778 35.9297 17.7778 35.1562C17.7778 34.3828 18.2778 33.75 18.8889 33.75H24.4444C25.6736 33.75 26.6667 32.4932 26.6667 30.9375C26.6667 29.3818 25.6736 28.125 24.4444 28.125H13.4514C11.4306 28.125 9.47222 28.9951 7.89583 30.5859L4.77778 33.75H2.22222C0.993056 33.75 0 35.0068 0 36.5625V42.1875C0 43.7432 0.993056 45 2.22222 45H24.4792C26.4931 45 28.4583 44.1826 30.0833 42.6709L38.875 34.4707H38.8681Z" fill="#1C5DBE"/>
</g>
<defs>
<clipPath id="clip0_1829_7108">
<rect width="40" height="45" fill="white"/>
</clipPath>
</defs>
</svg>
