<svg width="40" height="40" viewBox="0 0 40 40" fill="none" xmlns="http://www.w3.org/2000/svg">
<path fill-rule="evenodd" clip-rule="evenodd" d="M16.1749 0H21.9647C25.3842 0 28.093 2.72478e-07 30.2121 0.349715C32.3926 0.710857 34.1581 1.46971 35.5516 3.17943C37.2707 5.29371 37.8195 8.12343 38.0186 11.7966C39.0921 12.3749 39.9033 13.6023 39.9907 15.1566C40 15.296 40 15.4446 40 15.5817V24.4183C40 24.5554 40 24.704 39.9926 24.8411C39.9033 26.3954 39.0921 27.6251 38.0186 28.2057C37.8195 31.8766 37.2707 34.7063 35.5516 36.8206C34.1581 38.5303 32.3926 39.2891 30.2121 39.6503C28.0912 40 25.3842 40 21.9647 40H16.1749C12.7553 40 10.0465 40 7.92744 39.6503C5.74698 39.2891 3.9814 38.5303 2.58791 36.8206C1.19628 35.1086 0.578605 32.9394 0.284651 30.2606C0 27.6549 0 24.3291 0 20.128V19.872C0 15.6709 0 12.3429 0.284651 9.73943C0.578605 7.06057 1.19628 4.89143 2.58791 3.17943C3.9814 1.46971 5.74698 0.710857 7.92744 0.349715C10.0484 2.72478e-07 12.7553 0 16.1749 0ZM35.1963 28.5714H31.5907C27.6 28.5714 24.1842 24.8503 24.1842 20C24.1842 15.1497 27.6 11.4286 31.5888 11.4286H35.1944C34.9823 8.36343 34.5042 6.74286 33.5758 5.60457C32.7888 4.63771 31.7098 4.05714 29.8381 3.74857C27.9274 3.43314 25.4065 3.42857 21.8586 3.42857H16.2772C12.7293 3.42857 10.2102 3.43314 8.29581 3.74857C6.42605 4.05714 5.34698 4.63771 4.56 5.60457C3.77302 6.57143 3.30047 7.89714 3.0493 10.1966C2.79256 12.5463 2.78884 15.6411 2.78884 20C2.78884 24.3589 2.79256 27.456 3.0493 29.8057C3.30047 32.1029 3.77302 33.4286 4.56 34.3954C5.34698 35.3623 6.42605 35.9429 8.29768 36.2514C10.2102 36.5669 12.7293 36.5714 16.2772 36.5714H21.8586C25.4065 36.5714 27.9274 36.5669 29.84 36.2514C31.7098 35.9429 32.7888 35.3623 33.5758 34.3954C34.5042 33.2571 34.9842 31.6389 35.1963 28.5714ZM7.44186 10.8571C7.44186 10.4025 7.58887 9.96645 7.85055 9.64496C8.11223 9.32347 8.46714 9.14286 8.83721 9.14286H16.2791C16.6491 9.14286 17.0041 9.32347 17.2657 9.64496C17.5274 9.96645 17.6744 10.4025 17.6744 10.8571C17.6744 11.3118 17.5274 11.7478 17.2657 12.0693C17.0041 12.3908 16.6491 12.5714 16.2791 12.5714H8.83721C8.46714 12.5714 8.11223 12.3908 7.85055 12.0693C7.58887 11.7478 7.44186 11.3118 7.44186 10.8571ZM36.6028 14.8571H31.5907C28.9414 14.8571 26.9749 17.2777 26.9749 20C26.9749 22.7223 28.9414 25.1429 31.5888 25.1429H36.6456C37.0288 25.1131 37.1944 24.7954 37.2074 24.6034V15.3966C37.1944 15.2046 37.0288 14.8869 36.6456 14.8594L36.6028 14.8571Z" fill="#212427" fill-opacity="0.75"/>
</svg>
