<svg width="113" height="115" viewBox="0 0 113 115" fill="none" xmlns="http://www.w3.org/2000/svg">
<path d="M94.146 108H17.8932C11.8771 108 7 102.539 7 95.8031V40.9183C7 34.1823 11.8771 28.7217 17.8932 28.7217H94.146C100.162 28.7217 105.039 34.1823 105.039 40.9183V95.8031C105.039 102.539 100.162 108 94.146 108Z" fill="#A210C6" stroke="white" stroke-width="14"/>
<path d="M80.529 71.4103C79.0252 71.4103 77.8057 70.0449 77.8057 68.3612C77.8057 66.6774 79.0252 65.312 80.529 65.312C82.0328 65.312 83.2523 66.6774 83.2523 68.3612C83.2523 70.0449 82.0328 71.4103 80.529 71.4103Z" fill="#A210C6" stroke="white" stroke-width="14" stroke-linecap="round" stroke-linejoin="round"/>
<path d="M88.6993 28.7213V20.2033C88.6993 12.1897 81.915 6.35371 74.9995 8.41847L15.0864 26.3069C10.3179 27.7307 7 32.566 7 38.0917V40.9179" fill="#A210C6"/>
<path d="M88.6993 28.7213V20.2033C88.6993 12.1897 81.915 6.35371 74.9995 8.41847L15.0864 26.3069C10.3179 27.7307 7 32.566 7 38.0917V40.9179" stroke="white" stroke-width="14"/>
</svg>
