<svg width="150" height="148" viewBox="0 0 150 148" fill="none" xmlns="http://www.w3.org/2000/svg">
<path d="M150 73.6346C150 32.9674 116.421 0 75 0C33.5786 0 0 32.9674 0 73.6346C0 114.302 33.5786 147.269 75 147.269C116.421 147.269 150 114.302 150 73.6346Z" fill="#D188E3"/>
<path d="M37.502 107.725L42.8831 88.0806C38.5434 80.4283 37.1646 71.4987 38.9998 62.9305C40.8349 54.3622 45.761 46.7299 52.8739 41.4342C59.9868 36.1387 68.8095 33.5348 77.7231 34.1005C86.6366 34.6662 95.0431 38.3636 101.4 44.5142C107.757 50.6647 111.637 58.8559 112.33 67.5846C113.022 76.3133 110.48 84.9941 105.17 92.034C99.8593 99.0737 92.137 104 83.42 105.91C74.7027 107.819 65.5755 106.584 57.7129 102.429L37.502 107.725ZM58.6873 95.0785L59.9373 95.8052C65.6323 99.1139 72.284 100.483 78.856 99.6995C85.4278 98.9157 91.5505 96.0233 96.2701 91.4728C100.99 86.9221 104.041 80.9692 104.948 74.5415C105.856 68.1136 104.568 61.5722 101.287 55.9365C98.0053 50.3007 92.914 45.8873 86.8062 43.3838C80.6984 40.8804 73.9174 40.4277 67.5195 42.0962C61.1219 43.7646 55.467 47.4608 51.4361 52.6083C47.4053 57.7559 45.2248 64.0657 45.2346 70.5547C45.2294 75.9352 46.7473 81.2116 49.62 85.7964L50.4039 87.0631L47.3956 98.0272L58.6873 95.0785Z" fill="#00D95F"/>
<path fill-rule="evenodd" clip-rule="evenodd" d="M89.0244 75.5997C88.2916 75.0203 87.4337 74.6126 86.5158 74.4075C85.598 74.2025 84.6446 74.2053 83.728 74.4161C82.351 74.9767 81.4611 77.0947 80.5714 78.1538C80.3838 78.4076 80.1081 78.5857 79.796 78.6545C79.4839 78.7234 79.1571 78.6782 78.8766 78.5275C73.8351 76.5922 69.6095 73.0429 66.8857 68.4564C66.6533 68.1703 66.5433 67.8068 66.5789 67.4428C66.6146 67.0786 66.7928 66.7423 67.0763 66.5044C68.0687 65.5415 68.7974 64.3488 69.1948 63.0367C69.2831 61.5894 68.9448 60.1478 68.2204 58.8836C67.6603 57.1114 66.5943 55.5334 65.1485 54.3361C64.4028 54.0074 63.5758 53.8972 62.7677 54.0188C61.9595 54.1404 61.2045 54.4884 60.5936 55.0213C59.5332 55.918 58.6916 57.0365 58.1307 58.2943C57.5696 59.5522 57.3037 60.9173 57.3523 62.2891C57.3554 63.0595 57.4552 63.8267 57.6489 64.5734C58.1408 66.3672 58.8974 68.0812 59.8946 69.6608C60.6139 70.8708 61.3989 72.0424 62.2461 73.1702C64.9991 76.8747 68.4599 80.0199 72.4362 82.4314C74.4316 83.6569 76.5641 84.6533 78.7918 85.4009C81.106 86.429 83.661 86.8237 86.1855 86.5429C87.6239 86.3296 88.9867 85.7729 90.1541 84.9219C91.3215 84.071 92.2576 82.9519 92.8801 81.6631C93.2458 80.8846 93.3569 80.0141 93.1978 79.1713C92.8166 77.4478 90.4649 76.4303 89.0244 75.5997Z" fill="white"/>
</svg>
