<svg width="50" height="50" viewBox="0 0 50 50" fill="none" xmlns="http://www.w3.org/2000/svg">
<path fill-rule="evenodd" clip-rule="evenodd" d="M20.7167 6.76953H29.2834C33.1126 6.76953 36.1459 6.76953 38.5188 7.08828C40.9605 7.41745 42.9376 8.10911 44.498 9.66745C46.0563 11.2279 46.748 13.2049 47.0772 15.6466C47.2647 17.0487 47.3417 18.6799 47.373 20.5695C47.4002 20.7279 47.403 20.8895 47.3813 21.0487C47.3959 22.2279 47.3959 23.5029 47.3959 24.882V25.1154C47.3959 28.9445 47.3959 31.9779 47.0772 34.3508C46.748 36.7924 46.0563 38.7695 44.498 40.3299C42.9376 41.8883 40.9605 42.5799 38.5188 42.9091C36.1438 43.2279 33.1126 43.2279 29.2834 43.2279H20.7167C16.8876 43.2279 13.8542 43.2279 11.4813 42.9091C9.03966 42.5799 7.06258 41.8883 5.50216 40.3299C3.94383 38.7695 3.25216 36.7924 2.923 34.3508C2.60425 31.9758 2.60425 28.9445 2.60425 25.1154V24.882C2.60425 23.5029 2.60425 22.2279 2.61883 21.0487C2.59649 20.8896 2.5986 20.728 2.62508 20.5695C2.65841 18.6799 2.7355 17.0487 2.923 15.6466C3.25216 13.2049 3.94383 11.2279 5.50216 9.66745C7.06258 8.10911 9.03966 7.41745 11.4813 7.08828C13.8563 6.76953 16.8876 6.76953 20.7167 6.76953ZM5.73341 22.3945C5.72925 23.2029 5.72925 24.0695 5.72925 24.9987C5.72925 28.9716 5.73341 31.7945 6.02091 33.9362C6.30216 36.0299 6.83133 37.2383 7.71258 38.1195C8.59383 39.0008 9.80216 39.5299 11.898 39.8112C14.0397 40.0987 16.8605 40.1029 20.8334 40.1029H29.1667C33.1397 40.1029 35.9626 40.0987 38.1042 39.8112C40.198 39.5299 41.4063 39.0008 42.2876 38.1195C43.1688 37.2383 43.698 36.0299 43.9792 33.9341C44.2667 31.7924 44.2709 28.9716 44.2709 24.9987C44.2709 24.0695 44.2709 23.2029 44.2667 22.3945H5.73341ZM44.2167 19.2695H5.78341C5.82508 18.0466 5.89591 16.9904 6.02091 16.0612C6.30216 13.9674 6.83133 12.7591 7.71258 11.8779C8.59383 10.9966 9.80216 10.4674 11.898 10.1862C14.0397 9.8987 16.8605 9.89453 20.8334 9.89453H29.1667C33.1397 9.89453 35.9626 9.8987 38.1042 10.1862C40.198 10.4674 41.4063 10.9966 42.2876 11.8779C43.1688 12.7591 43.698 13.9674 43.9792 16.0633C44.1042 16.9904 44.1751 18.0466 44.2167 19.2695ZM10.9376 33.332C10.9376 32.9176 11.1022 32.5202 11.3952 32.2272C11.6883 31.9342 12.0857 31.7695 12.5001 31.7695H20.8334C21.2478 31.7695 21.6452 31.9342 21.9383 32.2272C22.2313 32.5202 22.3959 32.9176 22.3959 33.332C22.3959 33.7464 22.2313 34.1439 21.9383 34.4369C21.6452 34.7299 21.2478 34.8945 20.8334 34.8945H12.5001C12.0857 34.8945 11.6883 34.7299 11.3952 34.4369C11.1022 34.1439 10.9376 33.7464 10.9376 33.332ZM24.4792 33.332C24.4792 32.9176 24.6439 32.5202 24.9369 32.2272C25.2299 31.9342 25.6273 31.7695 26.0417 31.7695H29.1667C29.5811 31.7695 29.9786 31.9342 30.2716 32.2272C30.5646 32.5202 30.7292 32.9176 30.7292 33.332C30.7292 33.7464 30.5646 34.1439 30.2716 34.4369C29.9786 34.7299 29.5811 34.8945 29.1667 34.8945H26.0417C25.6273 34.8945 25.2299 34.7299 24.9369 34.4369C24.6439 34.1439 24.4792 33.7464 24.4792 33.332Z" fill="white"/>
</svg>
